<svg id="PHONE" xmlns="http://www.w3.org/2000/svg" viewBox="0 0 1600 1400"><defs><style>.cls-1{fill:#88c0c2;}.cls-2{fill:#fff;}.cls-3{fill:#262424;}.cls-4{fill:#de9244;}</style></defs><title>E-Commerce</title><path class="cls-1" d="M1210.26,165.63a54.35,54.35,0,0,0-24.9-17.79l0-.05-64.49-24.71,13.24,19.74-404.6-22q-1.49-.08-3-0.08a54.51,54.51,0,0,0-53.45,44.15l-207,1075.37a54.41,54.41,0,0,0,4.21,33.41l-30.16,3.69L499,1300.87l1.28,0.51,0.54,0.22,0,0a54.38,54.38,0,0,0,15.89,3.34l440.8,24q1.49,0.08,3,.08h0a54.51,54.51,0,0,0,53.45-44.15l207-1075.37A54.43,54.43,0,0,0,1210.26,165.63Z"/><path class="cls-2" d="M891.1,1302.29q-1.47,0-3-.08l-440.8-24a54.44,54.44,0,0,1-50.5-64.64l207-1075.37a54.51,54.51,0,0,1,53.45-44.15q1.48,0,3,.08l440.79,24a54.44,54.44,0,0,1,50.5,64.64l-207,1075.37a54.51,54.51,0,0,1-53.45,44.15h0Z"/><path class="cls-3" d="M891.1,1304.59h0c-1,0-2.05,0-3.09-.08l-440.8-24a56.75,56.75,0,0,1-52.64-67.37L601.52,137.78a56.93,56.93,0,0,1,58.81-45.94l440.79,24a56.75,56.75,0,0,1,52.64,67.38L946.82,1258.57A56.81,56.81,0,0,1,891.1,1304.59ZM657.23,96.38a52.2,52.2,0,0,0-51.18,42.28L399.1,1214a52.13,52.13,0,0,0,48.36,61.89l440.8,24a52.13,52.13,0,0,0,54-42.2L1149.23,182.33a52.14,52.14,0,0,0-48.36-61.9l-440.79-24Q658.65,96.38,657.23,96.38Z"/><path class="cls-2" d="M909.2,1251.33L1116.15,176a18.44,18.44,0,0,0-17.11-21.9l-440.8-24A18.44,18.44,0,0,0,639.14,145L432.19,1220.39a18.44,18.44,0,0,0,17.11,21.9l440.8,24A18.44,18.44,0,0,0,909.2,1251.33Z"/><path class="cls-3" d="M891.08,1268.6c-0.37,0-.74,0-1.12,0l-440.79-24A20.75,20.75,0,0,1,429.92,1220L636.87,144.59a20.86,20.86,0,0,1,21.5-16.8l440.8,24a20.75,20.75,0,0,1,19.25,24.64L911.47,1251.77l-2.27-.44,2.27,0.44A20.84,20.84,0,0,1,891.08,1268.6ZM657.25,132.37a16.2,16.2,0,0,0-15.85,13.08L434.45,1220.82a16.13,16.13,0,0,0,15,19.16l440.8,24a16.29,16.29,0,0,0,16.72-13.06L1113.89,175.53a16.13,16.13,0,0,0-15-19.16l-440.79-24Z"/><path class="cls-4" d="M916.89,301.38L1092.23,312,1119,172.71c0.71-11.19-3.29-19.58-17.25-22.09l-122.72-6.67s-69.13,109.13-69.8,109.58S916.89,301.38,916.89,301.38Z"/><path class="cls-4" d="M946.23,142.16h0c-98.27-5.35-144.69,151-144.69,151l-0.09.42,115.46,7.8s23.8-159.52,184.89-150.75Z"/><path class="cls-3" d="M918.45,295.9a2.28,2.28,0,0,1-.52-0.06,2.33,2.33,0,0,1-1.75-2.79c6.54-28.66,35.78-123.59,137.22-142a2.33,2.33,0,1,1,.83,4.58C955.59,173.54,927.1,266.14,920.72,294.1A2.33,2.33,0,0,1,918.45,295.9Z"/><path class="cls-1" d="M946.22,142.16h0l-127.5-6.94S711.5,151.68,686.34,285.52l0,0.28,115.15,7.78,0.09-.42S847.95,136.82,946.22,142.16Z"/><path class="cls-1" d="M733.06,130.57l54.4,3-130.25-7.08s-169.51-9.38-201.44,143.79L571.13,278l0-.14S587,122.62,733.06,130.57Z"/><path class="cls-4" d="M787.46,133.53l-54.4-3C587,122.62,571.15,277.88,571.15,277.88l0,0.14,115.16,7.78,0-.28C711.5,151.68,818.71,135.23,818.72,135.23Z"/><path class="cls-1" d="M456,270.25s-16.1,56.52,47.33,62.21,67.65-54.39,67.65-54.39Z"/><path class="cls-4" d="M571.15,277.88s-16.1,56.52,47.33,62.21,67.65-54.39,67.65-54.39Z"/><path class="cls-1" d="M686.34,285.52s-16.1,56.52,47.33,62.21,67.65-54.39,67.65-54.39Z"/><path class="cls-4" d="M801.52,293.16s-16.1,56.52,47.33,62.21S916.51,301,916.51,301Z"/><path class="cls-4" d="M412.24,179.13a1.15,1.15,0,0,0-.28,1.57l3.16,4.94c1,1.67.69,2.91-.86,3.84l-10.56,6.35c-1.54.93-2.78,0.62-3.79-1l-2.73-4.85a1.31,1.31,0,0,0-1.73-.53c-15.94,6.43-29.72,2.79-37.24-9.71l-3.57-5.93a2.61,2.61,0,0,1,1-3.91l18.94-11.4c1.54-.93,2.75-1,3.22-0.18l0.85,1.42c2.64,4.38,7.95,7.68,14.13,4,5.66-3.41,4.86-8.54,3.39-11-5.12-8.51-25.57,4.16-40.53,2.63-7.48-.77-16.41-5.4-22.45-15.45-8.37-13.91-5.94-29.41,7.9-41.41a1.17,1.17,0,0,0,.28-1.58l-3.92-6.23c-1-1.68-.71-2.91.84-3.85l10.3-6.2c1.55-.93,2.78-0.62,3.79,1.06l3.43,6a1.32,1.32,0,0,0,1.73.55c16.54-6.62,30.83-2.41,38.82,10.86l2.95,4.9a2.61,2.61,0,0,1-1,3.91l-18.94,11.4c-1.54.93-2.68,1.08-3.06,0.44l-0.62-1c-2.86-4.76-8.31-8.85-14.88-4.9-4.64,2.79-6.36,7.51-4.27,11,4.18,7,18-.67,31.64-2.55,14.94-2,25,3.91,31.49,14.74C428.5,151.62,426.19,167,412.24,179.13Z"/><path class="cls-4" d="M1270,1027.14a1.23,1.23,0,0,0-1.51.79l-2.12,5.9c-0.76,1.94-2,2.49-3.81,1.78l-12.27-4.78c-1.79-.7-2.34-2-1.59-3.89l2.32-5.48a1.4,1.4,0,0,0-.68-1.81c-15.85-9.28-21.76-23.3-16.1-37.82l2.68-6.88a2.79,2.79,0,0,1,3.94-1.73l22,8.58c1.79,0.7,2.61,1.7,2.25,2.6L1264.5,986c-2,5.09-1.3,11.73,5.88,14.53,6.58,2.56,10.39-1.46,11.5-4.3,3.85-9.88-20.2-18.91-28.68-32.55-4.23-6.83-6.14-17.4-1.59-29.06,6.3-16.15,21-24.22,40.17-20.35a1.25,1.25,0,0,0,1.52-.8l2.71-7.38c0.76-1.95,2-2.5,3.8-1.8l12,4.66c1.8,0.7,2.34,2,1.58,3.9l-2.83,6.81a1.41,1.41,0,0,0,.67,1.82c16.4,9.66,22.16,24.5,16.15,39.91l-2.22,5.69a2.79,2.79,0,0,1-3.94,1.73l-22-8.58c-1.79-.7-2.66-1.56-2.37-2.3l0.47-1.21c2.16-5.53,2.06-12.81-5.56-15.78-5.38-2.1-10.51-.48-12.08,3.57-3.15,8.08,12.33,14.8,22.8,25.09,11.42,11.34,13,23.68,8.09,36.25C1303.88,1022.93,1289.34,1031.05,1270,1027.14Z"/><path class="cls-4" d="M326.62,1302.66a1,1,0,0,0-.23,1.3L329,1308c0.83,1.38.57,2.4-.71,3.17l-8.72,5.25c-1.27.77-2.3,0.51-3.13-.87l-2.26-4a1.08,1.08,0,0,0-1.43-.44c-13.16,5.31-24.53,2.31-30.74-8l-2.94-4.89a2.15,2.15,0,0,1,.8-3.23l15.64-9.41c1.27-.77,2.27-0.79,2.66-0.15l0.7,1.17c2.18,3.62,6.56,6.34,11.67,3.26,4.68-2.81,4-7,2.8-9.07-4.23-7-21.11,3.43-33.46,2.17-6.17-.64-13.54-4.46-18.54-12.75-6.91-11.48-4.9-24.28,6.52-34.19a1,1,0,0,0,.23-1.31l-3.24-5.14c-0.83-1.39-.59-2.41.69-3.18l8.5-5.12c1.28-.77,2.3-0.51,3.13.87l2.83,4.95a1.09,1.09,0,0,0,1.43.45c13.66-5.47,25.46-2,32,9l2.43,4a2.15,2.15,0,0,1-.8,3.23l-15.64,9.41c-1.27.77-2.21,0.89-2.53,0.37l-0.52-.86c-2.37-3.93-6.86-7.31-12.28-4-3.83,2.3-5.25,6.2-3.52,9.08,3.45,5.74,14.88-.56,26.12-2.1,12.33-1.63,20.62,3.23,26,12.17C340,1279.95,338.14,1292.69,326.62,1302.66Z"/><rect class="cls-1" x="282.73" y="362.9" width="182.18" height="110.29" rx="9.72" ry="9.72" transform="translate(-80.12 88.75) rotate(-12.24)"/><rect class="cls-4" x="278.1" y="384.83" width="182.18" height="23.75" transform="translate(-75.71 87.28) rotate(-12.24)"/><rect class="cls-1" x="1189.82" y="516.9" width="182.18" height="110.29" rx="9.72" ry="9.72" transform="translate(557.89 -630.13) rotate(34.91)"/><rect class="cls-4" x="1202.32" y="542.27" width="182.18" height="23.75" transform="translate(549.89 -640.5) rotate(34.91)"/><path class="cls-4" d="M357.39,273.72l5.36-.38a11.41,11.41,0,0,0,10.58-10.58l0.38-5.36,0.38,5.36a11.41,11.41,0,0,0,10.58,10.58l5.36,0.38-5.36.38a11.41,11.41,0,0,0-10.58,10.58L373.72,290l-0.38-5.36a11.41,11.41,0,0,0-10.58-10.58Z"/><path class="cls-4" d="M1295,401.64l9.29-.65a19.75,19.75,0,0,0,18.32-18.32l0.65-9.29,0.65,9.29A19.75,19.75,0,0,0,1342.28,401l9.29,0.65-9.29.65A19.75,19.75,0,0,0,1324,420.62l-0.65,9.29-0.65-9.29a19.75,19.75,0,0,0-18.32-18.32Z"/><path class="cls-4" d="M1197.77,91.15l10.25-.72a21.79,21.79,0,0,0,20.22-20.22L1229,60l0.72,10.25a21.79,21.79,0,0,0,20.22,20.22l10.25,0.72-10.25.72a21.79,21.79,0,0,0-20.22,20.22L1229,122.33l-0.72-10.25A21.79,21.79,0,0,0,1208,91.86Z"/><path class="cls-1" d="M1155.24,98.8l5.35-.37a11.37,11.37,0,0,0,10.55-10.55l0.37-5.35,0.37,5.35a11.37,11.37,0,0,0,10.55,10.55l5.35,0.37-5.35.37a11.37,11.37,0,0,0-10.55,10.55l-0.37,5.35-0.37-5.35a11.37,11.37,0,0,0-10.55-10.55Z"/><path class="cls-4" d="M267.83,561.06l6-.42a12.72,12.72,0,0,0,11.8-11.8l0.42-6,0.42,6a12.72,12.72,0,0,0,11.8,11.8l6,0.42-6,.42a12.72,12.72,0,0,0-11.8,11.8l-0.42,6-0.42-6a12.72,12.72,0,0,0-11.8-11.8Z"/><path class="cls-4" d="M1129,1078.51l6-.42a12.72,12.72,0,0,0,11.8-11.8l0.42-6,0.42,6a12.72,12.72,0,0,0,11.8,11.8l6,0.42-6,.42a12.72,12.72,0,0,0-11.8,11.8l-0.42,6-0.42-6a12.72,12.72,0,0,0-11.8-11.8Z"/><path class="cls-4" d="M1289.34,799.09l6-.42a12.72,12.72,0,0,0,11.8-11.8l0.42-6,0.42,6a12.72,12.72,0,0,0,11.8,11.8l6,0.42-6,.42a12.72,12.72,0,0,0-11.8,11.8l-0.42,6-0.42-6a12.72,12.72,0,0,0-11.8-11.8Z"/><path class="cls-4" d="M307.51,1078.51l5.35-.38a11.39,11.39,0,0,0,10.56-10.56l0.38-5.35,0.38,5.35a11.39,11.39,0,0,0,10.56,10.56l5.35,0.38-5.35.38a11.39,11.39,0,0,0-10.56,10.56l-0.38,5.35-0.38-5.35a11.39,11.39,0,0,0-10.56-10.56Z"/><circle class="cls-1" cx="355.39" cy="608.78" r="5.48"/><circle class="cls-1" cx="243.66" cy="326.42" r="16.11"/><circle class="cls-1" cx="282.78" cy="1143.09" r="14.42"/><circle class="cls-1" cx="593.04" cy="66.78" r="12.49"/><circle class="cls-1" cx="1264.35" cy="326.42" r="12.49"/><circle class="cls-1" cx="1276.85" cy="707.36" r="12.49"/><path class="cls-1" d="M660,1192.92c-5.68,26-21,38.36-44.68,34.68s-18.32-42.68-21.64-76.51,1.64-73.15,36.64-77.15a101.93,101.93,0,0,1,13.12,2.28c4.52,1.08,9.24,2.64,12.56,4.72C664.28,1086.29,665.64,1166.92,660,1192.92Z"/><path class="cls-2" d="M660,1192.92c-5.68,26-21,38.36-44.68,34.68,32.68-10,36-46,35.34-89.33-0.48-32.2-4.39-53.3-7.23-62.06,4.52,1.08,9.24,2.64,12.56,4.72C664.28,1086.29,665.64,1166.92,660,1192.92Z"/><path class="cls-3" d="M623.06,1230.53a53.09,53.09,0,0,1-8.13-.65,2.31,2.31,0,0,1-.32-4.49c29.2-8.93,34.47-38.7,33.71-87.08-0.46-30.53-4.12-52.15-7.11-61.39a2.31,2.31,0,0,1,2.73-3c3.87,0.93,9.32,2.54,13.25,5,10.35,6.67,10,91.7,5,114.44C656.93,1217.61,643.16,1230.53,623.06,1230.53Zm23.69-151c2.9,11.23,5.78,31.37,6.19,58.74,0.57,36.49-1.28,72.93-27.61,87.61,16.66-.94,27.77-12.33,32.38-33.42,6.43-29.43,3.17-105.32-3-109.56A34,34,0,0,0,646.75,1079.5Z"/><path class="cls-2" d="M623.47,1060.06s21.25,13,14.25,46-27,49.75-54.73,52.25-67-2.75-52.51-51.75S590.72,1039.11,623.47,1060.06Z"/><path class="cls-3" d="M572,1161.17c-14.8,0-31-3-40-14.09-7.75-9.45-9-23.29-3.72-41.13,7.59-25.66,24.23-44.95,45.63-52.93a56.68,56.68,0,0,1,50.8,5.09c1.18,0.73,22.49,14.5,15.28,48.47-6.92,32.65-26.56,51.34-56.78,54.07C579.66,1161,575.89,1161.17,572,1161.17Zm22.42-107.29a54.09,54.09,0,0,0-18.93,3.46c-20,7.47-35.65,25.66-42.82,49.92-4.82,16.29-3.86,28.7,2.86,36.9,10.72,13.09,34.19,13.07,47.23,11.9,28-2.52,46.22-20,52.68-50.42,6.55-30.9-12.39-43.1-13.2-43.6l0,0A51.36,51.36,0,0,0,594.44,1053.88Z"/><path class="cls-1" d="M726.27,898.61c-2.09,4.65-6.62,13-12.71,23.6C706.36,934.86,697,950.7,687,967.35c-29.88,49.69-65.32,106.59-65.32,106.59a73.54,73.54,0,0,1-2.77,36.77c-6.92,19.82-20.58,29.91-20.58,29.91a318.77,318.77,0,0,1-62.25,4.65c-6.09-.18-12.28-0.62-18.4-1.32-23.66-2.8-32.59-21.26-31.91-48.15,0.43-17.85,5.11-39.39,12.55-62.49C517,975.29,575,849.93,575,849.93c32-56,74.68-75.29,128-57.29S738.27,871.93,726.27,898.61Z"/><path class="cls-3" d="M618.88,1110.7l-35.42-4.59,38.19-32.18A73.54,73.54,0,0,1,618.88,1110.7Z"/><path class="cls-3" d="M713.56,922.21C706.36,934.86,697,950.7,687,967.35l8.12-58.52S695.87,915.38,713.56,922.21Z"/><path class="cls-3" d="M711.62,924.26a2.29,2.29,0,0,1-.87-0.17l-8.19-3.35a16.48,16.48,0,0,1-9.71-11.38c-9.06-37.48-6.21-73.89-6.18-74.25a2.31,2.31,0,0,1,4.6.38c0,0.35-2.81,36.05,6.07,72.79a11.85,11.85,0,0,0,7,8.19l8.19,3.35A2.31,2.31,0,0,1,711.62,924.26Z"/><path class="cls-3" d="M612.43,1111.91l-0.28,0-29-3.5a2.31,2.31,0,0,1-1.53-3.72C621,1055,692.3,909.27,693,907.8a2.31,2.31,0,1,1,4.15,2c-0.7,1.44-69.26,141.61-109.38,194.48l24.92,3A2.31,2.31,0,0,1,612.43,1111.91Z"/><path class="cls-2" d="M561.73,1108.13c-2.84,16-13.08,30.2-25.68,37.12-6.08-.16-12.28-0.6-18.4-1.32-23.68-2.8-32.6-21.24-31.92-48.16a9.32,9.32,0,0,1,.16-1c4.36-24.56,24.84-41.48,45.8-37.76S566,1083.57,561.73,1108.13Z"/><path class="cls-1" d="M1205.86,1312.21a50.74,50.74,0,0,1-13.76,3.08c-11.4,1.08-27.68-1-40.24-17.08-21.48-27.48-62.48-93-80-111s3.84-46.68,24.52-49a243.87,243.87,0,0,1,50.76-.08c4.88,0.48,10,1.08,15.24,1.92C1162.39,1140.06,1199.38,1234.22,1205.86,1312.21Z"/><path class="cls-2" d="M1205.86,1312.21a50.74,50.74,0,0,1-13.76,3.08c-2.64-15-4.39-43.56-14.72-82.23-14.49-54.24-23.64-80.87-30.24-94.91,4.88,0.48,10,1.08,15.24,1.92C1162.39,1140.06,1199.38,1234.22,1205.86,1312.21Z"/><path class="cls-3" d="M1192.1,1317.6a2.3,2.3,0,0,1-2.27-1.91c-0.71-4-1.36-9.06-2.11-14.87-2.12-16.42-5-38.91-12.57-67.17-12.7-47.54-22.55-78.46-30.1-94.52a2.31,2.31,0,0,1,.2-2.31,2.27,2.27,0,0,1,2.11-1c5.6,0.55,10.63,1.18,15.37,1.93a2.32,2.32,0,0,1,1.79,1.44c0.37,0.95,37.2,95.36,43.63,172.8a2.31,2.31,0,0,1-1.41,2.32,53,53,0,0,1-14.44,3.25h-0.21Zm-41.2-176.74c7.48,17.2,16.67,46.54,28.71,91.61,7.63,28.56,10.55,51.22,12.69,67.77,0.61,4.76,1.16,9,1.72,12.53a51.56,51.56,0,0,0,9.39-2.12c-6.36-71.64-38.4-157.27-42.7-168.51C1157.61,1141.66,1154.36,1141.24,1150.9,1140.86Z"/><path class="cls-2" d="M1087.72,1193.41l-24.12-7.57-42.86-13.45,23-40.65,8.28,3.75,46.74,21.23S1104.73,1184.74,1087.72,1193.41Z"/><path class="cls-3" d="M1087.72,1195.72a2.37,2.37,0,0,1-.69-0.11l-67-21a2.31,2.31,0,0,1-1.32-3.34l23-40.65a2.31,2.31,0,0,1,3-1l55,25a2.31,2.31,0,0,1,1.3,1.62c0.26,1.21,6.16,29.84-12.22,39.22A2.3,2.3,0,0,1,1087.72,1195.72ZM1024.15,1171l63.33,19.87c12.5-7.26,10-27.58,9.2-32.58l-52-23.61Z"/><path class="cls-3" d="M1063.59,1185.84l-42.86-13.45,23-40.65,8.28,3.75A316.62,316.62,0,0,1,1063.59,1185.84Z"/><path class="cls-2" d="M1049.72,1161.07c-10.31,29.32-41.32,56-54.65,57-5.66.43-16.83-3.17-28.37-8-15.6-6.46-31.88-15.14-36.31-19-6.15-5.38-9.75-52.4,16.06-90.89a105,105,0,0,1,24.28-25.75s17.66-12,21.66-12,56,25.66,58.68,27.66S1060.06,1131.75,1049.72,1161.07Z"/><path class="cls-3" d="M994.11,1220.4c-7.14,0-19.2-4.4-28.3-8.21-15.15-6.27-32.06-15.15-36.93-19.37-7.21-6.31-11-54.24,15.66-93.92a107.45,107.45,0,0,1,24.81-26.31c4.37-3,18.68-12.46,23.05-12.46,5.56,0,59.68,27.84,60.06,28.12,4.25,3.2,9.58,44.86-.56,73.6h0c-10.63,30.25-42.36,57.46-56.65,58.52C994.88,1220.39,994.5,1220.4,994.11,1220.4Zm-1.83-155.67c-2,.08-12.14,6.09-20.26,11.61a102.8,102.8,0,0,0-23.66,25.13c-25.86,38.56-21.07,83.84-16.46,87.87,4,3.45,19.6,11.94,35.67,18.59,12.73,5.33,22.7,8.21,27.31,7.83,12.82-.95,42.73-27.26,52.64-55.45h0c9.52-27,4.41-64.11,2-68.5C1044.45,1088.51,996.49,1065.28,992.29,1064.73Z"/><path class="cls-3" d="M966.7,1210.06c-15.6-6.46-31.88-15.14-36.31-19-6.15-5.38-9.75-52.4,16.06-90.89Z"/><path class="cls-1" d="M696.09,839.77C685,888.39,779,1081.93,842.74,1134.41c22.67,18.67,108,46.66,108,46.66s62.66-21.33,45.33-104l-76.66-36.66s-54.66-122.66-74.66-186.65S716.75,749.11,696.09,839.77Z"/><path class="cls-2" d="M827.9,1071.58c-20.43,31.29,43.22,96.73,78.53,56.19C940.91,1088.18,858.06,1025.41,827.9,1071.58Z"/><path class="cls-3" d="M988.9,1105.39a2.29,2.29,0,0,1-.93-0.2l-99.49-44a2.3,2.3,0,0,1-1-.84c-21.87-33.13-92.54-204.75-95.53-212a2.31,2.31,0,0,1,4.27-1.75c0.73,1.77,72.68,176.52,94.75,210.69L989.83,1101A2.31,2.31,0,0,1,988.9,1105.39Z"/><path class="cls-3" d="M391.63,754.72a2.31,2.31,0,0,1-1.44-4.11c2.16-1.72,53.22-42.23,83.53-45.6a2.31,2.31,0,0,1,.51,4.59c-29,3.22-80.64,44.2-81.16,44.61A2.3,2.3,0,0,1,391.63,754.72Z"/><path class="cls-2" d="M648.91,574.21c-0.4,9.75-3.94,21.57-12.28,35.45-15.23,25.38-44,64.37-71.11,98.43-26.28,33-51,61.32-60.55,68.22-19.32,14-38.65,8.34-54.34-14.68S420,700,420,700l11-15,43,22.34s89-140,102.65-152S603,541,618.63,539C629.93,537.53,649.93,548.94,648.91,574.21Z"/><path class="cls-3" d="M484.1,786.2a30.82,30.82,0,0,1-5.29-.46c-10.93-1.91-21.05-9.58-30.08-22.81C433.1,740,418,701.25,417.83,700.86a2.31,2.31,0,0,1,.29-2.2l11-15a2.32,2.32,0,0,1,2.93-.69l41.14,21.36C484,687.24,562,565.06,575.11,553.58c14-12.33,27.32-14.86,43.23-16.89,6.77-.86,15.18,2.3,21.46,8.06,7.84,7.18,11.89,17.68,11.41,29.56h0c-0.46,11.08-4.7,23.38-12.61,36.54-13.81,23-41.13,60.83-71.28,98.68-22.26,27.95-50,60.65-61,68.65C499,783.51,491.5,786.2,484.1,786.2Zm-61.5-85.84c2.64,6.61,16.12,39.69,29.94,60,8.29,12.16,17.4,19.18,27.06,20.86,7.85,1.37,15.94-.9,24-6.76,8.78-6.36,32.37-33,60.1-67.78,30-37.7,57.22-75.32,70.93-98.18,7.51-12.49,11.53-24.05,12-34.35,0.54-13.45-5.1-21.55-9.92-26-5.32-4.88-12.29-7.58-17.76-6.88-15.62,2-27.69,4.3-40.77,15.78C564.9,568.69,476.82,707.16,475.93,708.55a2.3,2.3,0,0,1-3,.81l-41.26-21.42ZM648.91,574.21h0Z"/><path class="cls-3" d="M648.91,574.21c-0.4,9.75-3.94,21.57-12.28,35.45-15.23,25.38-44,64.37-71.11,98.43,2.92-46.15,18.8-145.42,77.39-135.32A47.56,47.56,0,0,1,648.91,574.21Z"/><polygon class="cls-4" points="421.23 744.63 366.73 748.13 438.73 832.86 493.23 829.36 421.23 744.63"/><polygon class="cls-4" points="369.32 994.64 454.48 989.17 493.23 829.36 438.73 832.86 369.32 994.64"/><polygon class="cls-4" points="366.73 748.13 243.66 840.63 369.32 994.64 438.73 832.86 366.73 748.13"/><path class="cls-3" d="M438.73,835.17a2.3,2.3,0,0,1-1.76-.81l-65.24-76.79a2.31,2.31,0,0,1,3.52-3l64.49,75.9,45.81-2.94a2.31,2.31,0,1,1,.29,4.6l-47,3h-0.15Z"/><path class="cls-3" d="M376,981.35a2.31,2.31,0,0,1-2.12-3.22L436.61,832a2.31,2.31,0,0,1,4.24,1.82L378.13,980A2.31,2.31,0,0,1,376,981.35Z"/><path class="cls-3" d="M466,842.93a2.31,2.31,0,0,1-2.07-3.32c0.44-.9,43.58-90,26.22-120.42-3.34-5.85-8.68-9-16.33-9.59a2.31,2.31,0,0,1,.36-4.6c9.16,0.72,15.88,4.73,20,11.9,18.56,32.5-24.25,121-26.09,124.73A2.31,2.31,0,0,1,466,842.93Z"/><path class="cls-2" d="M440,666.31c10,0,13.17,2.5,13.33,12.67s-1.67,23.17-11.17,22.5S434.15,666.31,440,666.31Z"/><path class="cls-3" d="M442.85,703.8c-0.28,0-.57,0-0.86,0-7.17-.5-9.32-12.15-8.94-22.88,0.18-5.08,1.21-16.89,6.94-16.89,11.51,0,15.46,3.77,15.64,14.94,0.12,7.47-.78,17.37-5.78,22.11A9.84,9.84,0,0,1,442.85,703.8Zm-2.61-35.19c-2,1.92-4,16.11-1.34,25.46,0.87,3.1,2.15,5,3.41,5.1a5.44,5.44,0,0,0,4.36-1.48c2.91-2.76,4.49-9.56,4.34-18.68C450.86,670.44,449,668.65,440.23,668.61Z"/><path class="cls-2" d="M437.48,661.39c-2.21-2.58-13.5-9.75-18.75-10s-27.75,3.75-31,7-0.5,53.5,1.5,57.5,23.5,6.25,31.25,5.25,17.25-11.5,18.5-14.25S442,666.64,437.48,661.39Z"/><path class="cls-3" d="M416.08,723.65c-9.51,0-26.49-1.87-28.91-6.73-1.38-2.76-5.84-55.39-1.07-60.16,4.11-4.11,28-7.93,32.74-7.67,6.09,0.29,17.93,7.93,20.39,10.8h0c5.51,6.43,3.17,45.06,1.85,48s-11.37,14.43-20.3,15.58A39.75,39.75,0,0,1,416.08,723.65Zm2-70c-6.48,0-26.43,4.09-28.68,6.34-2.17,4.22,0,50.36,1.95,54.86,1.89,2.43,20.55,5,28.88,4,6.61-.85,15.61-10.52,16.69-12.91,1.34-4,2.18-39.16-1.15-43-1.82-2.13-12.6-9-17.11-9.2H418Z"/><path class="cls-2" d="M694,585.13c-84,2.43-89,12-62.52-53,0,0,12.4-6,38.22-10.4L672,484.67l17-5.26,17-5.23,0.89,43.51a449.07,449.07,0,0,1,45.63,0S762.94,583.13,694,585.13Z"/><path class="cls-3" d="M641,589.36c-13,0-20.52-1.4-24-6.35-5.34-7.56-.39-20.52,12.31-51.7a2.3,2.3,0,0,1,1.14-1.21c0.51-.24,12.41-5.88,37-10.28l2.2-35.29a2.31,2.31,0,0,1,1.62-2.06l34-10.49a2.31,2.31,0,0,1,3,2.16l0.84,41.13c14-.66,28.66-0.64,43.49.09a2.31,2.31,0,0,1,2.17,1.94c0.19,1.2,4.49,29.59-12.51,50.12-10.49,12.67-26.72,19.4-48.23,20h0c-10.72.31-20.12,0.74-28.41,1.11C655.82,589,647.69,589.36,641,589.36Zm53-4.23h0ZM633.22,533.9c-10,24.51-16.51,40.71-12.47,46.44,3.84,5.44,18.33,4.78,44.64,3.59,8.31-.38,17.73-0.8,28.49-1.11h0c20.13-.58,35.2-6.76,44.81-18.36,13.31-16.07,12.34-38.13,11.72-44.6-14.84-.66-29.45-0.62-43.45.12a2.31,2.31,0,0,1-2.43-2.26l-0.83-40.45-29.55,9.12L672,521.92A2.31,2.31,0,0,1,670,524C648.48,527.75,636.31,532.58,633.22,533.9Z"/><path class="cls-3" d="M698.33,496.11c-5.63,29.39-28.68,25.66-28.68,25.66L672,484.67l17-5.26C695.74,481.4,700.2,486.2,698.33,496.11Z"/><path class="cls-4" d="M869.44,846.12s-62,42-163,42-142.49-39-142.49-39,24-87,32-143.51c0,0-23-35.48-27.48-52s16-77,33.48-116.49l39-12.52L629.8,563.19a13.88,13.88,0,0,0,14.49,16.74l69.39-4.58a23.69,23.69,0,0,0,21.72-19.2l12.06-44.49,51,4s11.51,23,23.51,90c2.18,12.25,5.17,28.06,8.58,45.72,4.62,24,10,51.32,15.29,77.82C858,790,869.44,846.12,869.44,846.12Z"/><path class="cls-3" d="M845.84,729.19c-59.69-32.62-60-125.39-60-127.14,0,0,21.75,22.55,44.68,49.32C835.16,675.35,840.58,702.7,845.84,729.19Z"/><path class="cls-3" d="M1051.94,761.94a2.31,2.31,0,0,1-1.91-1c-0.38-.56-39.32-56.58-101.77-76.1a2.31,2.31,0,1,1,1.38-4.41c64,20,103.81,77.32,104.21,77.89A2.31,2.31,0,0,1,1051.94,761.94Z"/><path class="cls-2" d="M796.45,521.15c-26.23,0-32,64.5-8.5,103s100,115.49,137,132.49,68-41,76-60.5-16-29.5-29-24.5-28,9-28,9S837.95,521.15,796.45,521.15Z"/><path class="cls-3" d="M938.53,762A34.57,34.57,0,0,1,924,758.73c-37.21-17.1-114-94.1-138-133.39-18.53-30.36-18.83-74-7.5-94.19,4.52-8.06,10.74-12.32,18-12.32,40.63,0,137.25,142.37,148.48,159.13,4.18-1.17,15.88-4.53,26.17-8.49,8.84-3.4,21.6-.47,28.43,6.52,5.52,5.64,6.77,13.11,3.53,21-0.84,2.05-21,50.43-51.34,62.39A35.85,35.85,0,0,1,938.53,762ZM796.45,523.46c-5.55,0-10.24,3.35-13.95,10-10.68,19-9.77,61.35,7.42,89.52,23.69,38.8,99.38,114.78,136,131.6a29.72,29.72,0,0,0,24.13.58c22.79-9,41.37-41.85,48.77-59.85,3.2-7.81.38-13-2.56-16-5.57-5.7-16.33-8.19-23.48-5.43-13,5-28.08,9-28.23,9.07a2.31,2.31,0,0,1-2.52-1C941,680.33,836.25,523.46,796.45,523.46Z"/><path class="cls-2" d="M968.11,634.47s-5.84-6.4-11.9-.42-1.88,34.24,8.07,33.14S972.11,651.72,968.11,634.47Z"/><path class="cls-3" d="M963.75,669.53c-2.37,0-6.11-1.17-9.11-7.46-4.24-8.9-5.12-24.66-.05-29.66a9.93,9.93,0,0,1,7.4-3.22,11.89,11.89,0,0,1,7.83,3.72,2.3,2.3,0,0,1,.54,1c3.57,15.38,5,26,1,31.71a9.17,9.17,0,0,1-6.79,3.83A7.36,7.36,0,0,1,963.75,669.53Zm-2-35.72a5.56,5.56,0,0,0-3.92,1.89c-3,3-3,16.07,1,24.39,0.91,1.91,2.74,5.06,5.22,4.82a4.62,4.62,0,0,0,3.54-1.91c3.12-4.4,1.14-15.67-1.54-27.33a7,7,0,0,0-4.18-1.86h-0.09Z"/><path class="cls-2" d="M966.44,635.64c-0.83-10.36,16.5-22.54,24.5-23.79s27.5,7,31.5,15.79,2,57-3.5,62.25-26.75,8.1-36,5.35S969.94,679.39,966.44,635.64Z"/><path class="cls-3" d="M992.44,698.61a37.48,37.48,0,0,1-10.16-1.16c-10.62-3.16-14.52-16.4-18.14-61.62-0.94-11.74,17.16-24.8,26.44-26.26,8.56-1.33,29.31,6.95,34,17.11,4.37,9.56,2.52,58.65-4,64.87C1015.89,696,1002.9,698.61,992.44,698.61Zm-23.7-63.15c3.34,41.73,6.81,55.18,14.86,57.57,8.8,2.61,29-.26,33.75-4.81,4.53-4.32,6.88-51.12,3-59.62-3.65-8-22.18-15.58-29-14.47-7.33,1.15-23.24,12.75-22.55,21.33h0Z"/><path class="cls-3" d="M957.94,850.93a2.3,2.3,0,0,1-1.81-.88c-2.31-2.94-56.36-72.57-45.84-127.34,3.61-18.83,14.55-33.65,32.5-44.07a2.31,2.31,0,0,1,2.31,4c-16.74,9.71-26.93,23.49-30.29,40.94-10.12,52.7,44.39,122.93,44.94,123.63A2.31,2.31,0,0,1,957.94,850.93Z"/><path class="cls-4" d="M947.49,844.07l105.66-89.68a10.63,10.63,0,0,1,13.65-.1l137.68,113.54a10.63,10.63,0,0,1,.41,16.05L1050,1025.39a10.63,10.63,0,0,1-16.55-2.83L945,857.19A10.63,10.63,0,0,1,947.49,844.07Z"/><path class="cls-3" d="M716.34,364.76c-13.41,13.17,13.77,41.14,23.95,49.36s14.82,41.85,39.56,43.49,3.34,58.33,72.52,78.83c53.32,15.8,112-37.08,88-68.17s-86.58-24.13-108.17-52.84c-13.74-18.27-17.33-51.43-55.66-48.11C747.92,369.79,726.92,354.37,716.34,364.76Z"/><path class="cls-2" d="M637.12,458.55s-11.37-14.33-21.91-8.33-4,42.18,22.54,35.09Z"/><path class="cls-3" d="M633.13,488.45c-10.16.8-18.42-4.51-22.66-14.86-3.73-9.1-3.41-21.38,3.61-25.38,12.14-6.9,24.34,8.25,24.86,8.9a2.31,2.31,0,0,1-3.61,2.87c-0.1-.13-10.28-12.7-19-7.76-4.1,2.34-4.88,11.69-1.62,19.62,1.91,4.67,7.92,15.1,22.43,11.24a2.31,2.31,0,1,1,1.19,4.46A29,29,0,0,1,633.13,488.45Z"/><path class="cls-2" d="M707.54,383.3l6-3.44a6.08,6.08,0,0,1,6.18.05,20.48,20.48,0,0,1,6.76,6.24c2,3.21,1.95,7,1.59,9.48a6,6,0,0,1-2.41,4l-6.37,4.7a6.1,6.1,0,0,1-9.15-2.31l-5.08-10.78A6.1,6.1,0,0,1,707.54,383.3Z"/><path class="cls-3" d="M716.32,407.77a8.42,8.42,0,0,1-8.27-4.81L703,392.18a8.46,8.46,0,0,1,3.42-10.88h0l6-3.44a8.4,8.4,0,0,1,8.51.07,22.86,22.86,0,0,1,7.52,7c2.36,3.76,2.35,8.08,1.92,11a8.27,8.27,0,0,1-3.33,5.49l-6.37,4.7A8.38,8.38,0,0,1,716.32,407.77Zm-7.63-22.47a3.82,3.82,0,0,0-1.54,4.91L712.23,401a3.8,3.8,0,0,0,5.69,1.44l6.37-4.7a3.69,3.69,0,0,0,1.5-2.44,11.89,11.89,0,0,0-1.26-7.92,18.32,18.32,0,0,0-6-5.49,3.79,3.79,0,0,0-3.84,0Z"/><path class="cls-2" d="M630.74,465.09c3,22.47,15.07,47.72,42.3,44.84,20-2.11,40.32-28,39.62-58.61s-8-56.27-44.57-51.57a88.85,88.85,0,0,0-11.53,2.45c-20.89,6.37-28.87,8.9-27.17,50.86C629.54,456.78,630.16,460.85,630.74,465.09Z"/><path class="cls-3" d="M672.1,512.34c-27.23,2.14-40.4-22.71-43.65-46.94l-0.23-1.68c-0.51-3.72-1-7.23-1.13-10.56-1.69-41.73,6.08-46.24,28.8-53.16a91.34,91.34,0,0,1,11.91-2.53c13.79-1.79,24.7.64,32.32,7.19,12.46,10.71,14.48,30.54,14.85,46.62,0.76,33.25-21.36,58.81-41.68,61Zm-0.23-110.66q-1.7.13-3.49,0.36a87.26,87.26,0,0,0-11.16,2.37c-20.32,6.19-27.16,8.28-25.53,48.56,0.13,3.1.6,6.51,1.1,10.11l0.23,1.69h0c1.46,10.88,8.67,46,39.77,42.85,18.29-1.93,38.24-26.4,37.55-56.26-0.5-22.16-4.71-35.89-13.24-43.23C691.06,403,682.78,400.82,671.87,401.68Z"/><path class="cls-3" d="M703.25,455.07a21.92,21.92,0,0,1-15.18-16.5c-0.61-2.61-1.13-6.15-2.15-9.31-14.25,17.47-42.79,29.63-55.26,34.34a10,10,0,0,1-11.33-2.86c-16.63-20.84-2.16-64.41,26.47-65.83,30.66-25,69.83-11.64,77.37,15.33C731.52,440.14,712.68,458.16,703.25,455.07Z"/><path class="cls-2" d="M703.4,453.35S717,436.9,733,440.66s9.75,40.77-29.07,39.22Z"/><path class="cls-3" d="M710.57,482.07a57.11,57.11,0,0,1-6.77.12,2.31,2.31,0,0,1-2.21-2.4,2.28,2.28,0,0,1,2.4-2.21c21.62,0.86,33.15-11,34.69-22.31,0.72-5.25-.94-11.11-6.24-12.36-14.42-3.39-27.14,11.76-27.27,11.92a2.31,2.31,0,0,1-3.56-2.94c0.59-.72,14.71-17.51,31.88-13.47,7,1.66,11,8.68,9.76,17.47C741.62,468,730.74,480.49,710.57,482.07Z"/></svg>