<svg id="RIGHT_FEET" data-name="RIGHT FEET" xmlns="http://www.w3.org/2000/svg" viewBox="0 0 1600 1400"><defs><style>.cls-1{fill:#fff;}.cls-2{fill:#262424;}.cls-3{fill:#88c0c2;}.cls-4{fill:#de9244;}</style></defs><title>High-quality Products</title><polygon class="cls-1" points="735.74 1247.41 780.92 1255.56 782.15 1279.51 729.82 1279.01 735.74 1247.41"/><path class="cls-2" d="M782.15,1281.37h0l-52.34-.49a1.87,1.87,0,0,1-1.82-2.21l5.92-31.6a1.87,1.87,0,0,1,2.16-1.49l45.18,8.15a1.87,1.87,0,0,1,1.53,1.74l1.23,23.95A1.87,1.87,0,0,1,782.15,1281.37Zm-50.09-4.2,48.13,0.45-1.06-20.49-41.9-7.56Z"/><path class="cls-3" d="M896.46,1325.4a30.33,30.33,0,0,1-12.09,9.24,35.58,35.58,0,0,1-36.79-4.56c-18.25-14-73.11-45.62-73.11-45.62,6.93-27-5.63-35.55-5.63-35.55,8.47-11.73,21.45-25,30.63-33.83,6.34-6.1,10.84-10.13,10.84-10.13C849.54,1238.78,896.46,1325.4,896.46,1325.4Z"/><path class="cls-1" d="M896.46,1325.4a30.33,30.33,0,0,1-12.09,9.24c-32.59-64.64-73.29-107.89-84.9-119.56,6.34-6.1,10.84-10.13,10.84-10.13C849.54,1238.78,896.46,1325.4,896.46,1325.4Z"/><path class="cls-2" d="M884.38,1336.51a1.87,1.87,0,0,1-1.67-1c-32.33-64.13-72.9-107.36-84.56-119.09a1.86,1.86,0,0,1,0-2.66c6.29-6.06,10.85-10.14,10.89-10.18a1.87,1.87,0,0,1,2.46,0c39,33.67,86.1,120.11,86.57,121a1.86,1.86,0,0,1-.14,2,32,32,0,0,1-12.83,9.83A1.86,1.86,0,0,1,884.38,1336.51Zm-82.25-121.39c13.15,13.42,51.79,55.58,83.09,117.06a28.7,28.7,0,0,0,9-7c-5.49-9.95-48-85.9-83.9-117.77C808.77,1208.87,805.82,1211.59,802.13,1215.12Z"/><path class="cls-4" d="M698.71,1228.4s8.64-7.9,23.7-3.95,30.36,18.27,23,48.88-42.71,41.23-62,14.07S698.71,1228.4,698.71,1228.4Z"/><path class="cls-3" d="M793,1082.49l-98.23,143.2c16.77,4.92,38,17.77,35,41s-22.22,27.14-22.22,27.14-38.75,0-70.39-4.44c-2.25-.3-4.44-0.65-6.64-1-23.64-3.91-41.3-13.57-39.76-47.58,0.53-12.92,3.85-29.27,10.67-50.18,24.65-76,107.12-260.16,107.12-260.16,28.62-63.22,116.54-72.58,117.49,9.36S793,1082.49,793,1082.49Z"/><path class="cls-2" d="M707.43,987.1A25.62,25.62,0,0,1,695.85,984a1.94,1.94,0,1,1,1.76-3.47c6.21,3.16,11.81,3.49,16.63,1,13.85-7.17,18-34.81,18.08-35.09a1.94,1.94,0,0,1,3.85.56c-0.18,1.22-4.52,29.89-20.14,38A18.5,18.5,0,0,1,707.43,987.1Z"/><path class="cls-1" d="M644.36,1268.53a33.66,33.66,0,0,1-7.17,20.86c-2.25-.3-4.44-0.65-6.64-1-23.64-3.91-41.3-13.57-39.76-47.58A34,34,0,0,1,644.36,1268.53Z"/><path class="cls-2" d="M718.46,1251.33a1.9,1.9,0,0,1-.35,0l-48.39-8.89a1.94,1.94,0,0,1-1.29-3L779,1065.66a1.94,1.94,0,0,1,3.28,2.09l-109,171.36,45.55,8.37A1.94,1.94,0,0,1,718.46,1251.33Z"/><path class="cls-2" d="M652.3,1250.1a1.95,1.95,0,0,1-.77-3.73l17.59-7.58,18.6-13a1.94,1.94,0,0,1,2.22,3.19l-18.76,13.08a1.94,1.94,0,0,1-.34.19l-17.77,7.65A2,2,0,0,1,652.3,1250.1Z"/><path class="cls-3" d="M1091.29,1237.94h-0.06c-19.61,5.39-50.12-54.92-58.24-81.82s-6.52-56.35-5.75-60.37c0.53-3.14,6.93-12.68,14-19a0.73,0.73,0,0,1,.18-0.12,31.31,31.31,0,0,1,6.22-4.56c19.61-10.43,37.74,11.85,47.4,59.25S1110.9,1232.37,1091.29,1237.94Z"/><path class="cls-1" d="M1091.29,1237.94h-0.06c9.36-11.49,7.29-44.73-4.38-101-15.76-76-43-61.8-45.44-60.31a31.31,31.31,0,0,1,6.22-4.56c19.61-10.43,37.74,11.85,47.4,59.25S1110.9,1232.37,1091.29,1237.94Z"/><path class="cls-2" d="M1091.29,1239.81h-0.06a1.87,1.87,0,0,1-1.45-3c8.63-10.59,7.11-42.19-4.76-99.46-8.76-42.23-20.89-55.62-29.52-59.42a14.49,14.49,0,0,0-13.14.33,1.87,1.87,0,0,1-2.21-3,32.89,32.89,0,0,1,6.61-4.83c6.37-3.39,12.67-3.65,18.74-.79,13.46,6.34,24.59,28.12,31.36,61.32,13.64,67.38,11.94,104-5.05,108.81A1.84,1.84,0,0,1,1091.29,1239.81Zm-40.92-167a19.54,19.54,0,0,1,6.63,1.66c13.72,6,24.38,26.93,31.67,62.08,10.34,49.87,12.85,80.17,7.72,95.49,8.71-11.83,7.68-46.68-3.2-100.37-6.52-32-16.92-52.85-29.29-58.68A16,16,0,0,0,1050.38,1072.8Z"/><path class="cls-1" d="M1010.75,1124.6l22.22-28.88s11.3-8.45,15.63,9.26l-12.38,38.88Z"/><path class="cls-2" d="M1036.22,1145.72a1.86,1.86,0,0,1-1.12-.38l-25.47-19.26a1.87,1.87,0,0,1-.35-2.63l22.22-28.88a1.89,1.89,0,0,1,.36-0.36c0.2-.15,5-3.7,10.16-1.86,3.94,1.41,6.77,5.51,8.4,12.17a1.86,1.86,0,0,1,0,1L1038,1144.42a1.86,1.86,0,0,1-1.21,1.21A1.84,1.84,0,0,1,1036.22,1145.72Zm-22.84-21.47,21.86,16.53,11.42-35.87c-1.3-5-3.34-8.12-5.91-9-2.79-1-5.73.72-6.48,1.21Z"/><path class="cls-4" d="M978.19,1148.93s0.47-8.91,3.19-13.6,17.28-15.31,28.14-16.54,37.77,7.94,41.23,30.14a54.35,54.35,0,0,1-9.38,40.22c-2.22,3.21-9.5,12.66-15.73,11S978.19,1148.93,978.19,1148.93Z"/><path class="cls-3" d="M1034.93,1180.78s-21.45,45.5-34.66,69.26c-2.25,4-4.21,7.29-5.81,9.72-9.42,14.34-35.19,26.31-66.54,7.35a108.67,108.67,0,0,1-19.85-15.76c-40-39.46-111.62-178.69-111.62-178.69s-5.45-169,35.07-184.2c69.62-26.13,97.29,53.32,110.62,102.74s31.58,162.4,31.58,162.4c15.82-17.24,31.58-27.14,49.89-11.85S1034.93,1180.78,1034.93,1180.78Z"/><path class="cls-2" d="M796,1046.74a2,2,0,0,1-.45-0.05c-0.61-.14-15-3.63-17.49-12.28-2.28-7.86-.88-56.78-0.82-58.86a1.94,1.94,0,0,1,1.94-1.89h0.06a1.94,1.94,0,0,1,1.89,2c-0.41,14-1.09,51.63.66,57.66,1.56,5.37,11.1,8.73,14.65,9.58A1.94,1.94,0,0,1,796,1046.74Z"/><path class="cls-2" d="M795.61,1064h0a2,2,0,0,1-1.9-2l1.85-81.1a1.94,1.94,0,1,1,3.89.09l-1.85,81.1A1.94,1.94,0,0,1,795.61,1064Z"/><path class="cls-2" d="M913.75,996.7a21.57,21.57,0,0,1-10.51-2.62c-13.47-7.37-16.25-27.48-16.36-28.33a1.94,1.94,0,0,1,3.86-.51c0,0.19,2.64,19,14.39,25.44,5.89,3.21,13.25,2.79,21.86-1.27a1.94,1.94,0,1,1,1.66,3.52A35.27,35.27,0,0,1,913.75,996.7Z"/><path class="cls-1" d="M1000.26,1250c-2.25,4-4.21,7.29-5.81,9.72-9.42,14.34-35.19,26.31-66.54,7.35-0.06-1-.12-2.07-0.12-3.08A37.57,37.57,0,0,1,1000.26,1250Z"/><path class="cls-2" d="M976.19,1211.34l-0.32,0a1.94,1.94,0,0,1-1.56-1.41L916.65,994.77a1.94,1.94,0,0,1,3.76-1l56.56,211,38.1-56.69a1.94,1.94,0,1,1,3.23,2.17l-40.49,60.24A2,2,0,0,1,976.19,1211.34Z"/><path class="cls-2" d="M974.83,1224.3H974.7a1.94,1.94,0,0,1-1.81-2.07c1.46-21.86,0-58.3,0-58.67a1.94,1.94,0,1,1,3.88-.16c0,0.37,1.47,37,0,59.08A1.94,1.94,0,0,1,974.83,1224.3Z"/><path class="cls-1" d="M698.71,641.11l-29.62,56.78s-58.26-54.32-63.7-64.68-11.61-103.69-11.61-103.69-20-10.19-29.72-19.11-18.26-33.54-18.26-33.54c-1.06-5.74,13.59-24.42,16.35-24.21s19.43,22.43,20,23.12c-0.23-.72-7.86-23.81-8.7-27.15s2.34-6.58,5.31-4.46,20.17,35.24,21,36.09,17,9.34,17,9.34l6-5.09c-0.43-15.29,5.94-15.71,7.22-12.74s2.55,25,1.7,28.88-6.8,17.83-6.8,17.83l24.06,83.62Z"/><path class="cls-2" d="M669.09,699.75a1.86,1.86,0,0,1-1.27-.5c-2.39-2.23-58.56-54.66-64.08-65.18-5.3-10.11-11-92.54-11.75-103.38-4.13-2.16-20.45-10.93-29.19-18.91-10-9.14-18.41-33.29-18.77-34.31a1.9,1.9,0,0,1-.07-0.27c-1-5.36,7.57-17,11.88-21.77,3.79-4.21,5.33-4.72,6.45-4.63,0.83,0.06,2.84.22,14.64,15.2-3.19-9.79-4.95-15.35-5.34-16.91a6.15,6.15,0,0,1,2.36-6.59,5,5,0,0,1,5.85.16c2,1.44,7.25,10.64,16.84,28.24,2,3.69,3.91,7.19,4.46,8.06,1.33,0.89,8.57,4.82,15.37,8.41l4.32-3.69c-0.15-12.38,4.15-14.69,6-15.11a4.18,4.18,0,0,1,4.78,2.47c1.41,3.29,2.76,25.74,1.81,30-0.78,3.52-5.47,14.76-6.65,17.54L650.46,601l49.39,38.64a1.87,1.87,0,0,1,.5,2.33l-29.62,56.78a1.87,1.87,0,0,1-1.34,1ZM547.61,476.41c0.73,2.06,8.78,24.48,17.7,32.62,9.47,8.65,29.11,18.73,29.31,18.83a1.87,1.87,0,0,1,1,1.54c1.71,25.85,7.1,94.73,11.4,102.95,4.06,7.74,41,43.32,61.53,62.51l27.77-53.23-48.65-38.05a1.87,1.87,0,0,1-.64-1L623,519a1.86,1.86,0,0,1,.08-1.24c1.64-3.85,6-14.51,6.7-17.51,0.75-3.4-.5-25.18-1.59-27.74a0.46,0.46,0,0,0-.54-0.3c-1,.21-3.36,2.82-3.1,12.26a1.86,1.86,0,0,1-.65,1.47l-6,5.09a1.86,1.86,0,0,1-2.08.23c-10.87-5.72-16.73-9-17.43-9.67-0.4-.4-0.77-1-5.06-8.9-4.49-8.25-13.84-25.41-15.75-27a1.26,1.26,0,0,0-1.56-.09,2.47,2.47,0,0,0-.84,2.6c0.47,1.87,3.22,10.47,8.18,25.56l0.48,1.47a1.87,1.87,0,0,1-3.27,1.69c-8.56-11.37-16.3-20.62-18.58-22.25C558.59,456.68,547.09,472.1,547.61,476.41Z"/><path class="cls-4" d="M689.33,629.5l-34.81,63.32,70.73,71.1s39.62-77.39,39.62-78.5S689.33,629.5,689.33,629.5Z"/><path class="cls-2" d="M669.09,699.83a1.94,1.94,0,0,1-1.72-2.84l28-53.7a1.94,1.94,0,1,1,3.45,1.8l-28,53.7A2,2,0,0,1,669.09,699.83Z"/><path class="cls-2" d="M897.56,584.5c-14.48,6.39-1.37,36.52,4.21,46s-0.75,37.4,18.26,46-14.71,47,33.74,83.71c37.34,28.3,99.32,4.06,89.65-27.58s-61.09-44.76-69.57-73.82c-5.4-18.49,1.63-45.7-29.58-54.48C921,597.85,909,579.45,897.56,584.5Z"/><path class="cls-4" d="M758.21,680.08s-38.52,73.1-40,89.39,24.07,48.14,24.07,48.14L697.1,931.3s47.77,64.43,99.24,68.51,145.9-48.51,145.9-48.51L913,832.43l32.22-68.51-16.29-83.84s-48.14,22-81.1,25.7S758.21,680.08,758.21,680.08Z"/><path class="cls-2" d="M723.24,755.11a1.95,1.95,0,0,1-1.78-2.73c8.56-19.28,32-67.35,32.24-67.84a1.94,1.94,0,0,1,3.5,1.71c-0.24.48-23.65,48.49-32.18,67.71A2,2,0,0,1,723.24,755.11Z"/><path class="cls-2" d="M800.55,990.31q-1.4,0-2.72-.07c-39.43-2-85.17-59.95-87.1-62.41a1.94,1.94,0,0,1,3.06-2.4c0.46,0.59,46.57,59,84.23,60.92,38.06,1.92,128.8-42.36,129.71-42.8a1.94,1.94,0,0,1,1.71,3.49C925.78,948.85,840.85,990.31,800.55,990.31Z"/><path class="cls-3" d="M835.72,691.71c-21.16-1.67-34.81,14.32-36.29,31.6S817,748.49,817,748.49s7.41-18.27,14.07-19.75S844.86,751,844.86,751s23-5.18,27.16-27.65S854.48,693.19,835.72,691.71Z"/><path class="cls-1" d="M822.87,660.24l-4.49,43.33S824.7,715.91,835,716.4s20.28-10.62,20.28-10.62V657.64Z"/><path class="cls-2" d="M835.67,718.28l-0.76,0c-11.26-.54-17.92-13.31-18.19-13.85a1.86,1.86,0,0,1-.2-1L821,660a1.87,1.87,0,0,1,1.71-1.67l32.41-2.59a1.86,1.86,0,0,1,2,1.86v48.14a1.86,1.86,0,0,1-.48,1.25C856.25,707.5,846.44,718.28,835.67,718.28ZM820.3,703.17c1.22,2.14,6.77,11,14.8,11.36s16.29-7.42,18.33-9.5V659.67L824.57,662Z"/><path class="cls-1" d="M884.1,591.48l5.75-.93a5.12,5.12,0,0,1,4.85,1.88,17.26,17.26,0,0,1,3.47,6.93,11.94,11.94,0,0,1-1.57,7.95,5.07,5.07,0,0,1-3.08,2.41l-6.42,1.81a5.14,5.14,0,0,1-6.52-4.54l-0.8-10A5.14,5.14,0,0,1,884.1,591.48Z"/><path class="cls-2" d="M885.71,613.66a7.09,7.09,0,0,1-7.06-6.53l-0.8-10a7.13,7.13,0,0,1,5.93-7.56h0l5.75-.93a7.08,7.08,0,0,1,6.69,2.59,19.28,19.28,0,0,1,3.85,7.74,13.79,13.79,0,0,1-1.77,9.27,7,7,0,0,1-4.25,3.34l-6.42,1.81A7.1,7.1,0,0,1,885.71,613.66Zm-1.3-20.26a3.21,3.21,0,0,0-2.68,3.41l0.8,10a3.2,3.2,0,0,0,4.06,2.83l6.42-1.81a3.12,3.12,0,0,0,1.91-1.48,10,10,0,0,0,1.36-6.62,15.44,15.44,0,0,0-3.09-6.11,3.19,3.19,0,0,0-3-1.16Z"/><path class="cls-1" d="M799.23,633.12c-4.31,18.61-2.3,42.1,20,47.93,16.41,4.29,40.11-10.09,48.66-34.43s10.39-46.75-19.8-53.91a74.86,74.86,0,0,0-9.82-1.5c-18.37-1.19-25.4-1.56-36.54,32C800.76,626.21,800,629.61,799.23,633.12Z"/><path class="cls-2" d="M824.51,683.65a22.57,22.57,0,0,1-5.75-.71c-23-6-26.14-29.89-21.42-50.25l0.31-1.34c0.7-3.1,1.37-6,2.26-8.71,5.65-17,10.36-25.73,16.26-30s12.84-3.95,22.25-3.34a1.94,1.94,0,1,1-.25,3.88c-17.85-1.16-23.88-1.55-34.57,30.69-0.83,2.5-1.47,5.34-2.15,8.35l-0.31,1.36c-2.09,9-6.91,38.95,18.61,45.61,5.06,1.32,11.49.36,20.25-3a1.94,1.94,0,0,1,1.41,3.63C834.64,682.38,829.2,683.65,824.51,683.65Z"/><path class="cls-2" d="M858.7,647.57a18.8,18.8,0,0,1-6.6-18.06c0.38-2.26,1.13-5.24,1.36-8.08-17,9.15-43.64,9.4-55.07,9a8.56,8.56,0,0,1-8-6C784,602.47,809.84,572.72,833,581c32.51-9.71,59.14,13.75,56.25,37.6C886,645,865.16,653.12,858.7,647.57Z"/><path class="cls-1" d="M860,645.47s15.62-8.92,27.09-1.21-1.86,36-32,23.23Z"/><path class="cls-2" d="M869.63,672.67a39.32,39.32,0,0,1-15.3-3.39,1.94,1.94,0,1,1,1.52-3.58c16.84,7.13,27.55.9,31.61-6.6,2.82-5.21,2.21-10.77-1.45-13.23-10.32-6.93-24.9,1.21-25,1.29a1.94,1.94,0,0,1-1.93-3.38c0.68-.39,16.81-9.43,29.14-1.14,5.36,3.6,6.49,11.3,2.7,18.31C887.28,667.6,879.82,672.67,869.63,672.67Z"/><path class="cls-1" d="M979.15,648l26.79-28.88L1069,512.24s-4.44-16.79-4.44-23.7,13.39-31.23,19.13-33.08,4.63,4.26,3.7,7.41-4.26,10.55-4.26,10.55l2,10.74s22.22-9.44,25.18-12.59,9.81-24.63,11.85-27,5.37,4.44,5.37,4.44,8.15,9.07,11.48,16.11-7.41,43.14-9.81,44.81S1098,526,1098,526,1067,630.61,1058.89,642.46s-55.55,60.36-55.55,60.36Z"/><path class="cls-2" d="M1003.34,704.69a1.82,1.82,0,0,1-.33,0,1.86,1.86,0,0,1-1.37-1.08l-24.19-54.8a1.86,1.86,0,0,1,.34-2L1004.43,618,1067,512c-0.88-3.41-4.31-17.12-4.31-23.42,0-7.67,13.78-32.71,20.43-34.86,2.94-.95,4.6-0.14,5.47.71,1.67,1.63,1.87,4.65.59,9-0.81,2.76-3.31,8.47-4.11,10.25l1.49,7.88c8.51-3.69,20.62-9.32,22.42-11.24,1.4-1.49,4.45-9.43,6.68-15.24,2.55-6.65,4-10.47,5.1-11.72a3.1,3.1,0,0,1,2.79-1.15c2.54,0.32,4.66,4,5.56,5.75,1.24,1.4,8.43,9.65,11.6,16.36,2.09,4.42-.28,16.4-2.63,25.67-0.2.8-5,19.51-7.81,21.46-2.31,1.6-25.65,13.31-30.79,15.88-3.06,10.34-31.15,104.67-39.09,116.21-8.14,11.85-53.81,58.62-55.75,60.61A1.86,1.86,0,0,1,1003.34,704.69Zm-22-56.3,22.58,51.16c9-9.22,46.38-47.9,53.42-58.14,7.89-11.47,38.51-114.89,38.82-115.93a1.87,1.87,0,0,1,1-1.14c11.34-5.67,28.69-14.46,30.95-15.9,2.66-3.47,12.13-36.58,9.3-42.55-3.18-6.7-11.1-15.57-11.18-15.66a1.9,1.9,0,0,1-.29-0.43,14.24,14.24,0,0,0-2.51-3.69c-0.87,1.53-2.72,6.34-4.23,10.28-3.35,8.72-5.68,14.58-7.45,16.46-3.07,3.27-22,11.43-25.81,13a1.87,1.87,0,0,1-2.56-1.37l-2-10.74a1.87,1.87,0,0,1,.13-1.11c0-.07,3.29-7.33,4.17-10.31,0.94-3.2.73-4.93,0.38-5.27a2.31,2.31,0,0,0-1.73.17c-4.67,1.51-17.84,24.62-17.84,31.31s4.34,23.06,4.38,23.22a1.86,1.86,0,0,1-.2,1.42l-63.07,106.89a1.82,1.82,0,0,1-.24.32ZM1128,508.51h0Z"/><path class="cls-4" d="M912.47,687l68.29-49,34.44,62.21-70,63.69C922.93,756,896.84,729.57,912.47,687Z"/><path class="cls-2" d="M939,763.22a1.93,1.93,0,0,1-.87-0.21c-20.45-10.24-40.34-35.23-29.09-72a1.94,1.94,0,1,1,3.72,1.14c-10.53,34.4,7.1,57.36,27.11,67.38A1.94,1.94,0,0,1,939,763.22Z"/><path class="cls-2" d="M999.6,704.77a2,2,0,0,1-1.73-1.05l-27.63-53.59a1.94,1.94,0,0,1,3.46-1.78l27.63,53.59A1.95,1.95,0,0,1,999.6,704.77Z"/><rect class="cls-3" x="1111.82" y="755.26" width="32.34" height="57.77" rx="7.57" ry="7.57" transform="translate(-224.09 1027.28) rotate(-45)"/><path class="cls-3" d="M1182.3,707.31l18.92,18.92a18.05,18.05,0,0,1,0,25.53L1175,777.94a8.91,8.91,0,0,1-12.61,0l-29.5-29.5a8.91,8.91,0,0,1-2.61-6.3V698.46a5,5,0,0,1,5-5h0a5,5,0,0,1,4.64,3.13l11.39,28.21,17.48-17.48A9.52,9.52,0,0,1,1182.3,707.31Z"/><path class="cls-3" d="M389.43,674.23a14.82,14.82,0,0,0-5.1,20.33,38.29,38.29,0,0,0,52.51,13.13l12.71-7.62-27.28-45.53Zm20.89,28a28.07,28.07,0,0,1-17.4-12.87,4.81,4.81,0,0,1,1.65-6.59l24.27-14.54,17,28.35-4.12,2.47A28.15,28.15,0,0,1,410.32,702.28Z"/><path class="cls-3" d="M471,625.33l27.28,45.53L511,663.24a38.29,38.29,0,0,0,13.2-52.5,14.82,14.82,0,0,0-20.33-5.1Zm34.84,29.32-4.12,2.47-17-28.35L509,614.23a4.81,4.81,0,0,1,6.59,1.65A28.29,28.29,0,0,1,505.89,654.65Z"/><path class="cls-3" d="M479,613.21L496.88,643a41.4,41.4,0,0,1-9.42,53.44L512.37,738c13-3.36,26.92,5.63,26.92,5.63l-44.88,26.89S493.07,754,502.2,744.1l-24.91-41.57a41.41,41.41,0,0,1-51.62-16.87l-17.84-29.78A4.29,4.29,0,0,1,409.3,650l63.89-38.28A4.29,4.29,0,0,1,479,613.21Z"/><path class="cls-4" d="M452.72,646.48l10,6.42a2,2,0,0,0,1.89.17l10.93-4.56a2,2,0,0,1,2.76,2.41l-3,11.45a2,2,0,0,0,.43,1.85l7.72,9a2,2,0,0,1-1.44,3.37l-11.82.66a2,2,0,0,0-1.63,1l-6.16,10.11a2,2,0,0,1-3.65-.32l-4.28-11A2,2,0,0,0,453,675.7L441.44,673a2,2,0,0,1-.82-3.57l9.18-7.48a2,2,0,0,0,.74-1.75l-1-11.8A2,2,0,0,1,452.72,646.48Z"/><path class="cls-4" d="M527,250.9a50.44,50.44,0,0,0,32.59-21.48L575.12,245s-13,25.55-45.55,26.29Z"/><path class="cls-4" d="M521.87,859.21a50.44,50.44,0,0,0,31.56,23l-9.09,20S515.86,899,503.71,868.8Z"/><path class="cls-4" d="M1086,913.17a50.44,50.44,0,0,0-31.56-23l9.09-20s28.48,3.15,40.63,33.39Z"/><path class="cls-4" d="M1186.21,428.11a50.44,50.44,0,0,0,31.56,23l-9.09,20s-28.48-3.15-40.63-33.39Z"/><path class="cls-3" d="M643.36,83.13A25.46,25.46,0,0,0,656.53,70l3.38-7.76L663.3,70a25.46,25.46,0,0,0,13.17,13.17l7.76,3.38-7.76,3.38a25.46,25.46,0,0,0-13.17,13.17l-3.38,7.76-3.38-7.76A25.46,25.46,0,0,0,643.36,89.9l-7.76-3.38Z"/><path class="cls-4" d="M446.66,414.83a21.67,21.67,0,0,0,11.21-11.21l2.88-6.61,2.88,6.61a21.67,21.67,0,0,0,11.21,11.21l6.61,2.88-6.61,2.88a21.67,21.67,0,0,0-11.21,11.21l-2.88,6.61-2.88-6.61a21.67,21.67,0,0,0-11.21-11.21l-6.61-2.88Z"/><path class="cls-3" d="M516.22,1116.16a19,19,0,0,0,9.83-9.83l2.52-5.79,2.52,5.79a19,19,0,0,0,9.83,9.83l5.79,2.52-5.79,2.52a19,19,0,0,0-9.83,9.83l-2.52,5.79L526,1131a19,19,0,0,0-9.83-9.83l-5.79-2.52Z"/><path class="cls-3" d="M1135.5,238.67a26.75,26.75,0,0,0,13.84-13.84l3.55-8.16,3.55,8.16a26.75,26.75,0,0,0,13.84,13.84l8.16,3.55-8.16,3.55a26.75,26.75,0,0,0-13.84,13.84l-3.55,8.16-3.55-8.16a26.75,26.75,0,0,0-13.84-13.84l-8.16-3.55Z"/><circle class="cls-3" cx="1072.47" cy="93.55" r="17.28"/><circle class="cls-3" cx="1152.89" cy="1044.8" r="13.33"/><path class="cls-3" d="M745.44,387.12c-65.91,60.73-103.68,137-103.68,137h53.08l18.76,52.58s37.77-76.28,103.68-137Z"/><path class="cls-3" d="M935.94,387.12c65.91,60.73,103.68,137,103.68,137H986.54l-18.76,52.58S930,500.43,864.1,439.71Z"/><path class="cls-4" d="M994,168l10.62,52.94a32.7,32.7,0,0,0,4.84,11.69l29.93,44.94a32.7,32.7,0,0,1,0,36.24l-29.93,44.94a32.7,32.7,0,0,0-4.84,11.69L994,423.4A32.7,32.7,0,0,1,968.39,449l-52.94,10.62a32.7,32.7,0,0,0-11.69,4.84l-44.94,29.93a32.7,32.7,0,0,1-36.24,0l-44.94-29.93a32.7,32.7,0,0,0-11.69-4.84L713,449a32.7,32.7,0,0,1-25.63-25.63l-10.62-52.94a32.7,32.7,0,0,0-4.84-11.69L642,313.82a32.7,32.7,0,0,1,0-36.24l29.93-44.94a32.7,32.7,0,0,0,4.84-11.69L687.37,168A32.7,32.7,0,0,1,713,142.38l52.94-10.62a32.7,32.7,0,0,0,11.69-4.84L822.57,97a32.7,32.7,0,0,1,36.24,0l44.94,29.93a32.7,32.7,0,0,0,11.69,4.84l52.94,10.62A32.7,32.7,0,0,1,994,168Z"/><circle class="cls-1" cx="840.69" cy="295.7" r="148.78"/><circle class="cls-3" cx="840.69" cy="295.7" r="132.41"/><polygon class="cls-4" points="926.98 267.67 867.35 259 840.69 295.7 926.98 267.67"/><polygon class="cls-1" points="840.69 295.7 883.83 309.72 926.98 267.67 840.69 295.7 840.69 295.7"/><polygon class="cls-4" points="840.69 295.7 840.69 295.7 894.02 369.1 883.83 309.72 840.69 295.7"/><polygon class="cls-4" points="787.36 369.1 840.69 341.06 840.69 295.7 787.36 369.1"/><polygon class="cls-1" points="840.69 295.7 797.55 309.72 787.36 369.1 840.69 295.7 840.69 295.7"/><polygon class="cls-1" points="840.69 295.7 840.69 341.06 894.02 369.1 840.69 295.7 840.69 295.7"/><polygon class="cls-4" points="840.69 204.98 814.03 259 840.69 295.7 840.69 204.98"/><polygon class="cls-4" points="840.69 295.7 754.4 267.67 797.55 309.72 840.69 295.7 840.69 295.7"/><polygon class="cls-1" points="840.69 295.7 840.69 295.7 840.69 295.7 867.35 259 840.69 204.98 840.69 295.7 840.69 295.7"/><polygon class="cls-1" points="840.69 295.7 814.03 259 754.4 267.67 840.69 295.7 840.69 295.7"/><circle class="cls-1" cx="840.88" cy="122.97" r="8.05"/><path class="cls-2" d="M840.88,132.88a9.91,9.91,0,1,1,9.91-9.91A9.92,9.92,0,0,1,840.88,132.88Zm0-16.09a6.18,6.18,0,1,0,6.18,6.18A6.19,6.19,0,0,0,840.88,116.79Z"/><circle class="cls-1" cx="718.68" cy="173.43" r="8.05" transform="translate(87.86 558.98) rotate(-45)"/><path class="cls-2" d="M718.68,183.34a9.91,9.91,0,1,1,7-2.9A9.88,9.88,0,0,1,718.68,183.34Zm0-16.09a6.18,6.18,0,1,0,4.37,1.81A6.14,6.14,0,0,0,718.68,167.25Z"/><circle class="cls-1" cx="667.96" cy="295.52" r="8.05"/><path class="cls-2" d="M668,305.43a9.91,9.91,0,1,1,9.91-9.91A9.92,9.92,0,0,1,668,305.43Zm0-16.09a6.18,6.18,0,1,0,6.18,6.18A6.19,6.19,0,0,0,668,289.34Z"/><circle class="cls-1" cx="718.42" cy="417.71" r="8.05" transform="translate(-84.94 630.34) rotate(-45)"/><path class="cls-2" d="M718.42,427.62a9.91,9.91,0,1,1,7-2.9A9.88,9.88,0,0,1,718.42,427.62Zm0-16.09a6.18,6.18,0,1,0,4.37,1.81A6.14,6.14,0,0,0,718.42,411.53Z"/><circle class="cls-1" cx="840.51" cy="468.43" r="8.05"/><path class="cls-2" d="M840.5,478.34a9.91,9.91,0,1,1,9.91-9.91A9.92,9.92,0,0,1,840.5,478.34Zm0-16.09a6.18,6.18,0,1,0,6.18,6.18A6.19,6.19,0,0,0,840.5,462.25Z"/><circle class="cls-1" cx="962.7" cy="417.97" r="8.05" transform="translate(-13.58 803.15) rotate(-45)"/><path class="cls-2" d="M962.7,427.88a9.84,9.84,0,0,1-7-2.9h0A9.91,9.91,0,1,1,962.7,427.88Zm0-16.09a6.18,6.18,0,0,0-4.37,10.55h0A6.18,6.18,0,1,0,962.7,411.79Z"/><circle class="cls-1" cx="1013.42" cy="295.89" r="8.05"/><path class="cls-2" d="M1013.42,305.8a9.91,9.91,0,1,1,9.91-9.91A9.92,9.92,0,0,1,1013.42,305.8Zm0-16.09a6.18,6.18,0,1,0,6.18,6.18A6.19,6.19,0,0,0,1013.42,289.71Z"/><circle class="cls-1" cx="962.96" cy="173.69" r="8.05" transform="translate(159.22 731.79) rotate(-45)"/><path class="cls-2" d="M963,183.61a9.91,9.91,0,1,1,7-2.9h0A9.84,9.84,0,0,1,963,183.61Zm0-16.09a6.18,6.18,0,1,0,4.37,10.55h0A6.18,6.18,0,0,0,963,167.51Zm5.69,11.87h0Z"/></svg>