<?xml version="1.0" standalone="no"?><svg xmlns:xlink="http://www.w3.org/1999/xlink" xmlns="http://www.w3.org/2000/svg" viewBox="0 0 1000 625" preserveAspectRatio="xMaxYMax slice"><g transform="scale(0.7631257631257631)"><rect x="0" y="0" width="1310.4" height="819" fill="#ffffff"/><rect x="32.760000000000005" y="32.760000000000005" width="16.379999999999995" height="16.379999999999995" fill="#ffffff"/><path d="M 32.76 32.76 A 8.19 8.19 0 0 1 40.949999999999996 40.949999999999996 L 32.76 40.949999999999996" fill="#f8ae54"/><path d="M 40.95 40.949999999999996 A 8.19 8.19 0 0 1  49.14 32.76 L 49.14 40.949999999999996" fill="#f8ae54"/><path d="M 32.76 49.14 A 8.19 8.19 0 0 0 40.949999999999996 40.95 L 32.76 40.95" fill="#f8ae54"/><path d="M 40.95 40.95 A 8.19 8.19 0 0 0 49.14 49.14 L 49.14 40.95" fill="#ff614d"/><rect x="114.66000000000001" y="32.760000000000005" width="16.379999999999995" height="16.379999999999995" fill="#ffffff"/><path d="M 114.66 40.949999999999996 A 8.19 8.19 0 0 1 122.85 32.76 L 122.85 34.8075 A 6.1425 6.1425 0 0 0 116.7075 40.949999999999996" fill="#f8ae54"/><path d="M 122.85 32.76 A 8.19 8.19 0 0 1 131.04 40.949999999999996 L 128.9925 40.949999999999996 A 6.1425 6.1425 0 0 0 122.85 34.8075" fill="#ff614d"/><path d="M 114.66 40.95 A 8.19 8.19 0 0 0 122.85 49.14 L 122.85 47.0925 A 6.1425 6.1425 0 0 1 116.7075 40.95" fill="#ff614d"/><path d="M 122.85 49.14 A 8.19 8.19 0 0 0 131.04 40.95 L 128.9925 40.95 A 6.1425 6.1425 0 0 1 122.85 47.0925" fill="#ff614d"/><rect x="196.56" y="32.760000000000005" width="16.379999999999995" height="16.379999999999995" fill="#ffffff"/><polygon points="196.56,32.76 204.75,32.76 196.56,40.949999999999996" fill="#ff614d"/><polygon points="212.94,32.76 212.94,40.949999999999996 204.75,40.949999999999996" fill="#f8ae54"/><polygon points="196.56,40.95 204.75,40.95 204.75,49.14" fill="#ff614d"/><polygon points="204.75,40.95 212.94,49.14 204.75,49.14" fill="#ff614d"/><rect x="278.46000000000004" y="32.760000000000005" width="16.379999999999995" height="16.379999999999995" fill="#ffffff"/><path d="M 278.46 32.76 A 8.19 8.19 0 0 1 286.65 40.949999999999996 L 278.46 40.949999999999996" fill="#f8ae54"/><path d="M 286.65 40.949999999999996 A 8.19 8.19 0 0 1  294.84 32.76 L 294.84 40.949999999999996" fill="#f8ae54"/><path d="M 278.46 49.14 A 8.19 8.19 0 0 0 286.65 40.95 L 278.46 40.95" fill="#ff614d"/><path d="M 286.65 40.95 A 8.19 8.19 0 0 0 294.84 49.14 L 294.84 40.95" fill="#f8ae54"/><rect x="360.36" y="32.760000000000005" width="16.379999999999995" height="16.379999999999995" fill="#ffffff"/><path d="M 360.36 40.949999999999996 A 8.19 8.19 0 0 1  368.55 32.76 L 368.55 40.949999999999996" fill="#ff614d"/><path d="M 368.55 32.76 A 8.19 8.19 0 0 1 376.74 40.949999999999996 L 368.55 40.949999999999996" fill="#f8ae54"/><path d="M 360.36 40.95 A 8.19 8.19 0 0 0 368.55 49.14 L 368.55 40.95" fill="#ff614d"/><path d="M 368.55 49.14 A 8.19 8.19 0 0 0 376.74 40.95 L 368.55 40.95" fill="#f8ae54"/><rect x="442.26" y="32.760000000000005" width="16.379999999999995" height="16.379999999999995" fill="#ffffff"/><polygon points="442.26,32.76 450.45,32.76 442.26,40.949999999999996" fill="#ff614d"/><polygon points="458.64,32.76 458.64,40.949999999999996 450.45,40.949999999999996" fill="#ff614d"/><polygon points="442.26,40.95 450.45,40.95 450.45,49.14" fill="#f8ae54"/><polygon points="450.45,40.95 458.64,49.14 450.45,49.14" fill="#f8ae54"/><rect x="524.1600000000001" y="32.760000000000005" width="16.379999999999995" height="16.379999999999995" fill="#ffffff"/><path d="M 524.16 40.949999999999996 A 8.19 8.19 0 0 0 532.35 32.76 L 524.16 32.76" fill="#f8ae54"/><path d="M 532.35 32.76 A 8.19 8.19 0 0 0 540.5400000000001 40.949999999999996 L 540.5400000000001 32.76" fill="#ff614d"/><path d="M 524.16 40.95 A 8.19 8.19 0 0 1 532.35 49.14 L 524.16 49.14" fill="#ff614d"/><path d="M 532.35 49.14 A 8.19 8.19 0 0 1  540.5400000000001 40.95 L 540.5400000000001 49.14" fill="#ff614d"/><rect x="606.0600000000001" y="32.760000000000005" width="16.379999999999995" height="16.379999999999995" fill="#ffffff"/><path d="M 606.06 40.949999999999996 A 8.19 8.19 0 0 1  614.25 32.76 L 614.25 40.949999999999996" fill="#f8ae54"/><path d="M 614.25 32.76 A 8.19 8.19 0 0 1 622.44 40.949999999999996 L 614.25 40.949999999999996" fill="#f8ae54"/><path d="M 606.06 40.95 A 8.19 8.19 0 0 0 614.25 49.14 L 614.25 40.95" fill="#f8ae54"/><path d="M 614.25 49.14 A 8.19 8.19 0 0 0 622.44 40.95 L 614.25 40.95" fill="#f8ae54"/><rect x="687.96" y="32.760000000000005" width="16.379999999999995" height="16.379999999999995" fill="#ffffff"/><path d="M 687.96 32.76 A 8.19 8.19 0 0 0 696.1500000000001 40.949999999999996 L 696.1500000000001 32.76" fill="#f8ae54"/><path d="M 696.15 40.949999999999996 A 8.19 8.19 0 0 0 704.34 32.76 L 696.15 32.76" fill="#f8ae54"/><path d="M 687.96 49.14 A 8.19 8.19 0 0 1  696.1500000000001 40.95 L 696.1500000000001 49.14" fill="#f8ae54"/><path d="M 696.15 40.95 A 8.19 8.19 0 0 1 704.34 49.14 L 696.15 49.14" fill="#f8ae54"/><rect x="769.86" y="32.760000000000005" width="16.379999999999995" height="16.379999999999995" fill="#ffffff"/><path d="M 769.86 32.76 A 8.19 8.19 0 0 0 778.0500000000001 40.949999999999996 L 778.0500000000001 32.76" fill="#ff614d"/><path d="M 778.05 40.949999999999996 A 8.19 8.19 0 0 0 786.24 32.76 L 778.05 32.76" fill="#ff614d"/><path d="M 769.86 49.14 A 8.19 8.19 0 0 1  778.0500000000001 40.95 L 778.0500000000001 49.14" fill="#ff614d"/><path d="M 778.05 40.95 A 8.19 8.19 0 0 1 786.24 49.14 L 778.05 49.14" fill="#ff614d"/><rect x="851.76" y="32.760000000000005" width="16.379999999999995" height="16.379999999999995" fill="#ffffff"/><path d="M 851.76 40.949999999999996 A 8.19 8.19 0 0 0 859.95 32.76 L 851.76 32.76" fill="#f8ae54"/><path d="M 859.95 32.76 A 8.19 8.19 0 0 0 868.1400000000001 40.949999999999996 L 868.1400000000001 32.76" fill="#ff614d"/><path d="M 851.76 40.95 A 8.19 8.19 0 0 1 859.95 49.14 L 851.76 49.14" fill="#ff614d"/><path d="M 859.95 49.14 A 8.19 8.19 0 0 1  868.1400000000001 40.95 L 868.1400000000001 49.14" fill="#ff614d"/><rect x="933.6600000000001" y="32.760000000000005" width="16.379999999999995" height="16.379999999999995" fill="#ffffff"/><path d="M 933.66 32.76 A 8.19 8.19 0 0 1 941.85 40.949999999999996 L 933.66 40.949999999999996" fill="#ff614d"/><path d="M 941.85 40.949999999999996 A 8.19 8.19 0 0 1  950.0400000000001 32.76 L 950.0400000000001 40.949999999999996" fill="#ff614d"/><path d="M 933.66 49.14 A 8.19 8.19 0 0 0 941.85 40.95 L 933.66 40.95" fill="#f8ae54"/><path d="M 941.85 40.95 A 8.19 8.19 0 0 0 950.0400000000001 49.14 L 950.0400000000001 40.95" fill="#ff614d"/><rect x="1015.5600000000001" y="32.760000000000005" width="16.379999999999995" height="16.379999999999995" fill="#ffffff"/><path d="M 1015.56 32.76 A 8.19 8.19 0 0 1 1023.75 40.949999999999996 L 1015.56 40.949999999999996" fill="#f8ae54"/><path d="M 1023.75 40.949999999999996 A 8.19 8.19 0 0 1  1031.94 32.76 L 1031.94 40.949999999999996" fill="#ff614d"/><path d="M 1015.56 49.14 A 8.19 8.19 0 0 0 1023.75 40.95 L 1015.56 40.95" fill="#f8ae54"/><path d="M 1023.75 40.95 A 8.19 8.19 0 0 0 1031.94 49.14 L 1031.94 40.95" fill="#f8ae54"/><rect x="1097.46" y="32.760000000000005" width="16.379999999999995" height="16.379999999999995" fill="#ffffff"/><path d="M 1097.46 32.76 A 8.19 8.19 0 0 0 1105.65 40.949999999999996 L 1105.65 32.76" fill="#ff614d"/><path d="M 1105.65 40.949999999999996 A 8.19 8.19 0 0 0 1113.8400000000001 32.76 L 1105.65 32.76" fill="#f8ae54"/><path d="M 1097.46 49.14 A 8.19 8.19 0 0 1  1105.65 40.95 L 1105.65 49.14" fill="#f8ae54"/><path d="M 1105.65 40.95 A 8.19 8.19 0 0 1 1113.8400000000001 49.14 L 1105.65 49.14" fill="#f8ae54"/><rect x="1179.3600000000001" y="32.760000000000005" width="16.379999999999995" height="16.379999999999995" fill="#ffffff"/><path d="M 1179.36 40.949999999999996 A 8.19 8.19 0 0 0 1187.55 32.76 L 1179.36 32.76" fill="#ff614d"/><path d="M 1187.55 32.76 A 8.19 8.19 0 0 0 1195.74 40.949999999999996 L 1195.74 32.76" fill="#ff614d"/><path d="M 1179.36 40.95 A 8.19 8.19 0 0 1 1187.55 49.14 L 1179.36 49.14" fill="#ff614d"/><path d="M 1187.55 49.14 A 8.19 8.19 0 0 1  1195.74 40.95 L 1195.74 49.14" fill="#f8ae54"/><rect x="1261.26" y="32.760000000000005" width="16.379999999999995" height="16.379999999999995" fill="#ffffff"/><path d="M 1261.26 40.949999999999996 A 8.19 8.19 0 0 1 1269.45 32.76 L 1269.45 34.8075 A 6.1425 6.1425 0 0 0 1263.3075 40.949999999999996" fill="#f8ae54"/><path d="M 1269.45 32.76 A 8.19 8.19 0 0 1 1277.64 40.949999999999996 L 1275.5925 40.949999999999996 A 6.1425 6.1425 0 0 0 1269.45 34.8075" fill="#f8ae54"/><path d="M 1261.26 40.95 A 8.19 8.19 0 0 0 1269.45 49.14 L 1269.45 47.0925 A 6.1425 6.1425 0 0 1 1263.3075 40.95" fill="#f8ae54"/><path d="M 1269.45 49.14 A 8.19 8.19 0 0 0 1277.64 40.95 L 1275.5925 40.95 A 6.1425 6.1425 0 0 1 1269.45 47.0925" fill="#ff614d"/><rect x="32.760000000000005" y="114.66000000000001" width="16.379999999999995" height="16.379999999999995" fill="#ffffff"/><polygon points="32.76,114.66 40.949999999999996,114.66 32.76,122.85" fill="#ff614d"/><polygon points="49.14,114.66 49.14,122.85 40.95,122.85" fill="#f8ae54"/><polygon points="32.76,122.85 40.949999999999996,122.85 40.949999999999996,131.04" fill="#ff614d"/><polygon points="40.95,122.85 49.14,131.04 40.95,131.04" fill="#ff614d"/><rect x="114.66000000000001" y="114.66000000000001" width="16.379999999999995" height="16.379999999999995" fill="#ffffff"/><path d="M 114.66 114.66 A 8.19 8.19 0 0 1 122.85 122.85 L 114.66 122.85" fill="#ff614d"/><path d="M 122.85 122.85 A 8.19 8.19 0 0 1  131.04 114.66 L 131.04 122.85" fill="#ff614d"/><path d="M 114.66 131.04 A 8.19 8.19 0 0 0 122.85 122.85 L 114.66 122.85" fill="#ff614d"/><path d="M 122.85 122.85 A 8.19 8.19 0 0 0 131.04 131.04 L 131.04 122.85" fill="#ff614d"/><rect x="196.56" y="114.66000000000001" width="16.379999999999995" height="16.379999999999995" fill="#ffffff"/><path d="M 196.56 122.85 A 8.19 8.19 0 0 0 204.75 114.66 L 196.56 114.66" fill="#ff614d"/><path d="M 204.75 114.66 A 8.19 8.19 0 0 0 212.94 122.85 L 212.94 114.66" fill="#ff614d"/><path d="M 196.56 122.85 A 8.19 8.19 0 0 1 204.75 131.04 L 196.56 131.04" fill="#ff614d"/><path d="M 204.75 131.04 A 8.19 8.19 0 0 1  212.94 122.85 L 212.94 131.04" fill="#f8ae54"/><rect x="278.46000000000004" y="114.66000000000001" width="16.379999999999995" height="16.379999999999995" fill="#ffffff"/><path d="M 278.46 122.85 A 8.19 8.19 0 0 1  286.65 114.66 L 286.65 122.85" fill="#f8ae54"/><path d="M 286.65 114.66 A 8.19 8.19 0 0 1 294.84 122.85 L 286.65 122.85" fill="#ff614d"/><path d="M 278.46 122.85 A 8.19 8.19 0 0 0 286.65 131.04 L 286.65 122.85" fill="#f8ae54"/><path d="M 286.65 131.04 A 8.19 8.19 0 0 0 294.84 122.85 L 286.65 122.85" fill="#ff614d"/><rect x="360.36" y="114.66000000000001" width="16.379999999999995" height="16.379999999999995" fill="#ffffff"/><path d="M 360.36 114.66 A 8.19 8.19 0 0 0 368.55 122.85 L 368.55 114.66" fill="#ff614d"/><path d="M 368.55 122.85 A 8.19 8.19 0 0 0 376.74 114.66 L 368.55 114.66" fill="#f8ae54"/><path d="M 360.36 131.04 A 8.19 8.19 0 0 1  368.55 122.85 L 368.55 131.04" fill="#f8ae54"/><path d="M 368.55 122.85 A 8.19 8.19 0 0 1 376.74 131.04 L 368.55 131.04" fill="#ff614d"/><rect x="442.26" y="114.66000000000001" width="16.379999999999995" height="16.379999999999995" fill="#ffffff"/><path d="M 442.26 122.85 A 8.19 8.19 0 0 1  450.45 114.66 L 450.45 122.85" fill="#ff614d"/><path d="M 450.45 114.66 A 8.19 8.19 0 0 1 458.64 122.85 L 450.45 122.85" fill="#ff614d"/><path d="M 442.26 122.85 A 8.19 8.19 0 0 0 450.45 131.04 L 450.45 122.85" fill="#f8ae54"/><path d="M 450.45 131.04 A 8.19 8.19 0 0 0 458.64 122.85 L 450.45 122.85" fill="#f8ae54"/><rect x="524.1600000000001" y="114.66000000000001" width="16.379999999999995" height="16.379999999999995" fill="#ffffff"/><path d="M 524.16 122.85 A 8.19 8.19 0 0 1 532.35 114.66 L 532.35 116.7075 A 6.1425 6.1425 0 0 0 526.2075 122.85" fill="#ff614d"/><path d="M 532.35 114.66 A 8.19 8.19 0 0 1 540.5400000000001 122.85 L 538.4925000000001 122.85 A 6.1425 6.1425 0 0 0 532.35 116.7075" fill="#ff614d"/><path d="M 524.16 122.85 A 8.19 8.19 0 0 0 532.35 131.04 L 532.35 128.9925 A 6.1425 6.1425 0 0 1 526.2075 122.85" fill="#f8ae54"/><path d="M 532.35 131.04 A 8.19 8.19 0 0 0 540.5400000000001 122.85 L 538.4925000000001 122.85 A 6.1425 6.1425 0 0 1 532.35 128.9925" fill="#ff614d"/><rect x="606.0600000000001" y="114.66000000000001" width="16.379999999999995" height="16.379999999999995" fill="#ffffff"/><path d="M 606.06 122.85 A 8.19 8.19 0 0 1  614.25 114.66 L 614.25 122.85" fill="#ff614d"/><path d="M 614.25 114.66 A 8.19 8.19 0 0 1 622.44 122.85 L 614.25 122.85" fill="#f8ae54"/><path d="M 606.06 122.85 A 8.19 8.19 0 0 0 614.25 131.04 L 614.25 122.85" fill="#f8ae54"/><path d="M 614.25 131.04 A 8.19 8.19 0 0 0 622.44 122.85 L 614.25 122.85" fill="#ff614d"/><rect x="687.96" y="114.66000000000001" width="16.379999999999995" height="16.379999999999995" fill="#ffffff"/><path d="M 687.96 114.66 A 8.19 8.19 0 0 0 696.1500000000001 122.85 L 696.1500000000001 114.66" fill="#f8ae54"/><path d="M 696.15 122.85 A 8.19 8.19 0 0 0 704.34 114.66 L 696.15 114.66" fill="#f8ae54"/><path d="M 687.96 131.04 A 8.19 8.19 0 0 1  696.1500000000001 122.85 L 696.1500000000001 131.04" fill="#f8ae54"/><path d="M 696.15 122.85 A 8.19 8.19 0 0 1 704.34 131.04 L 696.15 131.04" fill="#ff614d"/><rect x="769.86" y="114.66000000000001" width="16.379999999999995" height="16.379999999999995" fill="#ffffff"/><polygon points="769.86,114.66 778.0500000000001,114.66 769.86,122.85" fill="#f8ae54"/><polygon points="786.24,114.66 786.24,122.85 778.05,122.85" fill="#f8ae54"/><polygon points="769.86,122.85 778.0500000000001,122.85 778.0500000000001,131.04" fill="#ff614d"/><polygon points="778.05,122.85 786.24,131.04 778.05,131.04" fill="#ff614d"/><rect x="851.76" y="114.66000000000001" width="16.379999999999995" height="16.379999999999995" fill="#ffffff"/><path d="M 851.76 122.85 A 8.19 8.19 0 0 1  859.95 114.66 L 859.95 122.85" fill="#ff614d"/><path d="M 859.95 114.66 A 8.19 8.19 0 0 1 868.1400000000001 122.85 L 859.95 122.85" fill="#f8ae54"/><path d="M 851.76 122.85 A 8.19 8.19 0 0 0 859.95 131.04 L 859.95 122.85" fill="#ff614d"/><path d="M 859.95 131.04 A 8.19 8.19 0 0 0 868.1400000000001 122.85 L 859.95 122.85" fill="#ff614d"/><rect x="933.6600000000001" y="114.66000000000001" width="16.379999999999995" height="16.379999999999995" fill="#ffffff"/><path d="M 933.66 114.66 A 8.19 8.19 0 0 1 941.85 122.85 L 933.66 122.85" fill="#f8ae54"/><path d="M 941.85 122.85 A 8.19 8.19 0 0 1  950.0400000000001 114.66 L 950.0400000000001 122.85" fill="#f8ae54"/><path d="M 933.66 131.04 A 8.19 8.19 0 0 0 941.85 122.85 L 933.66 122.85" fill="#ff614d"/><path d="M 941.85 122.85 A 8.19 8.19 0 0 0 950.0400000000001 131.04 L 950.0400000000001 122.85" fill="#ff614d"/><rect x="1015.5600000000001" y="114.66000000000001" width="16.379999999999995" height="16.379999999999995" fill="#ffffff"/><path d="M 1015.56 114.66 A 8.19 8.19 0 0 0 1023.75 122.85 L 1023.75 114.66" fill="#f8ae54"/><path d="M 1023.75 122.85 A 8.19 8.19 0 0 0 1031.94 114.66 L 1023.75 114.66" fill="#f8ae54"/><path d="M 1015.56 131.04 A 8.19 8.19 0 0 1  1023.75 122.85 L 1023.75 131.04" fill="#ff614d"/><path d="M 1023.75 122.85 A 8.19 8.19 0 0 1 1031.94 131.04 L 1023.75 131.04" fill="#f8ae54"/><rect x="1097.46" y="114.66000000000001" width="16.379999999999995" height="16.379999999999995" fill="#ffffff"/><path d="M 1097.46 122.85 A 8.19 8.19 0 0 0 1105.65 114.66 L 1097.46 114.66" fill="#ff614d"/><path d="M 1105.65 114.66 A 8.19 8.19 0 0 0 1113.8400000000001 122.85 L 1113.8400000000001 114.66" fill="#ff614d"/><path d="M 1097.46 122.85 A 8.19 8.19 0 0 1 1105.65 131.04 L 1097.46 131.04" fill="#ff614d"/><path d="M 1105.65 131.04 A 8.19 8.19 0 0 1  1113.8400000000001 122.85 L 1113.8400000000001 131.04" fill="#ff614d"/><rect x="1179.3600000000001" y="114.66000000000001" width="16.379999999999995" height="16.379999999999995" fill="#ffffff"/><path d="M 1179.36 114.66 A 8.19 8.19 0 0 1 1187.55 122.85 L 1179.36 122.85" fill="#f8ae54"/><path d="M 1187.55 122.85 A 8.19 8.19 0 0 1  1195.74 114.66 L 1195.74 122.85" fill="#f8ae54"/><path d="M 1179.36 131.04 A 8.19 8.19 0 0 0 1187.55 122.85 L 1179.36 122.85" fill="#ff614d"/><path d="M 1187.55 122.85 A 8.19 8.19 0 0 0 1195.74 131.04 L 1195.74 122.85" fill="#f8ae54"/><rect x="1261.26" y="114.66000000000001" width="16.379999999999995" height="16.379999999999995" fill="#ffffff"/><path d="M 1261.26 114.66 A 8.19 8.19 0 0 0 1269.45 122.85 L 1269.45 114.66" fill="#ff614d"/><path d="M 1269.45 122.85 A 8.19 8.19 0 0 0 1277.64 114.66 L 1269.45 114.66" fill="#f8ae54"/><path d="M 1261.26 131.04 A 8.19 8.19 0 0 1  1269.45 122.85 L 1269.45 131.04" fill="#f8ae54"/><path d="M 1269.45 122.85 A 8.19 8.19 0 0 1 1277.64 131.04 L 1269.45 131.04" fill="#f8ae54"/><rect x="32.760000000000005" y="196.56" width="16.379999999999995" height="16.379999999999995" fill="#ffffff"/><polygon points="32.76,196.56 40.949999999999996,196.56 32.76,204.75" fill="#ff614d"/><polygon points="40.95,196.56 49.14,196.56 49.14,204.75" fill="#f8ae54"/><polygon points="32.76,204.75 40.949999999999996,212.94 32.76,212.94" fill="#ff614d"/><polygon points="49.14,204.75 49.14,212.94 40.95,212.94" fill="#f8ae54"/><rect x="114.66000000000001" y="196.56" width="16.379999999999995" height="16.379999999999995" fill="#ffffff"/><circle cx="118.755" cy="200.655" r="4.095" fill="#ff614d"/><rect x="122.85" y="196.56" width="8.19" height="8.19" fill="#ff614d"/><circle cx="118.755" cy="208.845" r="4.095" fill="#ff614d"/><rect x="122.85" y="204.75" width="8.19" height="8.19" fill="#ff614d"/><rect x="196.56" y="196.56" width="16.379999999999995" height="16.379999999999995" fill="#ffffff"/><polygon points="196.56,196.56 204.75,196.56 196.56,204.75" fill="#f8ae54"/><polygon points="204.75,196.56 212.94,196.56 212.94,204.75" fill="#ff614d"/><polygon points="196.56,204.75 204.75,212.94 196.56,212.94" fill="#ff614d"/><polygon points="212.94,204.75 212.94,212.94 204.75,212.94" fill="#f8ae54"/><rect x="278.46000000000004" y="196.56" width="16.379999999999995" height="16.379999999999995" fill="#ffffff"/><circle cx="282.555" cy="200.655" r="4.095" fill="#ff614d"/><rect x="286.65" y="196.56" width="8.19" height="8.19" fill="#f8ae54"/><circle cx="282.555" cy="208.845" r="4.095" fill="#f8ae54"/><rect x="286.65" y="204.75" width="8.19" height="8.19" fill="#f8ae54"/><rect x="360.36" y="196.56" width="16.379999999999995" height="16.379999999999995" fill="#ffffff"/><polygon points="360.36,196.56 368.55,196.56 360.36,204.75" fill="#f8ae54"/><polygon points="376.74,196.56 376.74,204.75 368.55,204.75" fill="#f8ae54"/><polygon points="360.36,204.75 368.55,204.75 368.55,212.94" fill="#ff614d"/><polygon points="368.55,204.75 376.74,212.94 368.55,212.94" fill="#f8ae54"/><rect x="442.26" y="196.56" width="16.379999999999995" height="16.379999999999995" fill="#ffffff"/><polygon points="442.26,196.56 450.45,196.56 442.26,204.75" fill="#ff614d"/><polygon points="458.64,196.56 458.64,204.75 450.45,204.75" fill="#ff614d"/><polygon points="442.26,204.75 450.45,204.75 450.45,212.94" fill="#f8ae54"/><polygon points="450.45,204.75 458.64,212.94 450.45,212.94" fill="#ff614d"/><rect x="524.1600000000001" y="196.56" width="16.379999999999995" height="16.379999999999995" fill="#ffffff"/><path d="M 524.16 204.75 A 8.19 8.19 0 0 1  532.35 196.56 L 532.35 204.75" fill="#ff614d"/><path d="M 532.35 196.56 A 8.19 8.19 0 0 1 540.5400000000001 204.75 L 532.35 204.75" fill="#f8ae54"/><path d="M 524.16 204.75 A 8.19 8.19 0 0 0 532.35 212.94 L 532.35 204.75" fill="#ff614d"/><path d="M 532.35 212.94 A 8.19 8.19 0 0 0 540.5400000000001 204.75 L 532.35 204.75" fill="#f8ae54"/><rect x="606.0600000000001" y="196.56" width="16.379999999999995" height="16.379999999999995" fill="#ffffff"/><polygon points="606.06,196.56 614.25,196.56 606.06,204.75" fill="#f8ae54"/><polygon points="622.44,196.56 622.44,204.75 614.25,204.75" fill="#f8ae54"/><polygon points="606.06,204.75 614.25,204.75 614.25,212.94" fill="#ff614d"/><polygon points="614.25,204.75 622.44,212.94 614.25,212.94" fill="#ff614d"/><rect x="687.96" y="196.56" width="16.379999999999995" height="16.379999999999995" fill="#ffffff"/><path d="M 687.96 204.75 A 8.19 8.19 0 0 0 696.1500000000001 196.56 L 687.96 196.56" fill="#f8ae54"/><path d="M 696.15 196.56 A 8.19 8.19 0 0 0 704.34 204.75 L 704.34 196.56" fill="#ff614d"/><path d="M 687.96 204.75 A 8.19 8.19 0 0 1 696.1500000000001 212.94 L 687.96 212.94" fill="#ff614d"/><path d="M 696.15 212.94 A 8.19 8.19 0 0 1  704.34 204.75 L 704.34 212.94" fill="#ff614d"/><rect x="769.86" y="196.56" width="16.379999999999995" height="16.379999999999995" fill="#ffffff"/><circle cx="773.955" cy="200.655" r="4.095" fill="#f8ae54"/><rect x="778.05" y="196.56" width="8.19" height="8.19" fill="#ff614d"/><circle cx="773.955" cy="208.845" r="4.095" fill="#ff614d"/><rect x="778.05" y="204.75" width="8.19" height="8.19" fill="#f8ae54"/><rect x="851.76" y="196.56" width="16.379999999999995" height="16.379999999999995" fill="#ffffff"/><polygon points="851.76,196.56 859.95,196.56 851.76,204.75" fill="#ff614d"/><polygon points="859.95,196.56 868.1400000000001,196.56 868.1400000000001,204.75" fill="#f8ae54"/><polygon points="851.76,204.75 859.95,212.94 851.76,212.94" fill="#ff614d"/><polygon points="868.1400000000001,204.75 868.1400000000001,212.94 859.95,212.94" fill="#ff614d"/><rect x="933.6600000000001" y="196.56" width="16.379999999999995" height="16.379999999999995" fill="#ffffff"/><path d="M 933.66 196.56 A 8.19 8.19 0 0 1 941.85 204.75 L 933.66 204.75" fill="#f8ae54"/><path d="M 941.85 204.75 A 8.19 8.19 0 0 1  950.0400000000001 196.56 L 950.0400000000001 204.75" fill="#f8ae54"/><path d="M 933.66 212.94 A 8.19 8.19 0 0 0 941.85 204.75 L 933.66 204.75" fill="#f8ae54"/><path d="M 941.85 204.75 A 8.19 8.19 0 0 0 950.0400000000001 212.94 L 950.0400000000001 204.75" fill="#ff614d"/><rect x="1015.5600000000001" y="196.56" width="16.379999999999995" height="16.379999999999995" fill="#ffffff"/><path d="M 1015.56 196.56 A 8.19 8.19 0 0 1 1023.75 204.75 L 1015.56 204.75" fill="#f8ae54"/><path d="M 1023.75 204.75 A 8.19 8.19 0 0 1  1031.94 196.56 L 1031.94 204.75" fill="#ff614d"/><path d="M 1015.56 212.94 A 8.19 8.19 0 0 0 1023.75 204.75 L 1015.56 204.75" fill="#f8ae54"/><path d="M 1023.75 204.75 A 8.19 8.19 0 0 0 1031.94 212.94 L 1031.94 204.75" fill="#f8ae54"/><rect x="1097.46" y="196.56" width="16.379999999999995" height="16.379999999999995" fill="#ffffff"/><path d="M 1097.46 196.56 A 8.19 8.19 0 0 0 1105.65 204.75 L 1105.65 196.56" fill="#f8ae54"/><path d="M 1105.65 204.75 A 8.19 8.19 0 0 0 1113.8400000000001 196.56 L 1105.65 196.56" fill="#ff614d"/><path d="M 1097.46 212.94 A 8.19 8.19 0 0 1  1105.65 204.75 L 1105.65 212.94" fill="#ff614d"/><path d="M 1105.65 204.75 A 8.19 8.19 0 0 1 1113.8400000000001 212.94 L 1105.65 212.94" fill="#ff614d"/><rect x="1179.3600000000001" y="196.56" width="16.379999999999995" height="16.379999999999995" fill="#ffffff"/><path d="M 1179.36 196.56 A 8.19 8.19 0 0 0 1187.55 204.75 L 1187.55 196.56" fill="#f8ae54"/><path d="M 1187.55 204.75 A 8.19 8.19 0 0 0 1195.74 196.56 L 1187.55 196.56" fill="#f8ae54"/><path d="M 1179.36 212.94 A 8.19 8.19 0 0 1  1187.55 204.75 L 1187.55 212.94" fill="#ff614d"/><path d="M 1187.55 204.75 A 8.19 8.19 0 0 1 1195.74 212.94 L 1187.55 212.94" fill="#ff614d"/><rect x="1261.26" y="196.56" width="16.379999999999995" height="16.379999999999995" fill="#ffffff"/><circle cx="1265.355" cy="200.655" r="4.095" fill="#ff614d"/><rect x="1269.45" y="196.56" width="8.19" height="8.19" fill="#f8ae54"/><circle cx="1265.355" cy="208.845" r="4.095" fill="#f8ae54"/><rect x="1269.45" y="204.75" width="8.19" height="8.19" fill="#ff614d"/><rect x="32.760000000000005" y="278.46000000000004" width="16.379999999999995" height="16.379999999999995" fill="#ffffff"/><path d="M 32.76 286.65 A 8.19 8.19 0 0 1  40.949999999999996 278.46 L 40.949999999999996 286.65" fill="#f8ae54"/><path d="M 40.95 278.46 A 8.19 8.19 0 0 1 49.14 286.65 L 40.95 286.65" fill="#ff614d"/><path d="M 32.76 286.65 A 8.19 8.19 0 0 0 40.949999999999996 294.84 L 40.949999999999996 286.65" fill="#ff614d"/><path d="M 40.95 294.84 A 8.19 8.19 0 0 0 49.14 286.65 L 40.95 286.65" fill="#ff614d"/><rect x="114.66000000000001" y="278.46000000000004" width="16.379999999999995" height="16.379999999999995" fill="#ffffff"/><path d="M 114.66 286.65 A 8.19 8.19 0 0 1 122.85 278.46 L 122.85 280.5075 A 6.1425 6.1425 0 0 0 116.7075 286.65" fill="#f8ae54"/><path d="M 122.85 278.46 A 8.19 8.19 0 0 1 131.04 286.65 L 128.9925 286.65 A 6.1425 6.1425 0 0 0 122.85 280.5075" fill="#ff614d"/><path d="M 114.66 286.65 A 8.19 8.19 0 0 0 122.85 294.84 L 122.85 292.79249999999996 A 6.1425 6.1425 0 0 1 116.7075 286.65" fill="#f8ae54"/><path d="M 122.85 294.84 A 8.19 8.19 0 0 0 131.04 286.65 L 128.9925 286.65 A 6.1425 6.1425 0 0 1 122.85 292.79249999999996" fill="#ff614d"/><rect x="196.56" y="278.46000000000004" width="16.379999999999995" height="16.379999999999995" fill="#ffffff"/><path d="M 196.56 278.46 A 8.19 8.19 0 0 1 204.75 286.65 L 196.56 286.65" fill="#f8ae54"/><path d="M 204.75 286.65 A 8.19 8.19 0 0 1  212.94 278.46 L 212.94 286.65" fill="#ff614d"/><path d="M 196.56 294.84 A 8.19 8.19 0 0 0 204.75 286.65 L 196.56 286.65" fill="#ff614d"/><path d="M 204.75 286.65 A 8.19 8.19 0 0 0 212.94 294.84 L 212.94 286.65" fill="#f8ae54"/><rect x="278.46000000000004" y="278.46000000000004" width="16.379999999999995" height="16.379999999999995" fill="#ffffff"/><path d="M 278.46 286.65 A 8.19 8.19 0 0 1  286.65 278.46 L 286.65 286.65" fill="#ff614d"/><path d="M 286.65 278.46 A 8.19 8.19 0 0 1 294.84 286.65 L 286.65 286.65" fill="#f8ae54"/><path d="M 278.46 286.65 A 8.19 8.19 0 0 0 286.65 294.84 L 286.65 286.65" fill="#f8ae54"/><path d="M 286.65 294.84 A 8.19 8.19 0 0 0 294.84 286.65 L 286.65 286.65" fill="#f8ae54"/><rect x="360.36" y="278.46000000000004" width="16.379999999999995" height="16.379999999999995" fill="#ffffff"/><path d="M 360.36 286.65 A 8.19 8.19 0 0 0 368.55 278.46 L 360.36 278.46" fill="#f8ae54"/><path d="M 368.55 278.46 A 8.19 8.19 0 0 0 376.74 286.65 L 376.74 278.46" fill="#f8ae54"/><path d="M 360.36 286.65 A 8.19 8.19 0 0 1 368.55 294.84 L 360.36 294.84" fill="#f8ae54"/><path d="M 368.55 294.84 A 8.19 8.19 0 0 1  376.74 286.65 L 376.74 294.84" fill="#ff614d"/><rect x="442.26" y="278.46000000000004" width="16.379999999999995" height="16.379999999999995" fill="#ffffff"/><polygon points="442.26,278.46 450.45,278.46 442.26,286.65" fill="#f8ae54"/><polygon points="458.64,278.46 458.64,286.65 450.45,286.65" fill="#f8ae54"/><polygon points="442.26,286.65 450.45,286.65 450.45,294.84" fill="#f8ae54"/><polygon points="450.45,286.65 458.64,294.84 450.45,294.84" fill="#ff614d"/><rect x="524.1600000000001" y="278.46000000000004" width="16.379999999999995" height="16.379999999999995" fill="#ffffff"/><path d="M 524.16 286.65 A 8.19 8.19 0 0 0 532.35 278.46 L 524.16 278.46" fill="#f8ae54"/><path d="M 532.35 278.46 A 8.19 8.19 0 0 0 540.5400000000001 286.65 L 540.5400000000001 278.46" fill="#ff614d"/><path d="M 524.16 286.65 A 8.19 8.19 0 0 1 532.35 294.84 L 524.16 294.84" fill="#f8ae54"/><path d="M 532.35 294.84 A 8.19 8.19 0 0 1  540.5400000000001 286.65 L 540.5400000000001 294.84" fill="#ff614d"/><rect x="606.0600000000001" y="278.46000000000004" width="16.379999999999995" height="16.379999999999995" fill="#ffffff"/><polygon points="606.06,278.46 614.25,278.46 606.06,286.65" fill="#f8ae54"/><polygon points="622.44,278.46 622.44,286.65 614.25,286.65" fill="#f8ae54"/><polygon points="606.06,286.65 614.25,286.65 614.25,294.84" fill="#f8ae54"/><polygon points="614.25,286.65 622.44,294.84 614.25,294.84" fill="#ff614d"/><rect x="687.96" y="278.46000000000004" width="16.379999999999995" height="16.379999999999995" fill="#ffffff"/><polygon points="687.96,278.46 696.1500000000001,278.46 687.96,286.65" fill="#f8ae54"/><polygon points="696.15,278.46 704.34,278.46 704.34,286.65" fill="#ff614d"/><polygon points="687.96,286.65 696.1500000000001,294.84 687.96,294.84" fill="#ff614d"/><polygon points="704.34,286.65 704.34,294.84 696.15,294.84" fill="#ff614d"/><rect x="769.86" y="278.46000000000004" width="16.379999999999995" height="16.379999999999995" fill="#ffffff"/><path d="M 769.86 286.65 A 8.19 8.19 0 0 1  778.0500000000001 278.46 L 778.0500000000001 286.65" fill="#f8ae54"/><path d="M 778.05 278.46 A 8.19 8.19 0 0 1 786.24 286.65 L 778.05 286.65" fill="#f8ae54"/><path d="M 769.86 286.65 A 8.19 8.19 0 0 0 778.0500000000001 294.84 L 778.0500000000001 286.65" fill="#ff614d"/><path d="M 778.05 294.84 A 8.19 8.19 0 0 0 786.24 286.65 L 778.05 286.65" fill="#f8ae54"/><rect x="851.76" y="278.46000000000004" width="16.379999999999995" height="16.379999999999995" fill="#ffffff"/><polygon points="851.76,278.46 859.95,278.46 851.76,286.65" fill="#f8ae54"/><polygon points="868.1400000000001,278.46 868.1400000000001,286.65 859.95,286.65" fill="#f8ae54"/><polygon points="851.76,286.65 859.95,286.65 859.95,294.84" fill="#ff614d"/><polygon points="859.95,286.65 868.1400000000001,294.84 859.95,294.84" fill="#ff614d"/><rect x="933.6600000000001" y="278.46000000000004" width="16.379999999999995" height="16.379999999999995" fill="#ffffff"/><circle cx="937.755" cy="282.555" r="4.095" fill="#ff614d"/><rect x="941.85" y="278.46" width="8.19" height="8.19" fill="#f8ae54"/><circle cx="937.755" cy="290.745" r="4.095" fill="#f8ae54"/><rect x="941.85" y="286.65" width="8.19" height="8.19" fill="#ff614d"/><rect x="1015.5600000000001" y="278.46000000000004" width="16.379999999999995" height="16.379999999999995" fill="#ffffff"/><circle cx="1019.655" cy="282.555" r="4.095" fill="#f8ae54"/><rect x="1023.75" y="278.46" width="8.19" height="8.19" fill="#f8ae54"/><circle cx="1019.655" cy="290.745" r="4.095" fill="#ff614d"/><rect x="1023.75" y="286.65" width="8.19" height="8.19" fill="#ff614d"/><rect x="1097.46" y="278.46000000000004" width="16.379999999999995" height="16.379999999999995" fill="#ffffff"/><path d="M 1097.46 286.65 A 8.19 8.19 0 0 1 1105.65 278.46 L 1105.65 280.5075 A 6.1425 6.1425 0 0 0 1099.5075 286.65" fill="#ff614d"/><path d="M 1105.65 278.46 A 8.19 8.19 0 0 1 1113.8400000000001 286.65 L 1111.7925 286.65 A 6.1425 6.1425 0 0 0 1105.65 280.5075" fill="#f8ae54"/><path d="M 1097.46 286.65 A 8.19 8.19 0 0 0 1105.65 294.84 L 1105.65 292.79249999999996 A 6.1425 6.1425 0 0 1 1099.5075 286.65" fill="#ff614d"/><path d="M 1105.65 294.84 A 8.19 8.19 0 0 0 1113.8400000000001 286.65 L 1111.7925 286.65 A 6.1425 6.1425 0 0 1 1105.65 292.79249999999996" fill="#ff614d"/><rect x="1179.3600000000001" y="278.46000000000004" width="16.379999999999995" height="16.379999999999995" fill="#ffffff"/><circle cx="1183.455" cy="282.555" r="4.095" fill="#ff614d"/><rect x="1187.55" y="278.46" width="8.19" height="8.19" fill="#ff614d"/><circle cx="1183.455" cy="290.745" r="4.095" fill="#ff614d"/><rect x="1187.55" y="286.65" width="8.19" height="8.19" fill="#f8ae54"/><rect x="1261.26" y="278.46000000000004" width="16.379999999999995" height="16.379999999999995" fill="#ffffff"/><polygon points="1261.26,278.46 1269.45,278.46 1261.26,286.65" fill="#ff614d"/><polygon points="1269.45,278.46 1277.64,278.46 1277.64,286.65" fill="#ff614d"/><polygon points="1269.45,286.65 1269.45,294.84 1261.26,294.84" fill="#f8ae54"/><polygon points="1269.45,286.65 1277.64,294.84 1269.45,294.84" fill="#ff614d"/><rect x="32.760000000000005" y="360.36" width="16.379999999999995" height="16.379999999999995" fill="#ffffff"/><path d="M 32.76 360.36 A 8.19 8.19 0 0 0 40.949999999999996 368.55 L 40.949999999999996 360.36" fill="#ff614d"/><path d="M 40.95 368.55 A 8.19 8.19 0 0 0 49.14 360.36 L 40.95 360.36" fill="#ff614d"/><path d="M 32.76 376.74 A 8.19 8.19 0 0 1  40.949999999999996 368.55 L 40.949999999999996 376.74" fill="#f8ae54"/><path d="M 40.95 368.55 A 8.19 8.19 0 0 1 49.14 376.74 L 40.95 376.74" fill="#f8ae54"/><rect x="114.66000000000001" y="360.36" width="16.379999999999995" height="16.379999999999995" fill="#ffffff"/><polygon points="114.66,360.36 122.85,360.36 114.66,368.55" fill="#ff614d"/><polygon points="122.85,360.36 131.04,360.36 131.04,368.55" fill="#ff614d"/><polygon points="114.66,368.55 122.85,376.74 114.66,376.74" fill="#ff614d"/><polygon points="131.04,368.55 131.04,376.74 122.85,376.74" fill="#f8ae54"/><rect x="196.56" y="360.36" width="16.379999999999995" height="16.379999999999995" fill="#ffffff"/><path d="M 196.56 368.55 A 8.19 8.19 0 0 1 204.75 360.36 L 204.75 362.4075 A 6.1425 6.1425 0 0 0 198.60750000000002 368.55" fill="#f8ae54"/><path d="M 204.75 360.36 A 8.19 8.19 0 0 1 212.94 368.55 L 210.8925 368.55 A 6.1425 6.1425 0 0 0 204.75 362.4075" fill="#ff614d"/><path d="M 196.56 368.55 A 8.19 8.19 0 0 0 204.75 376.74 L 204.75 374.6925 A 6.1425 6.1425 0 0 1 198.60750000000002 368.55" fill="#f8ae54"/><path d="M 204.75 376.74 A 8.19 8.19 0 0 0 212.94 368.55 L 210.8925 368.55 A 6.1425 6.1425 0 0 1 204.75 374.6925" fill="#ff614d"/><rect x="278.46000000000004" y="360.36" width="16.379999999999995" height="16.379999999999995" fill="#ffffff"/><polygon points="278.46,360.36 286.65,360.36 278.46,368.55" fill="#ff614d"/><polygon points="286.65,360.36 294.84,360.36 294.84,368.55" fill="#ff614d"/><polygon points="278.46,368.55 286.65,376.74 278.46,376.74" fill="#ff614d"/><polygon points="294.84,368.55 294.84,376.74 286.65,376.74" fill="#ff614d"/><rect x="360.36" y="360.36" width="16.379999999999995" height="16.379999999999995" fill="#ffffff"/><path d="M 360.36 368.55 A 8.19 8.19 0 0 1 368.55 360.36 L 368.55 362.4075 A 6.1425 6.1425 0 0 0 362.4075 368.55" fill="#f8ae54"/><path d="M 368.55 360.36 A 8.19 8.19 0 0 1 376.74 368.55 L 374.6925 368.55 A 6.1425 6.1425 0 0 0 368.55 362.4075" fill="#ff614d"/><path d="M 360.36 368.55 A 8.19 8.19 0 0 0 368.55 376.74 L 368.55 374.6925 A 6.1425 6.1425 0 0 1 362.4075 368.55" fill="#ff614d"/><path d="M 368.55 376.74 A 8.19 8.19 0 0 0 376.74 368.55 L 374.6925 368.55 A 6.1425 6.1425 0 0 1 368.55 374.6925" fill="#f8ae54"/><rect x="442.26" y="360.36" width="16.379999999999995" height="16.379999999999995" fill="#ffffff"/><path d="M 442.26 368.55 A 8.19 8.19 0 0 1 450.45 360.36 L 450.45 362.4075 A 6.1425 6.1425 0 0 0 444.3075 368.55" fill="#f8ae54"/><path d="M 450.45 360.36 A 8.19 8.19 0 0 1 458.64 368.55 L 456.5925 368.55 A 6.1425 6.1425 0 0 0 450.45 362.4075" fill="#f8ae54"/><path d="M 442.26 368.55 A 8.19 8.19 0 0 0 450.45 376.74 L 450.45 374.6925 A 6.1425 6.1425 0 0 1 444.3075 368.55" fill="#f8ae54"/><path d="M 450.45 376.74 A 8.19 8.19 0 0 0 458.64 368.55 L 456.5925 368.55 A 6.1425 6.1425 0 0 1 450.45 374.6925" fill="#ff614d"/><rect x="524.1600000000001" y="360.36" width="16.379999999999995" height="16.379999999999995" fill="#ffffff"/><polygon points="524.16,360.36 532.35,360.36 524.16,368.55" fill="#ff614d"/><polygon points="532.35,360.36 540.5400000000001,360.36 540.5400000000001,368.55" fill="#ff614d"/><polygon points="524.16,368.55 532.35,376.74 524.16,376.74" fill="#ff614d"/><polygon points="540.5400000000001,368.55 540.5400000000001,376.74 532.35,376.74" fill="#f8ae54"/><rect x="606.0600000000001" y="360.36" width="16.379999999999995" height="16.379999999999995" fill="#ffffff"/><path d="M 606.06 368.55 A 8.19 8.19 0 0 1  614.25 360.36 L 614.25 368.55" fill="#f8ae54"/><path d="M 614.25 360.36 A 8.19 8.19 0 0 1 622.44 368.55 L 614.25 368.55" fill="#f8ae54"/><path d="M 606.06 368.55 A 8.19 8.19 0 0 0 614.25 376.74 L 614.25 368.55" fill="#ff614d"/><path d="M 614.25 376.74 A 8.19 8.19 0 0 0 622.44 368.55 L 614.25 368.55" fill="#ff614d"/><rect x="687.96" y="360.36" width="16.379999999999995" height="16.379999999999995" fill="#ffffff"/><path d="M 687.96 360.36 A 8.19 8.19 0 0 1 696.1500000000001 368.55 L 687.96 368.55" fill="#ff614d"/><path d="M 696.15 368.55 A 8.19 8.19 0 0 1  704.34 360.36 L 704.34 368.55" fill="#ff614d"/><path d="M 687.96 376.74 A 8.19 8.19 0 0 0 696.1500000000001 368.55 L 687.96 368.55" fill="#f8ae54"/><path d="M 696.15 368.55 A 8.19 8.19 0 0 0 704.34 376.74 L 704.34 368.55" fill="#ff614d"/><rect x="769.86" y="360.36" width="16.379999999999995" height="16.379999999999995" fill="#ffffff"/><polygon points="769.86,360.36 778.0500000000001,360.36 769.86,368.55" fill="#f8ae54"/><polygon points="778.05,360.36 786.24,360.36 786.24,368.55" fill="#f8ae54"/><polygon points="769.86,368.55 778.0500000000001,376.74 769.86,376.74" fill="#f8ae54"/><polygon points="786.24,368.55 786.24,376.74 778.05,376.74" fill="#ff614d"/><rect x="851.76" y="360.36" width="16.379999999999995" height="16.379999999999995" fill="#ffffff"/><path d="M 851.76 368.55 A 8.19 8.19 0 0 1  859.95 360.36 L 859.95 368.55" fill="#ff614d"/><path d="M 859.95 360.36 A 8.19 8.19 0 0 1 868.1400000000001 368.55 L 859.95 368.55" fill="#f8ae54"/><path d="M 851.76 368.55 A 8.19 8.19 0 0 0 859.95 376.74 L 859.95 368.55" fill="#ff614d"/><path d="M 859.95 376.74 A 8.19 8.19 0 0 0 868.1400000000001 368.55 L 859.95 368.55" fill="#ff614d"/><rect x="933.6600000000001" y="360.36" width="16.379999999999995" height="16.379999999999995" fill="#ffffff"/><path d="M 933.66 368.55 A 8.19 8.19 0 0 0 941.85 360.36 L 933.66 360.36" fill="#f8ae54"/><path d="M 941.85 360.36 A 8.19 8.19 0 0 0 950.0400000000001 368.55 L 950.0400000000001 360.36" fill="#f8ae54"/><path d="M 933.66 368.55 A 8.19 8.19 0 0 1 941.85 376.74 L 933.66 376.74" fill="#f8ae54"/><path d="M 941.85 376.74 A 8.19 8.19 0 0 1  950.0400000000001 368.55 L 950.0400000000001 376.74" fill="#f8ae54"/><rect x="1015.5600000000001" y="360.36" width="16.379999999999995" height="16.379999999999995" fill="#ffffff"/><path d="M 1015.56 368.55 A 8.19 8.19 0 0 0 1023.75 360.36 L 1015.56 360.36" fill="#f8ae54"/><path d="M 1023.75 360.36 A 8.19 8.19 0 0 0 1031.94 368.55 L 1031.94 360.36" fill="#ff614d"/><path d="M 1015.56 368.55 A 8.19 8.19 0 0 1 1023.75 376.74 L 1015.56 376.74" fill="#ff614d"/><path d="M 1023.75 376.74 A 8.19 8.19 0 0 1  1031.94 368.55 L 1031.94 376.74" fill="#ff614d"/><rect x="1097.46" y="360.36" width="16.379999999999995" height="16.379999999999995" fill="#ffffff"/><path d="M 1097.46 368.55 A 8.19 8.19 0 0 1  1105.65 360.36 L 1105.65 368.55" fill="#ff614d"/><path d="M 1105.65 360.36 A 8.19 8.19 0 0 1 1113.8400000000001 368.55 L 1105.65 368.55" fill="#f8ae54"/><path d="M 1097.46 368.55 A 8.19 8.19 0 0 0 1105.65 376.74 L 1105.65 368.55" fill="#ff614d"/><path d="M 1105.65 376.74 A 8.19 8.19 0 0 0 1113.8400000000001 368.55 L 1105.65 368.55" fill="#ff614d"/><rect x="1179.3600000000001" y="360.36" width="16.379999999999995" height="16.379999999999995" fill="#ffffff"/><path d="M 1179.36 368.55 A 8.19 8.19 0 0 1 1187.55 360.36 L 1187.55 362.4075 A 6.1425 6.1425 0 0 0 1181.4074999999998 368.55" fill="#f8ae54"/><path d="M 1187.55 360.36 A 8.19 8.19 0 0 1 1195.74 368.55 L 1193.6924999999999 368.55 A 6.1425 6.1425 0 0 0 1187.55 362.4075" fill="#ff614d"/><path d="M 1179.36 368.55 A 8.19 8.19 0 0 0 1187.55 376.74 L 1187.55 374.6925 A 6.1425 6.1425 0 0 1 1181.4074999999998 368.55" fill="#f8ae54"/><path d="M 1187.55 376.74 A 8.19 8.19 0 0 0 1195.74 368.55 L 1193.6924999999999 368.55 A 6.1425 6.1425 0 0 1 1187.55 374.6925" fill="#ff614d"/><rect x="1261.26" y="360.36" width="16.379999999999995" height="16.379999999999995" fill="#ffffff"/><circle cx="1265.355" cy="364.45500000000004" r="4.095" fill="#ff614d"/><rect x="1269.45" y="360.36" width="8.19" height="8.19" fill="#f8ae54"/><circle cx="1265.355" cy="372.64500000000004" r="4.095" fill="#f8ae54"/><rect x="1269.45" y="368.55" width="8.19" height="8.19" fill="#f8ae54"/><rect x="32.760000000000005" y="442.26" width="16.379999999999995" height="16.379999999999995" fill="#ffffff"/><polygon points="32.76,442.26 40.949999999999996,442.26 32.76,450.45" fill="#f8ae54"/><polygon points="49.14,442.26 49.14,450.45 40.95,450.45" fill="#f8ae54"/><polygon points="32.76,450.45 40.949999999999996,450.45 40.949999999999996,458.64" fill="#f8ae54"/><polygon points="40.95,450.45 49.14,458.64 40.95,458.64" fill="#ff614d"/><rect x="114.66000000000001" y="442.26" width="16.379999999999995" height="16.379999999999995" fill="#ffffff"/><path d="M 114.66 450.45 A 8.19 8.19 0 0 1  122.85 442.26 L 122.85 450.45" fill="#f8ae54"/><path d="M 122.85 442.26 A 8.19 8.19 0 0 1 131.04 450.45 L 122.85 450.45" fill="#f8ae54"/><path d="M 114.66 450.45 A 8.19 8.19 0 0 0 122.85 458.64 L 122.85 450.45" fill="#ff614d"/><path d="M 122.85 458.64 A 8.19 8.19 0 0 0 131.04 450.45 L 122.85 450.45" fill="#f8ae54"/><rect x="196.56" y="442.26" width="16.379999999999995" height="16.379999999999995" fill="#ffffff"/><path d="M 196.56 450.45 A 8.19 8.19 0 0 1  204.75 442.26 L 204.75 450.45" fill="#f8ae54"/><path d="M 204.75 442.26 A 8.19 8.19 0 0 1 212.94 450.45 L 204.75 450.45" fill="#ff614d"/><path d="M 196.56 450.45 A 8.19 8.19 0 0 0 204.75 458.64 L 204.75 450.45" fill="#f8ae54"/><path d="M 204.75 458.64 A 8.19 8.19 0 0 0 212.94 450.45 L 204.75 450.45" fill="#f8ae54"/><rect x="278.46000000000004" y="442.26" width="16.379999999999995" height="16.379999999999995" fill="#ffffff"/><path d="M 278.46 450.45 A 8.19 8.19 0 0 0 286.65 442.26 L 278.46 442.26" fill="#f8ae54"/><path d="M 286.65 442.26 A 8.19 8.19 0 0 0 294.84 450.45 L 294.84 442.26" fill="#f8ae54"/><path d="M 278.46 450.45 A 8.19 8.19 0 0 1 286.65 458.64 L 278.46 458.64" fill="#f8ae54"/><path d="M 286.65 458.64 A 8.19 8.19 0 0 1  294.84 450.45 L 294.84 458.64" fill="#ff614d"/><rect x="360.36" y="442.26" width="16.379999999999995" height="16.379999999999995" fill="#ffffff"/><path d="M 360.36 450.45 A 8.19 8.19 0 0 1  368.55 442.26 L 368.55 450.45" fill="#ff614d"/><path d="M 368.55 442.26 A 8.19 8.19 0 0 1 376.74 450.45 L 368.55 450.45" fill="#f8ae54"/><path d="M 360.36 450.45 A 8.19 8.19 0 0 0 368.55 458.64 L 368.55 450.45" fill="#ff614d"/><path d="M 368.55 458.64 A 8.19 8.19 0 0 0 376.74 450.45 L 368.55 450.45" fill="#ff614d"/><rect x="442.26" y="442.26" width="16.379999999999995" height="16.379999999999995" fill="#ffffff"/><polygon points="442.26,442.26 450.45,442.26 442.26,450.45" fill="#ff614d"/><polygon points="450.45,442.26 458.64,442.26 458.64,450.45" fill="#f8ae54"/><polygon points="442.26,450.45 450.45,458.64 442.26,458.64" fill="#f8ae54"/><polygon points="458.64,450.45 458.64,458.64 450.45,458.64" fill="#f8ae54"/><rect x="524.1600000000001" y="442.26" width="16.379999999999995" height="16.379999999999995" fill="#ffffff"/><path d="M 524.16 450.45 A 8.19 8.19 0 0 1 532.35 442.26 L 532.35 444.3075 A 6.1425 6.1425 0 0 0 526.2075 450.45" fill="#ff614d"/><path d="M 532.35 442.26 A 8.19 8.19 0 0 1 540.5400000000001 450.45 L 538.4925000000001 450.45 A 6.1425 6.1425 0 0 0 532.35 444.3075" fill="#f8ae54"/><path d="M 524.16 450.45 A 8.19 8.19 0 0 0 532.35 458.64 L 532.35 456.5925 A 6.1425 6.1425 0 0 1 526.2075 450.45" fill="#f8ae54"/><path d="M 532.35 458.64 A 8.19 8.19 0 0 0 540.5400000000001 450.45 L 538.4925000000001 450.45 A 6.1425 6.1425 0 0 1 532.35 456.5925" fill="#f8ae54"/><rect x="606.0600000000001" y="442.26" width="16.379999999999995" height="16.379999999999995" fill="#ffffff"/><path d="M 606.06 450.45 A 8.19 8.19 0 0 1  614.25 442.26 L 614.25 450.45" fill="#f8ae54"/><path d="M 614.25 442.26 A 8.19 8.19 0 0 1 622.44 450.45 L 614.25 450.45" fill="#ff614d"/><path d="M 606.06 450.45 A 8.19 8.19 0 0 0 614.25 458.64 L 614.25 450.45" fill="#ff614d"/><path d="M 614.25 458.64 A 8.19 8.19 0 0 0 622.44 450.45 L 614.25 450.45" fill="#ff614d"/><rect x="687.96" y="442.26" width="16.379999999999995" height="16.379999999999995" fill="#ffffff"/><path d="M 687.96 450.45 A 8.19 8.19 0 0 1 696.1500000000001 442.26 L 696.1500000000001 444.3075 A 6.1425 6.1425 0 0 0 690.0075 450.45" fill="#f8ae54"/><path d="M 696.15 442.26 A 8.19 8.19 0 0 1 704.34 450.45 L 702.2925 450.45 A 6.1425 6.1425 0 0 0 696.15 444.3075" fill="#ff614d"/><path d="M 687.96 450.45 A 8.19 8.19 0 0 0 696.1500000000001 458.64 L 696.1500000000001 456.5925 A 6.1425 6.1425 0 0 1 690.0075 450.45" fill="#f8ae54"/><path d="M 696.15 458.64 A 8.19 8.19 0 0 0 704.34 450.45 L 702.2925 450.45 A 6.1425 6.1425 0 0 1 696.15 456.5925" fill="#f8ae54"/><rect x="769.86" y="442.26" width="16.379999999999995" height="16.379999999999995" fill="#ffffff"/><circle cx="773.955" cy="446.355" r="4.095" fill="#ff614d"/><rect x="778.05" y="442.26" width="8.19" height="8.19" fill="#f8ae54"/><circle cx="773.955" cy="454.545" r="4.095" fill="#ff614d"/><rect x="778.05" y="450.45" width="8.19" height="8.19" fill="#ff614d"/><rect x="851.76" y="442.26" width="16.379999999999995" height="16.379999999999995" fill="#ffffff"/><polygon points="851.76,442.26 859.95,442.26 851.76,450.45" fill="#f8ae54"/><polygon points="868.1400000000001,442.26 868.1400000000001,450.45 859.95,450.45" fill="#ff614d"/><polygon points="851.76,450.45 859.95,450.45 859.95,458.64" fill="#ff614d"/><polygon points="859.95,450.45 868.1400000000001,458.64 859.95,458.64" fill="#f8ae54"/><rect x="933.6600000000001" y="442.26" width="16.379999999999995" height="16.379999999999995" fill="#ffffff"/><path d="M 933.66 442.26 A 8.19 8.19 0 0 0 941.85 450.45 L 941.85 442.26" fill="#f8ae54"/><path d="M 941.85 450.45 A 8.19 8.19 0 0 0 950.0400000000001 442.26 L 941.85 442.26" fill="#ff614d"/><path d="M 933.66 458.64 A 8.19 8.19 0 0 1  941.85 450.45 L 941.85 458.64" fill="#f8ae54"/><path d="M 941.85 450.45 A 8.19 8.19 0 0 1 950.0400000000001 458.64 L 941.85 458.64" fill="#ff614d"/><rect x="1015.5600000000001" y="442.26" width="16.379999999999995" height="16.379999999999995" fill="#ffffff"/><path d="M 1015.56 450.45 A 8.19 8.19 0 0 0 1023.75 442.26 L 1015.56 442.26" fill="#f8ae54"/><path d="M 1023.75 442.26 A 8.19 8.19 0 0 0 1031.94 450.45 L 1031.94 442.26" fill="#ff614d"/><path d="M 1015.56 450.45 A 8.19 8.19 0 0 1 1023.75 458.64 L 1015.56 458.64" fill="#ff614d"/><path d="M 1023.75 458.64 A 8.19 8.19 0 0 1  1031.94 450.45 L 1031.94 458.64" fill="#ff614d"/><rect x="1097.46" y="442.26" width="16.379999999999995" height="16.379999999999995" fill="#ffffff"/><path d="M 1097.46 442.26 A 8.19 8.19 0 0 1 1105.65 450.45 L 1097.46 450.45" fill="#ff614d"/><path d="M 1105.65 450.45 A 8.19 8.19 0 0 1  1113.8400000000001 442.26 L 1113.8400000000001 450.45" fill="#ff614d"/><path d="M 1097.46 458.64 A 8.19 8.19 0 0 0 1105.65 450.45 L 1097.46 450.45" fill="#ff614d"/><path d="M 1105.65 450.45 A 8.19 8.19 0 0 0 1113.8400000000001 458.64 L 1113.8400000000001 450.45" fill="#ff614d"/><rect x="1179.3600000000001" y="442.26" width="16.379999999999995" height="16.379999999999995" fill="#ffffff"/><path d="M 1179.36 442.26 A 8.19 8.19 0 0 1 1187.55 450.45 L 1179.36 450.45" fill="#ff614d"/><path d="M 1187.55 450.45 A 8.19 8.19 0 0 1  1195.74 442.26 L 1195.74 450.45" fill="#f8ae54"/><path d="M 1179.36 458.64 A 8.19 8.19 0 0 0 1187.55 450.45 L 1179.36 450.45" fill="#f8ae54"/><path d="M 1187.55 450.45 A 8.19 8.19 0 0 0 1195.74 458.64 L 1195.74 450.45" fill="#ff614d"/><rect x="1261.26" y="442.26" width="16.379999999999995" height="16.379999999999995" fill="#ffffff"/><polygon points="1261.26,442.26 1269.45,442.26 1261.26,450.45" fill="#ff614d"/><polygon points="1277.64,442.26 1277.64,450.45 1269.45,450.45" fill="#ff614d"/><polygon points="1261.26,450.45 1269.45,450.45 1269.45,458.64" fill="#f8ae54"/><polygon points="1269.45,450.45 1277.64,458.64 1269.45,458.64" fill="#ff614d"/><rect x="32.760000000000005" y="524.1600000000001" width="16.379999999999995" height="16.379999999999995" fill="#ffffff"/><circle cx="36.855" cy="528.255" r="4.095" fill="#f8ae54"/><rect x="40.95" y="524.16" width="8.19" height="8.19" fill="#ff614d"/><circle cx="36.855" cy="536.445" r="4.095" fill="#ff614d"/><rect x="40.95" y="532.35" width="8.19" height="8.19" fill="#ff614d"/><rect x="114.66000000000001" y="524.1600000000001" width="16.379999999999995" height="16.379999999999995" fill="#ffffff"/><polygon points="114.66,524.16 122.85,524.16 114.66,532.35" fill="#f8ae54"/><polygon points="122.85,524.16 131.04,524.16 131.04,532.35" fill="#ff614d"/><polygon points="122.85,532.35 122.85,540.5400000000001 114.66,540.5400000000001" fill="#ff614d"/><polygon points="122.85,532.35 131.04,540.5400000000001 122.85,540.5400000000001" fill="#ff614d"/><rect x="196.56" y="524.1600000000001" width="16.379999999999995" height="16.379999999999995" fill="#ffffff"/><path d="M 196.56 532.35 A 8.19 8.19 0 0 0 204.75 524.16 L 196.56 524.16" fill="#f8ae54"/><path d="M 204.75 524.16 A 8.19 8.19 0 0 0 212.94 532.35 L 212.94 524.16" fill="#f8ae54"/><path d="M 196.56 532.35 A 8.19 8.19 0 0 1 204.75 540.5400000000001 L 196.56 540.5400000000001" fill="#ff614d"/><path d="M 204.75 540.5400000000001 A 8.19 8.19 0 0 1  212.94 532.35 L 212.94 540.5400000000001" fill="#f8ae54"/><rect x="278.46000000000004" y="524.1600000000001" width="16.379999999999995" height="16.379999999999995" fill="#ffffff"/><path d="M 278.46 532.35 A 8.19 8.19 0 0 0 286.65 524.16 L 278.46 524.16" fill="#ff614d"/><path d="M 286.65 524.16 A 8.19 8.19 0 0 0 294.84 532.35 L 294.84 524.16" fill="#ff614d"/><path d="M 278.46 532.35 A 8.19 8.19 0 0 1 286.65 540.5400000000001 L 278.46 540.5400000000001" fill="#f8ae54"/><path d="M 286.65 540.5400000000001 A 8.19 8.19 0 0 1  294.84 532.35 L 294.84 540.5400000000001" fill="#ff614d"/><rect x="360.36" y="524.1600000000001" width="16.379999999999995" height="16.379999999999995" fill="#ffffff"/><circle cx="364.45500000000004" cy="528.255" r="4.095" fill="#ff614d"/><rect x="368.55" y="524.16" width="8.19" height="8.19" fill="#f8ae54"/><circle cx="364.45500000000004" cy="536.445" r="4.095" fill="#f8ae54"/><rect x="368.55" y="532.35" width="8.19" height="8.19" fill="#f8ae54"/><rect x="442.26" y="524.1600000000001" width="16.379999999999995" height="16.379999999999995" fill="#ffffff"/><path d="M 442.26 532.35 A 8.19 8.19 0 0 0 450.45 524.16 L 442.26 524.16" fill="#f8ae54"/><path d="M 450.45 524.16 A 8.19 8.19 0 0 0 458.64 532.35 L 458.64 524.16" fill="#f8ae54"/><path d="M 442.26 532.35 A 8.19 8.19 0 0 1 450.45 540.5400000000001 L 442.26 540.5400000000001" fill="#ff614d"/><path d="M 450.45 540.5400000000001 A 8.19 8.19 0 0 1  458.64 532.35 L 458.64 540.5400000000001" fill="#ff614d"/><rect x="524.1600000000001" y="524.1600000000001" width="16.379999999999995" height="16.379999999999995" fill="#ffffff"/><path d="M 524.16 532.35 A 8.19 8.19 0 0 0 532.35 524.16 L 524.16 524.16" fill="#ff614d"/><path d="M 532.35 524.16 A 8.19 8.19 0 0 0 540.5400000000001 532.35 L 540.5400000000001 524.16" fill="#ff614d"/><path d="M 524.16 532.35 A 8.19 8.19 0 0 1 532.35 540.5400000000001 L 524.16 540.5400000000001" fill="#f8ae54"/><path d="M 532.35 540.5400000000001 A 8.19 8.19 0 0 1  540.5400000000001 532.35 L 540.5400000000001 540.5400000000001" fill="#ff614d"/><rect x="606.0600000000001" y="524.1600000000001" width="16.379999999999995" height="16.379999999999995" fill="#ffffff"/><polygon points="606.06,524.16 614.25,524.16 606.06,532.35" fill="#f8ae54"/><polygon points="622.44,524.16 622.44,532.35 614.25,532.35" fill="#ff614d"/><polygon points="606.06,532.35 614.25,532.35 614.25,540.5400000000001" fill="#f8ae54"/><polygon points="614.25,532.35 622.44,540.5400000000001 614.25,540.5400000000001" fill="#ff614d"/><rect x="687.96" y="524.1600000000001" width="16.379999999999995" height="16.379999999999995" fill="#ffffff"/><path d="M 687.96 532.35 A 8.19 8.19 0 0 1  696.1500000000001 524.16 L 696.1500000000001 532.35" fill="#f8ae54"/><path d="M 696.15 524.16 A 8.19 8.19 0 0 1 704.34 532.35 L 696.15 532.35" fill="#f8ae54"/><path d="M 687.96 532.35 A 8.19 8.19 0 0 0 696.1500000000001 540.5400000000001 L 696.1500000000001 532.35" fill="#f8ae54"/><path d="M 696.15 540.5400000000001 A 8.19 8.19 0 0 0 704.34 532.35 L 696.15 532.35" fill="#ff614d"/><rect x="769.86" y="524.1600000000001" width="16.379999999999995" height="16.379999999999995" fill="#ffffff"/><circle cx="773.955" cy="528.255" r="4.095" fill="#f8ae54"/><rect x="778.05" y="524.16" width="8.19" height="8.19" fill="#ff614d"/><circle cx="773.955" cy="536.445" r="4.095" fill="#ff614d"/><rect x="778.05" y="532.35" width="8.19" height="8.19" fill="#ff614d"/><rect x="851.76" y="524.1600000000001" width="16.379999999999995" height="16.379999999999995" fill="#ffffff"/><path d="M 851.76 532.35 A 8.19 8.19 0 0 1  859.95 524.16 L 859.95 532.35" fill="#ff614d"/><path d="M 859.95 524.16 A 8.19 8.19 0 0 1 868.1400000000001 532.35 L 859.95 532.35" fill="#f8ae54"/><path d="M 851.76 532.35 A 8.19 8.19 0 0 0 859.95 540.5400000000001 L 859.95 532.35" fill="#f8ae54"/><path d="M 859.95 540.5400000000001 A 8.19 8.19 0 0 0 868.1400000000001 532.35 L 859.95 532.35" fill="#f8ae54"/><rect x="933.6600000000001" y="524.1600000000001" width="16.379999999999995" height="16.379999999999995" fill="#ffffff"/><path d="M 933.66 532.35 A 8.19 8.19 0 0 1  941.85 524.16 L 941.85 532.35" fill="#ff614d"/><path d="M 941.85 524.16 A 8.19 8.19 0 0 1 950.0400000000001 532.35 L 941.85 532.35" fill="#ff614d"/><path d="M 933.66 532.35 A 8.19 8.19 0 0 0 941.85 540.5400000000001 L 941.85 532.35" fill="#f8ae54"/><path d="M 941.85 540.5400000000001 A 8.19 8.19 0 0 0 950.0400000000001 532.35 L 941.85 532.35" fill="#ff614d"/><rect x="1015.5600000000001" y="524.1600000000001" width="16.379999999999995" height="16.379999999999995" fill="#ffffff"/><polygon points="1015.56,524.16 1023.75,524.16 1015.56,532.35" fill="#ff614d"/><polygon points="1023.75,524.16 1031.94,524.16 1031.94,532.35" fill="#ff614d"/><polygon points="1015.56,532.35 1023.75,540.5400000000001 1015.56,540.5400000000001" fill="#ff614d"/><polygon points="1031.94,532.35 1031.94,540.5400000000001 1023.75,540.5400000000001" fill="#f8ae54"/><rect x="1097.46" y="524.1600000000001" width="16.379999999999995" height="16.379999999999995" fill="#ffffff"/><path d="M 1097.46 532.35 A 8.19 8.19 0 0 0 1105.65 524.16 L 1097.46 524.16" fill="#f8ae54"/><path d="M 1105.65 524.16 A 8.19 8.19 0 0 0 1113.8400000000001 532.35 L 1113.8400000000001 524.16" fill="#ff614d"/><path d="M 1097.46 532.35 A 8.19 8.19 0 0 1 1105.65 540.5400000000001 L 1097.46 540.5400000000001" fill="#f8ae54"/><path d="M 1105.65 540.5400000000001 A 8.19 8.19 0 0 1  1113.8400000000001 532.35 L 1113.8400000000001 540.5400000000001" fill="#ff614d"/><rect x="1179.3600000000001" y="524.1600000000001" width="16.379999999999995" height="16.379999999999995" fill="#ffffff"/><polygon points="1179.36,524.16 1187.55,524.16 1179.36,532.35" fill="#f8ae54"/><polygon points="1195.74,524.16 1195.74,532.35 1187.55,532.35" fill="#ff614d"/><polygon points="1179.36,532.35 1187.55,532.35 1187.55,540.5400000000001" fill="#ff614d"/><polygon points="1187.55,532.35 1195.74,540.5400000000001 1187.55,540.5400000000001" fill="#f8ae54"/><rect x="1261.26" y="524.1600000000001" width="16.379999999999995" height="16.379999999999995" fill="#ffffff"/><polygon points="1261.26,524.16 1269.45,524.16 1261.26,532.35" fill="#f8ae54"/><polygon points="1277.64,524.16 1277.64,532.35 1269.45,532.35" fill="#ff614d"/><polygon points="1261.26,532.35 1269.45,532.35 1269.45,540.5400000000001" fill="#f8ae54"/><polygon points="1269.45,532.35 1277.64,540.5400000000001 1269.45,540.5400000000001" fill="#ff614d"/><rect x="32.760000000000005" y="606.0600000000001" width="16.379999999999995" height="16.379999999999995" fill="#ffffff"/><polygon points="32.76,606.06 40.949999999999996,606.06 32.76,614.25" fill="#ff614d"/><polygon points="40.95,606.06 49.14,606.06 49.14,614.25" fill="#f8ae54"/><polygon points="40.949999999999996,614.25 40.949999999999996,622.44 32.76,622.44" fill="#ff614d"/><polygon points="40.95,614.25 49.14,622.44 40.95,622.44" fill="#f8ae54"/><rect x="114.66000000000001" y="606.0600000000001" width="16.379999999999995" height="16.379999999999995" fill="#ffffff"/><polygon points="114.66,606.06 122.85,606.06 114.66,614.25" fill="#ff614d"/><polygon points="122.85,606.06 131.04,606.06 131.04,614.25" fill="#ff614d"/><polygon points="122.85,614.25 122.85,622.44 114.66,622.44" fill="#f8ae54"/><polygon points="122.85,614.25 131.04,622.44 122.85,622.44" fill="#f8ae54"/><rect x="196.56" y="606.0600000000001" width="16.379999999999995" height="16.379999999999995" fill="#ffffff"/><path d="M 196.56 614.25 A 8.19 8.19 0 0 1 204.75 606.06 L 204.75 608.1075 A 6.1425 6.1425 0 0 0 198.60750000000002 614.25" fill="#ff614d"/><path d="M 204.75 606.06 A 8.19 8.19 0 0 1 212.94 614.25 L 210.8925 614.25 A 6.1425 6.1425 0 0 0 204.75 608.1075" fill="#f8ae54"/><path d="M 196.56 614.25 A 8.19 8.19 0 0 0 204.75 622.44 L 204.75 620.3925 A 6.1425 6.1425 0 0 1 198.60750000000002 614.25" fill="#ff614d"/><path d="M 204.75 622.44 A 8.19 8.19 0 0 0 212.94 614.25 L 210.8925 614.25 A 6.1425 6.1425 0 0 1 204.75 620.3925" fill="#ff614d"/><rect x="278.46000000000004" y="606.0600000000001" width="16.379999999999995" height="16.379999999999995" fill="#ffffff"/><circle cx="282.555" cy="610.155" r="4.095" fill="#ff614d"/><rect x="286.65" y="606.06" width="8.19" height="8.19" fill="#f8ae54"/><circle cx="282.555" cy="618.345" r="4.095" fill="#ff614d"/><rect x="286.65" y="614.25" width="8.19" height="8.19" fill="#f8ae54"/><rect x="360.36" y="606.0600000000001" width="16.379999999999995" height="16.379999999999995" fill="#ffffff"/><polygon points="360.36,606.06 368.55,606.06 360.36,614.25" fill="#f8ae54"/><polygon points="376.74,606.06 376.74,614.25 368.55,614.25" fill="#f8ae54"/><polygon points="360.36,614.25 368.55,614.25 368.55,622.44" fill="#ff614d"/><polygon points="368.55,614.25 376.74,622.44 368.55,622.44" fill="#ff614d"/><rect x="442.26" y="606.0600000000001" width="16.379999999999995" height="16.379999999999995" fill="#ffffff"/><path d="M 442.26 606.06 A 8.19 8.19 0 0 0 450.45 614.25 L 450.45 606.06" fill="#ff614d"/><path d="M 450.45 614.25 A 8.19 8.19 0 0 0 458.64 606.06 L 450.45 606.06" fill="#ff614d"/><path d="M 442.26 622.44 A 8.19 8.19 0 0 1  450.45 614.25 L 450.45 622.44" fill="#ff614d"/><path d="M 450.45 614.25 A 8.19 8.19 0 0 1 458.64 622.44 L 450.45 622.44" fill="#f8ae54"/><rect x="524.1600000000001" y="606.0600000000001" width="16.379999999999995" height="16.379999999999995" fill="#ffffff"/><path d="M 524.16 614.25 A 8.19 8.19 0 0 1 532.35 606.06 L 532.35 608.1075 A 6.1425 6.1425 0 0 0 526.2075 614.25" fill="#f8ae54"/><path d="M 532.35 606.06 A 8.19 8.19 0 0 1 540.5400000000001 614.25 L 538.4925000000001 614.25 A 6.1425 6.1425 0 0 0 532.35 608.1075" fill="#ff614d"/><path d="M 524.16 614.25 A 8.19 8.19 0 0 0 532.35 622.44 L 532.35 620.3925 A 6.1425 6.1425 0 0 1 526.2075 614.25" fill="#ff614d"/><path d="M 532.35 622.44 A 8.19 8.19 0 0 0 540.5400000000001 614.25 L 538.4925000000001 614.25 A 6.1425 6.1425 0 0 1 532.35 620.3925" fill="#f8ae54"/><rect x="606.0600000000001" y="606.0600000000001" width="16.379999999999995" height="16.379999999999995" fill="#ffffff"/><polygon points="606.06,606.06 614.25,606.06 606.06,614.25" fill="#ff614d"/><polygon points="614.25,606.06 622.44,606.06 622.44,614.25" fill="#ff614d"/><polygon points="606.06,614.25 614.25,622.44 606.06,622.44" fill="#ff614d"/><polygon points="622.44,614.25 622.44,622.44 614.25,622.44" fill="#f8ae54"/><rect x="687.96" y="606.0600000000001" width="16.379999999999995" height="16.379999999999995" fill="#ffffff"/><polygon points="687.96,606.06 696.1500000000001,606.06 687.96,614.25" fill="#ff614d"/><polygon points="696.15,606.06 704.34,606.06 704.34,614.25" fill="#ff614d"/><polygon points="696.1500000000001,614.25 696.1500000000001,622.44 687.96,622.44" fill="#ff614d"/><polygon points="696.15,614.25 704.34,622.44 696.15,622.44" fill="#f8ae54"/><rect x="769.86" y="606.0600000000001" width="16.379999999999995" height="16.379999999999995" fill="#ffffff"/><polygon points="769.86,606.06 778.0500000000001,606.06 769.86,614.25" fill="#f8ae54"/><polygon points="786.24,606.06 786.24,614.25 778.05,614.25" fill="#f8ae54"/><polygon points="769.86,614.25 778.0500000000001,614.25 778.0500000000001,622.44" fill="#ff614d"/><polygon points="778.05,614.25 786.24,622.44 778.05,622.44" fill="#f8ae54"/><rect x="851.76" y="606.0600000000001" width="16.379999999999995" height="16.379999999999995" fill="#ffffff"/><polygon points="851.76,606.06 859.95,606.06 851.76,614.25" fill="#f8ae54"/><polygon points="859.95,606.06 868.1400000000001,606.06 868.1400000000001,614.25" fill="#ff614d"/><polygon points="859.95,614.25 859.95,622.44 851.76,622.44" fill="#ff614d"/><polygon points="859.95,614.25 868.1400000000001,622.44 859.95,622.44" fill="#f8ae54"/><rect x="933.6600000000001" y="606.0600000000001" width="16.379999999999995" height="16.379999999999995" fill="#ffffff"/><circle cx="937.755" cy="610.155" r="4.095" fill="#f8ae54"/><rect x="941.85" y="606.06" width="8.19" height="8.19" fill="#f8ae54"/><circle cx="937.755" cy="618.345" r="4.095" fill="#ff614d"/><rect x="941.85" y="614.25" width="8.19" height="8.19" fill="#f8ae54"/><rect x="1015.5600000000001" y="606.0600000000001" width="16.379999999999995" height="16.379999999999995" fill="#ffffff"/><circle cx="1019.655" cy="610.155" r="4.095" fill="#ff614d"/><rect x="1023.75" y="606.06" width="8.19" height="8.19" fill="#f8ae54"/><circle cx="1019.655" cy="618.345" r="4.095" fill="#ff614d"/><rect x="1023.75" y="614.25" width="8.19" height="8.19" fill="#ff614d"/><rect x="1097.46" y="606.0600000000001" width="16.379999999999995" height="16.379999999999995" fill="#ffffff"/><polygon points="1097.46,606.06 1105.65,606.06 1097.46,614.25" fill="#ff614d"/><polygon points="1105.65,606.06 1113.8400000000001,606.06 1113.8400000000001,614.25" fill="#ff614d"/><polygon points="1097.46,614.25 1105.65,622.44 1097.46,622.44" fill="#f8ae54"/><polygon points="1113.8400000000001,614.25 1113.8400000000001,622.44 1105.65,622.44" fill="#ff614d"/><rect x="1179.3600000000001" y="606.0600000000001" width="16.379999999999995" height="16.379999999999995" fill="#ffffff"/><polygon points="1179.36,606.06 1187.55,606.06 1179.36,614.25" fill="#f8ae54"/><polygon points="1195.74,606.06 1195.74,614.25 1187.55,614.25" fill="#f8ae54"/><polygon points="1179.36,614.25 1187.55,614.25 1187.55,622.44" fill="#f8ae54"/><polygon points="1187.55,614.25 1195.74,622.44 1187.55,622.44" fill="#ff614d"/><rect x="1261.26" y="606.0600000000001" width="16.379999999999995" height="16.379999999999995" fill="#ffffff"/><polygon points="1261.26,606.06 1269.45,606.06 1261.26,614.25" fill="#ff614d"/><polygon points="1269.45,606.06 1277.64,606.06 1277.64,614.25" fill="#f8ae54"/><polygon points="1261.26,614.25 1269.45,622.44 1261.26,622.44" fill="#f8ae54"/><polygon points="1277.64,614.25 1277.64,622.44 1269.45,622.44" fill="#ff614d"/><rect x="32.760000000000005" y="687.96" width="16.379999999999995" height="16.379999999999995" fill="#ffffff"/><path d="M 32.76 696.1500000000001 A 8.19 8.19 0 0 1  40.949999999999996 687.96 L 40.949999999999996 696.1500000000001" fill="#ff614d"/><path d="M 40.95 687.96 A 8.19 8.19 0 0 1 49.14 696.1500000000001 L 40.95 696.1500000000001" fill="#ff614d"/><path d="M 32.76 696.15 A 8.19 8.19 0 0 0 40.949999999999996 704.34 L 40.949999999999996 696.15" fill="#ff614d"/><path d="M 40.95 704.34 A 8.19 8.19 0 0 0 49.14 696.15 L 40.95 696.15" fill="#f8ae54"/><rect x="114.66000000000001" y="687.96" width="16.379999999999995" height="16.379999999999995" fill="#ffffff"/><path d="M 114.66 687.96 A 8.19 8.19 0 0 0 122.85 696.1500000000001 L 122.85 687.96" fill="#ff614d"/><path d="M 122.85 696.1500000000001 A 8.19 8.19 0 0 0 131.04 687.96 L 122.85 687.96" fill="#ff614d"/><path d="M 114.66 704.34 A 8.19 8.19 0 0 1  122.85 696.15 L 122.85 704.34" fill="#ff614d"/><path d="M 122.85 696.15 A 8.19 8.19 0 0 1 131.04 704.34 L 122.85 704.34" fill="#f8ae54"/><rect x="196.56" y="687.96" width="16.379999999999995" height="16.379999999999995" fill="#ffffff"/><polygon points="196.56,687.96 204.75,687.96 196.56,696.1500000000001" fill="#ff614d"/><polygon points="204.75,687.96 212.94,687.96 212.94,696.1500000000001" fill="#ff614d"/><polygon points="196.56,696.15 204.75,704.34 196.56,704.34" fill="#ff614d"/><polygon points="212.94,696.15 212.94,704.34 204.75,704.34" fill="#ff614d"/><rect x="278.46000000000004" y="687.96" width="16.379999999999995" height="16.379999999999995" fill="#ffffff"/><path d="M 278.46 687.96 A 8.19 8.19 0 0 0 286.65 696.1500000000001 L 286.65 687.96" fill="#f8ae54"/><path d="M 286.65 696.1500000000001 A 8.19 8.19 0 0 0 294.84 687.96 L 286.65 687.96" fill="#f8ae54"/><path d="M 278.46 704.34 A 8.19 8.19 0 0 1  286.65 696.15 L 286.65 704.34" fill="#f8ae54"/><path d="M 286.65 696.15 A 8.19 8.19 0 0 1 294.84 704.34 L 286.65 704.34" fill="#f8ae54"/><rect x="360.36" y="687.96" width="16.379999999999995" height="16.379999999999995" fill="#ffffff"/><circle cx="364.45500000000004" cy="692.0550000000001" r="4.095" fill="#f8ae54"/><rect x="368.55" y="687.96" width="8.19" height="8.19" fill="#ff614d"/><circle cx="364.45500000000004" cy="700.245" r="4.095" fill="#ff614d"/><rect x="368.55" y="696.15" width="8.19" height="8.19" fill="#ff614d"/><rect x="442.26" y="687.96" width="16.379999999999995" height="16.379999999999995" fill="#ffffff"/><path d="M 442.26 687.96 A 8.19 8.19 0 0 1 450.45 696.1500000000001 L 442.26 696.1500000000001" fill="#f8ae54"/><path d="M 450.45 696.1500000000001 A 8.19 8.19 0 0 1  458.64 687.96 L 458.64 696.1500000000001" fill="#f8ae54"/><path d="M 442.26 704.34 A 8.19 8.19 0 0 0 450.45 696.15 L 442.26 696.15" fill="#f8ae54"/><path d="M 450.45 696.15 A 8.19 8.19 0 0 0 458.64 704.34 L 458.64 696.15" fill="#f8ae54"/><rect x="524.1600000000001" y="687.96" width="16.379999999999995" height="16.379999999999995" fill="#ffffff"/><path d="M 524.16 687.96 A 8.19 8.19 0 0 0 532.35 696.1500000000001 L 532.35 687.96" fill="#f8ae54"/><path d="M 532.35 696.1500000000001 A 8.19 8.19 0 0 0 540.5400000000001 687.96 L 532.35 687.96" fill="#f8ae54"/><path d="M 524.16 704.34 A 8.19 8.19 0 0 1  532.35 696.15 L 532.35 704.34" fill="#f8ae54"/><path d="M 532.35 696.15 A 8.19 8.19 0 0 1 540.5400000000001 704.34 L 532.35 704.34" fill="#f8ae54"/><rect x="606.0600000000001" y="687.96" width="16.379999999999995" height="16.379999999999995" fill="#ffffff"/><polygon points="606.06,687.96 614.25,687.96 606.06,696.1500000000001" fill="#f8ae54"/><polygon points="614.25,687.96 622.44,687.96 622.44,696.1500000000001" fill="#f8ae54"/><polygon points="606.06,696.15 614.25,704.34 606.06,704.34" fill="#ff614d"/><polygon points="622.44,696.15 622.44,704.34 614.25,704.34" fill="#ff614d"/><rect x="687.96" y="687.96" width="16.379999999999995" height="16.379999999999995" fill="#ffffff"/><polygon points="687.96,687.96 696.1500000000001,687.96 687.96,696.1500000000001" fill="#f8ae54"/><polygon points="704.34,687.96 704.34,696.1500000000001 696.15,696.1500000000001" fill="#ff614d"/><polygon points="687.96,696.15 696.1500000000001,696.15 696.1500000000001,704.34" fill="#f8ae54"/><polygon points="696.15,696.15 704.34,704.34 696.15,704.34" fill="#ff614d"/><rect x="769.86" y="687.96" width="16.379999999999995" height="16.379999999999995" fill="#ffffff"/><circle cx="773.955" cy="692.0550000000001" r="4.095" fill="#ff614d"/><rect x="778.05" y="687.96" width="8.19" height="8.19" fill="#ff614d"/><circle cx="773.955" cy="700.245" r="4.095" fill="#ff614d"/><rect x="778.05" y="696.15" width="8.19" height="8.19" fill="#ff614d"/><rect x="851.76" y="687.96" width="16.379999999999995" height="16.379999999999995" fill="#ffffff"/><path d="M 851.76 696.1500000000001 A 8.19 8.19 0 0 1 859.95 687.96 L 859.95 690.0075 A 6.1425 6.1425 0 0 0 853.8075 696.1500000000001" fill="#f8ae54"/><path d="M 859.95 687.96 A 8.19 8.19 0 0 1 868.1400000000001 696.1500000000001 L 866.0925000000001 696.1500000000001 A 6.1425 6.1425 0 0 0 859.95 690.0075" fill="#ff614d"/><path d="M 851.76 696.15 A 8.19 8.19 0 0 0 859.95 704.34 L 859.95 702.2925 A 6.1425 6.1425 0 0 1 853.8075 696.15" fill="#f8ae54"/><path d="M 859.95 704.34 A 8.19 8.19 0 0 0 868.1400000000001 696.15 L 866.0925000000001 696.15 A 6.1425 6.1425 0 0 1 859.95 702.2925" fill="#ff614d"/><rect x="933.6600000000001" y="687.96" width="16.379999999999995" height="16.379999999999995" fill="#ffffff"/><polygon points="933.66,687.96 941.85,687.96 933.66,696.1500000000001" fill="#f8ae54"/><polygon points="941.85,687.96 950.0400000000001,687.96 950.0400000000001,696.1500000000001" fill="#ff614d"/><polygon points="933.66,696.15 941.85,704.34 933.66,704.34" fill="#ff614d"/><polygon points="950.0400000000001,696.15 950.0400000000001,704.34 941.85,704.34" fill="#f8ae54"/><rect x="1015.5600000000001" y="687.96" width="16.379999999999995" height="16.379999999999995" fill="#ffffff"/><path d="M 1015.56 696.1500000000001 A 8.19 8.19 0 0 1  1023.75 687.96 L 1023.75 696.1500000000001" fill="#f8ae54"/><path d="M 1023.75 687.96 A 8.19 8.19 0 0 1 1031.94 696.1500000000001 L 1023.75 696.1500000000001" fill="#ff614d"/><path d="M 1015.56 696.15 A 8.19 8.19 0 0 0 1023.75 704.34 L 1023.75 696.15" fill="#ff614d"/><path d="M 1023.75 704.34 A 8.19 8.19 0 0 0 1031.94 696.15 L 1023.75 696.15" fill="#f8ae54"/><rect x="1097.46" y="687.96" width="16.379999999999995" height="16.379999999999995" fill="#ffffff"/><path d="M 1097.46 696.1500000000001 A 8.19 8.19 0 0 1 1105.65 687.96 L 1105.65 690.0075 A 6.1425 6.1425 0 0 0 1099.5075 696.1500000000001" fill="#f8ae54"/><path d="M 1105.65 687.96 A 8.19 8.19 0 0 1 1113.8400000000001 696.1500000000001 L 1111.7925 696.1500000000001 A 6.1425 6.1425 0 0 0 1105.65 690.0075" fill="#f8ae54"/><path d="M 1097.46 696.15 A 8.19 8.19 0 0 0 1105.65 704.34 L 1105.65 702.2925 A 6.1425 6.1425 0 0 1 1099.5075 696.15" fill="#f8ae54"/><path d="M 1105.65 704.34 A 8.19 8.19 0 0 0 1113.8400000000001 696.15 L 1111.7925 696.15 A 6.1425 6.1425 0 0 1 1105.65 702.2925" fill="#ff614d"/><rect x="1179.3600000000001" y="687.96" width="16.379999999999995" height="16.379999999999995" fill="#ffffff"/><path d="M 1179.36 696.1500000000001 A 8.19 8.19 0 0 1  1187.55 687.96 L 1187.55 696.1500000000001" fill="#ff614d"/><path d="M 1187.55 687.96 A 8.19 8.19 0 0 1 1195.74 696.1500000000001 L 1187.55 696.1500000000001" fill="#f8ae54"/><path d="M 1179.36 696.15 A 8.19 8.19 0 0 0 1187.55 704.34 L 1187.55 696.15" fill="#ff614d"/><path d="M 1187.55 704.34 A 8.19 8.19 0 0 0 1195.74 696.15 L 1187.55 696.15" fill="#f8ae54"/><rect x="1261.26" y="687.96" width="16.379999999999995" height="16.379999999999995" fill="#ffffff"/><path d="M 1261.26 696.1500000000001 A 8.19 8.19 0 0 1 1269.45 687.96 L 1269.45 690.0075 A 6.1425 6.1425 0 0 0 1263.3075 696.1500000000001" fill="#f8ae54"/><path d="M 1269.45 687.96 A 8.19 8.19 0 0 1 1277.64 696.1500000000001 L 1275.5925 696.1500000000001 A 6.1425 6.1425 0 0 0 1269.45 690.0075" fill="#f8ae54"/><path d="M 1261.26 696.15 A 8.19 8.19 0 0 0 1269.45 704.34 L 1269.45 702.2925 A 6.1425 6.1425 0 0 1 1263.3075 696.15" fill="#f8ae54"/><path d="M 1269.45 704.34 A 8.19 8.19 0 0 0 1277.64 696.15 L 1275.5925 696.15 A 6.1425 6.1425 0 0 1 1269.45 702.2925" fill="#f8ae54"/><rect x="32.760000000000005" y="769.86" width="16.379999999999995" height="16.379999999999995" fill="#ffffff"/><path d="M 32.76 769.86 A 8.19 8.19 0 0 1 40.949999999999996 778.0500000000001 L 32.76 778.0500000000001" fill="#ff614d"/><path d="M 40.95 778.0500000000001 A 8.19 8.19 0 0 1  49.14 769.86 L 49.14 778.0500000000001" fill="#ff614d"/><path d="M 32.76 786.24 A 8.19 8.19 0 0 0 40.949999999999996 778.05 L 32.76 778.05" fill="#f8ae54"/><path d="M 40.95 778.05 A 8.19 8.19 0 0 0 49.14 786.24 L 49.14 778.05" fill="#ff614d"/><rect x="114.66000000000001" y="769.86" width="16.379999999999995" height="16.379999999999995" fill="#ffffff"/><polygon points="114.66,769.86 122.85,769.86 114.66,778.0500000000001" fill="#f8ae54"/><polygon points="122.85,769.86 131.04,769.86 131.04,778.0500000000001" fill="#ff614d"/><polygon points="122.85,778.05 122.85,786.24 114.66,786.24" fill="#f8ae54"/><polygon points="122.85,778.05 131.04,786.24 122.85,786.24" fill="#f8ae54"/><rect x="196.56" y="769.86" width="16.379999999999995" height="16.379999999999995" fill="#ffffff"/><path d="M 196.56 769.86 A 8.19 8.19 0 0 1 204.75 778.0500000000001 L 196.56 778.0500000000001" fill="#ff614d"/><path d="M 204.75 778.0500000000001 A 8.19 8.19 0 0 1  212.94 769.86 L 212.94 778.0500000000001" fill="#f8ae54"/><path d="M 196.56 786.24 A 8.19 8.19 0 0 0 204.75 778.05 L 196.56 778.05" fill="#f8ae54"/><path d="M 204.75 778.05 A 8.19 8.19 0 0 0 212.94 786.24 L 212.94 778.05" fill="#ff614d"/><rect x="278.46000000000004" y="769.86" width="16.379999999999995" height="16.379999999999995" fill="#ffffff"/><circle cx="282.555" cy="773.955" r="4.095" fill="#ff614d"/><rect x="286.65" y="769.86" width="8.19" height="8.19" fill="#f8ae54"/><circle cx="282.555" cy="782.145" r="4.095" fill="#f8ae54"/><rect x="286.65" y="778.05" width="8.19" height="8.19" fill="#f8ae54"/><rect x="360.36" y="769.86" width="16.379999999999995" height="16.379999999999995" fill="#ffffff"/><path d="M 360.36 778.0500000000001 A 8.19 8.19 0 0 0 368.55 769.86 L 360.36 769.86" fill="#ff614d"/><path d="M 368.55 769.86 A 8.19 8.19 0 0 0 376.74 778.0500000000001 L 376.74 769.86" fill="#ff614d"/><path d="M 360.36 778.05 A 8.19 8.19 0 0 1 368.55 786.24 L 360.36 786.24" fill="#f8ae54"/><path d="M 368.55 786.24 A 8.19 8.19 0 0 1  376.74 778.05 L 376.74 786.24" fill="#ff614d"/><rect x="442.26" y="769.86" width="16.379999999999995" height="16.379999999999995" fill="#ffffff"/><polygon points="442.26,769.86 450.45,769.86 442.26,778.0500000000001" fill="#f8ae54"/><polygon points="458.64,769.86 458.64,778.0500000000001 450.45,778.0500000000001" fill="#f8ae54"/><polygon points="442.26,778.05 450.45,778.05 450.45,786.24" fill="#f8ae54"/><polygon points="450.45,778.05 458.64,786.24 450.45,786.24" fill="#f8ae54"/><rect x="524.1600000000001" y="769.86" width="16.379999999999995" height="16.379999999999995" fill="#ffffff"/><circle cx="528.255" cy="773.955" r="4.095" fill="#f8ae54"/><rect x="532.35" y="769.86" width="8.19" height="8.19" fill="#ff614d"/><circle cx="528.255" cy="782.145" r="4.095" fill="#f8ae54"/><rect x="532.35" y="778.05" width="8.19" height="8.19" fill="#f8ae54"/><rect x="606.0600000000001" y="769.86" width="16.379999999999995" height="16.379999999999995" fill="#ffffff"/><path d="M 606.06 778.0500000000001 A 8.19 8.19 0 0 1 614.25 769.86 L 614.25 771.9075 A 6.1425 6.1425 0 0 0 608.1075 778.0500000000001" fill="#f8ae54"/><path d="M 614.25 769.86 A 8.19 8.19 0 0 1 622.44 778.0500000000001 L 620.3925 778.0500000000001 A 6.1425 6.1425 0 0 0 614.25 771.9075" fill="#f8ae54"/><path d="M 606.06 778.05 A 8.19 8.19 0 0 0 614.25 786.24 L 614.25 784.1925 A 6.1425 6.1425 0 0 1 608.1075 778.05" fill="#ff614d"/><path d="M 614.25 786.24 A 8.19 8.19 0 0 0 622.44 778.05 L 620.3925 778.05 A 6.1425 6.1425 0 0 1 614.25 784.1925" fill="#f8ae54"/><rect x="687.96" y="769.86" width="16.379999999999995" height="16.379999999999995" fill="#ffffff"/><path d="M 687.96 778.0500000000001 A 8.19 8.19 0 0 1  696.1500000000001 769.86 L 696.1500000000001 778.0500000000001" fill="#ff614d"/><path d="M 696.15 769.86 A 8.19 8.19 0 0 1 704.34 778.0500000000001 L 696.15 778.0500000000001" fill="#ff614d"/><path d="M 687.96 778.05 A 8.19 8.19 0 0 0 696.1500000000001 786.24 L 696.1500000000001 778.05" fill="#f8ae54"/><path d="M 696.15 786.24 A 8.19 8.19 0 0 0 704.34 778.05 L 696.15 778.05" fill="#ff614d"/><rect x="769.86" y="769.86" width="16.379999999999995" height="16.379999999999995" fill="#ffffff"/><path d="M 769.86 769.86 A 8.19 8.19 0 0 1 778.0500000000001 778.0500000000001 L 769.86 778.0500000000001" fill="#f8ae54"/><path d="M 778.05 778.0500000000001 A 8.19 8.19 0 0 1  786.24 769.86 L 786.24 778.0500000000001" fill="#f8ae54"/><path d="M 769.86 786.24 A 8.19 8.19 0 0 0 778.0500000000001 778.05 L 769.86 778.05" fill="#ff614d"/><path d="M 778.05 778.05 A 8.19 8.19 0 0 0 786.24 786.24 L 786.24 778.05" fill="#ff614d"/><rect x="851.76" y="769.86" width="16.379999999999995" height="16.379999999999995" fill="#ffffff"/><path d="M 851.76 778.0500000000001 A 8.19 8.19 0 0 1 859.95 769.86 L 859.95 771.9075 A 6.1425 6.1425 0 0 0 853.8075 778.0500000000001" fill="#ff614d"/><path d="M 859.95 769.86 A 8.19 8.19 0 0 1 868.1400000000001 778.0500000000001 L 866.0925000000001 778.0500000000001 A 6.1425 6.1425 0 0 0 859.95 771.9075" fill="#f8ae54"/><path d="M 851.76 778.05 A 8.19 8.19 0 0 0 859.95 786.24 L 859.95 784.1925 A 6.1425 6.1425 0 0 1 853.8075 778.05" fill="#ff614d"/><path d="M 859.95 786.24 A 8.19 8.19 0 0 0 868.1400000000001 778.05 L 866.0925000000001 778.05 A 6.1425 6.1425 0 0 1 859.95 784.1925" fill="#ff614d"/><rect x="933.6600000000001" y="769.86" width="16.379999999999995" height="16.379999999999995" fill="#ffffff"/><polygon points="933.66,769.86 941.85,769.86 933.66,778.0500000000001" fill="#f8ae54"/><polygon points="941.85,769.86 950.0400000000001,769.86 950.0400000000001,778.0500000000001" fill="#f8ae54"/><polygon points="933.66,778.05 941.85,786.24 933.66,786.24" fill="#ff614d"/><polygon points="950.0400000000001,778.05 950.0400000000001,786.24 941.85,786.24" fill="#ff614d"/><rect x="1015.5600000000001" y="769.86" width="16.379999999999995" height="16.379999999999995" fill="#ffffff"/><path d="M 1015.56 778.0500000000001 A 8.19 8.19 0 0 0 1023.75 769.86 L 1015.56 769.86" fill="#f8ae54"/><path d="M 1023.75 769.86 A 8.19 8.19 0 0 0 1031.94 778.0500000000001 L 1031.94 769.86" fill="#ff614d"/><path d="M 1015.56 778.05 A 8.19 8.19 0 0 1 1023.75 786.24 L 1015.56 786.24" fill="#f8ae54"/><path d="M 1023.75 786.24 A 8.19 8.19 0 0 1  1031.94 778.05 L 1031.94 786.24" fill="#ff614d"/><rect x="1097.46" y="769.86" width="16.379999999999995" height="16.379999999999995" fill="#ffffff"/><circle cx="1101.555" cy="773.955" r="4.095" fill="#f8ae54"/><rect x="1105.65" y="769.86" width="8.19" height="8.19" fill="#ff614d"/><circle cx="1101.555" cy="782.145" r="4.095" fill="#ff614d"/><rect x="1105.65" y="778.05" width="8.19" height="8.19" fill="#ff614d"/><rect x="1179.3600000000001" y="769.86" width="16.379999999999995" height="16.379999999999995" fill="#ffffff"/><path d="M 1179.36 778.0500000000001 A 8.19 8.19 0 0 0 1187.55 769.86 L 1179.36 769.86" fill="#ff614d"/><path d="M 1187.55 769.86 A 8.19 8.19 0 0 0 1195.74 778.0500000000001 L 1195.74 769.86" fill="#f8ae54"/><path d="M 1179.36 778.05 A 8.19 8.19 0 0 1 1187.55 786.24 L 1179.36 786.24" fill="#ff614d"/><path d="M 1187.55 786.24 A 8.19 8.19 0 0 1  1195.74 778.05 L 1195.74 786.24" fill="#f8ae54"/><rect x="1261.26" y="769.86" width="16.379999999999995" height="16.379999999999995" fill="#ffffff"/><path d="M 1261.26 778.0500000000001 A 8.19 8.19 0 0 1 1269.45 769.86 L 1269.45 771.9075 A 6.1425 6.1425 0 0 0 1263.3075 778.0500000000001" fill="#f8ae54"/><path d="M 1269.45 769.86 A 8.19 8.19 0 0 1 1277.64 778.0500000000001 L 1275.5925 778.0500000000001 A 6.1425 6.1425 0 0 0 1269.45 771.9075" fill="#f8ae54"/><path d="M 1261.26 778.05 A 8.19 8.19 0 0 0 1269.45 786.24 L 1269.45 784.1925 A 6.1425 6.1425 0 0 1 1263.3075 778.05" fill="#f8ae54"/><path d="M 1269.45 786.24 A 8.19 8.19 0 0 0 1277.64 778.05 L 1275.5925 778.05 A 6.1425 6.1425 0 0 1 1269.45 784.1925" fill="#f8ae54"/></g></svg>