<svg id="Layer_1" enable-background="new 0 0 256 256" height="512" viewBox="0 0 256 256" width="512" xmlns="http://www.w3.org/2000/svg"><g><path d="m226.099 25.969s3.41 12.659 13.229 13.247c0 0-13.107 4.525-13.328 14.202 0 0-2.58-13.572-12.932-14.059 0 0 12.057-1.826 13.031-13.39z" fill="#d7e057"/><path d="m225.998 54.917c-.713 0-1.335-.506-1.472-1.217-.024-.124-2.496-12.417-11.529-12.842-.77-.037-1.388-.651-1.428-1.421-.04-.771.511-1.445 1.273-1.561.441-.069 10.9-1.817 11.761-12.033.061-.725.634-1.301 1.359-1.367.719-.061 1.393.398 1.583 1.101.032.116 3.26 11.626 11.87 12.141.714.043 1.298.584 1.396 1.292s-.319 1.388-.995 1.623c-.121.042-12.125 4.31-12.319 12.819-.018.767-.61 1.396-1.374 1.459-.041.005-.083.006-.125.006zm-7.745-15.729c3.88 1.97 6.233 5.747 7.591 8.878 2.027-4.022 5.945-6.788 8.954-8.428-4.137-1.843-6.787-5.653-8.339-8.724-1.793 4.36-5.273 6.869-8.206 8.274z" fill="#3a312a"/><path d="m204.389 42.95s2.412 8.954 9.357 9.369c0 0-9.271 3.201-9.427 10.045 0 0-1.825-9.6-9.147-9.944 0 0 8.528-1.291 9.217-9.47z" fill="#d7e057"/><path d="m204.317 63.864c-.713 0-1.336-.507-1.472-1.22-.016-.082-1.705-8.442-7.744-8.726-.771-.037-1.388-.651-1.428-1.421-.039-.77.511-1.445 1.274-1.56.296-.047 7.368-1.243 7.947-8.113.061-.726.635-1.303 1.36-1.368.732-.065 1.392.4 1.582 1.102.021.079 2.229 7.919 7.998 8.265.715.043 1.299.584 1.396 1.293.098.709-.32 1.388-.996 1.622-.081.028-8.287 2.953-8.417 8.661-.018.767-.611 1.398-1.376 1.461-.04.003-.082.004-.124.004zm-4.521-11.527c2.109 1.333 3.525 3.395 4.45 5.281 1.377-2.233 3.517-3.873 5.368-4.973-2.289-1.27-3.887-3.351-4.944-5.225-1.174 2.287-3.017 3.875-4.874 4.917z" fill="#3a312a"/><path d="m204.389 16.292s2.412 8.954 9.357 9.37c0 0-9.271 3.201-9.427 10.045 0 0-1.825-9.6-9.147-9.944 0 0 8.528-1.292 9.217-9.471z" fill="#d7e057"/><path d="m204.317 37.207c-.713 0-1.336-.507-1.472-1.22-.016-.082-1.705-8.442-7.744-8.726-.771-.037-1.388-.651-1.428-1.421-.039-.771.511-1.445 1.274-1.56.296-.047 7.368-1.243 7.947-8.114.061-.726.635-1.303 1.36-1.368.732-.064 1.392.4 1.582 1.101.021.079 2.229 7.919 7.998 8.265.715.043 1.299.584 1.396 1.293.098.709-.32 1.388-.996 1.622-.081.028-8.287 2.953-8.417 8.662-.018.767-.611 1.397-1.376 1.461-.04.004-.082.005-.124.005zm-4.521-11.528c2.109 1.333 3.525 3.395 4.45 5.281 1.377-2.233 3.517-3.873 5.368-4.974-2.289-1.269-3.887-3.351-4.944-5.225-1.174 2.288-3.017 3.877-4.874 4.918z" fill="#3a312a"/><path d="m144.032 89.138c2.89 3.44 4.64 7.87 4.64 12.71 0 9.99-7.41 18.25-17.03 19.58 1.68-5.94 2.62-11.73 2.62-17 0-28.48-23.1-51.56-51.59-51.56s-51.59 23.08-51.59 51.56c0 5.27.98 11.07 2.72 17.01-9.67-1.28-17.13-9.56-17.13-19.59 0-4.84 1.74-9.27 4.64-12.71-2.89-3.42-4.64-7.84-4.64-12.67 0-10.04 7.53-18.3 17.24-19.5-.39-1.55-.63-3.16-.63-4.84 0-10.86 8.81-19.66 19.66-19.66 3.71 0 7.16 1.04 10.11 2.82.49-10.42 9.07-18.73 19.62-18.73 10.54 0 19.13 8.31 19.61 18.73 2.96-1.78 6.41-2.82 10.11-2.82 10.86 0 19.66 8.8 19.66 19.66 0 1.68-.23 3.29-.63 4.84 9.72 1.2 17.25 9.46 17.25 19.5 0 4.83-1.75 9.25-4.64 12.67z" fill="#87796f"/><path d="m33.802 122.938c-.065 0-.131-.004-.197-.013-10.509-1.391-18.433-10.452-18.433-21.077 0-4.587 1.492-9.053 4.225-12.709-2.732-3.647-4.225-8.101-4.225-12.671 0-10.108 7.176-18.746 16.941-20.726-.222-1.23-.331-2.424-.331-3.614 0-11.668 9.492-21.16 21.16-21.16 3.059 0 6.076.67 8.844 1.952 1.586-10.184 10.354-17.861 20.886-17.861 10.537 0 19.301 7.678 20.878 17.863 2.774-1.283 5.79-1.953 8.842-1.953 11.667 0 21.16 9.492 21.16 21.16 0 1.193-.11 2.403-.328 3.615 9.77 1.979 16.948 10.617 16.948 20.725 0 4.571-1.493 9.025-4.226 12.673 2.733 3.665 4.226 8.131 4.226 12.707 0 10.565-7.878 19.622-18.324 21.066-.503.069-1.004-.119-1.337-.501-.332-.382-.45-.906-.312-1.393 1.701-6.015 2.563-11.597 2.563-16.592 0-27.603-22.47-50.06-50.09-50.06s-50.09 22.457-50.09 50.06c0 4.982.895 10.563 2.659 16.588.143.487.029 1.013-.301 1.397-.286.335-.703.524-1.138.524zm19.14-88.97c-10.014 0-18.16 8.146-18.16 18.16 0 1.447.191 2.91.585 4.474.105.417.026.859-.217 1.214s-.626.588-1.053.641c-9.079 1.122-15.924 8.865-15.924 18.011 0 4.275 1.522 8.431 4.286 11.702.472.559.473 1.376.001 1.935-2.765 3.279-4.287 7.45-4.287 11.743 0 8.336 5.677 15.551 13.535 17.648-1.411-5.406-2.125-10.465-2.125-15.068 0-29.257 23.816-53.06 53.09-53.06s53.09 23.803 53.09 53.06c0 4.604-.688 9.657-2.045 15.047 7.812-2.132 13.455-9.339 13.455-17.628 0-4.282-1.523-8.454-4.289-11.745-.47-.559-.469-1.375.003-1.933 2.764-3.271 4.286-7.427 4.286-11.702 0-9.146-6.85-16.89-15.934-18.011-.429-.053-.813-.288-1.056-.645s-.32-.801-.213-1.219c.392-1.518.582-2.979.582-4.465 0-10.014-8.146-18.16-18.16-18.16-3.274 0-6.503.901-9.337 2.606-.453.272-1.016.286-1.481.037-.466-.25-.766-.726-.79-1.253-.447-9.7-8.402-17.299-18.111-17.299-9.705 0-17.666 7.599-18.122 17.3-.025.528-.326 1.004-.792 1.253s-1.028.234-1.481-.039c-2.824-1.703-6.052-2.604-9.336-2.604z" fill="#3a312a"/><path d="m63.086 239.701h85.123v-26.788c0-16.327-13.241-29.56-29.576-29.56h-19.54v-12.693c-5.405 3.745-10.997 5.954-16.424 5.954-5.206 0-10.699-2.231-16.081-6.021h-.332v12.759h-19.551c-16.335 0-29.576 13.234-29.576 29.56v26.788h33.454 12.503z" fill="#fae6ca"/><path d="m148.209 241.201h-85.123c-.829 0-1.5-.671-1.5-1.5s.671-1.5 1.5-1.5h83.623v-25.288c0-15.472-12.595-28.06-28.076-28.06h-19.54c-.829 0-1.5-.671-1.5-1.5v-9.93c-5.134 3.114-10.144 4.691-14.923 4.691-4.702 0-9.709-1.659-14.913-4.938v10.177c0 .829-.671 1.5-1.5 1.5h-19.552c-15.481 0-28.076 12.588-28.076 28.06v25.288h31.954c.829 0 1.5.671 1.5 1.5s-.671 1.5-1.5 1.5h-33.454c-.829 0-1.5-.671-1.5-1.5v-26.788c0-17.126 13.94-31.06 31.076-31.06h18.052v-11.259c0-.829.671-1.5 1.5-1.5h.331c.309 0 .611.096.863.273 5.417 3.814 10.538 5.747 15.218 5.747 4.885 0 10.123-1.914 15.569-5.687.46-.318 1.056-.354 1.55-.096.495.259.804.771.804 1.329v11.193h18.041c17.135 0 31.076 13.934 31.076 31.06v26.788c0 .829-.671 1.5-1.5 1.5z" fill="#3a312a"/><path d="m63.086 239.704h85.124v-26.799c0-16.327-13.241-29.561-29.576-29.561h-4.675l.122.088-20.325 26.943-10.489-7.898-10.489 7.898-20.325-26.943.121-.088h-5.869c-16.335 0-29.576 13.234-29.576 29.561v26.799h33.453z" fill="#8ac5dc"/><path d="m148.209 241.204h-85.123c-.829 0-1.5-.671-1.5-1.5s.671-1.5 1.5-1.5h83.624v-25.299c0-15.473-12.595-28.061-28.076-28.061h-3.74l-19.942 26.435c-.498.661-1.438.792-2.1.295l-9.586-7.219-9.586 7.219c-.662.498-1.602.367-2.1-.295l-19.941-26.435h-4.934c-15.481 0-28.076 12.588-28.076 28.061v25.299h31.954c.829 0 1.5.671 1.5 1.5s-.671 1.5-1.5 1.5h-33.454c-.829 0-1.5-.671-1.5-1.5v-26.799c0-17.127 13.94-31.061 31.076-31.061h5.869c.649 0 1.225.417 1.426 1.035.019.057.034.115.045.174l19.027 25.223 9.292-6.997c.534-.403 1.271-.402 1.805 0l9.291 6.997 19.027-25.222c.012-.058.026-.116.045-.173.201-.618.777-1.036 1.427-1.036h4.675c17.135 0 31.076 13.934 31.076 31.061v26.799c-.001.827-.672 1.499-1.501 1.499z" fill="#3a312a"/><path d="m89.077 218.288 4.665 21.42h-20.91l4.665-21.42z" fill="#ef6d7a"/><path d="m93.742 241.208h-20.91c-.454 0-.883-.206-1.168-.559-.285-.354-.394-.816-.298-1.26l4.665-21.42c.15-.689.76-1.181 1.466-1.181h11.58c.706 0 1.315.492 1.466 1.181l4.665 21.42c.096.444-.013.907-.298 1.26s-.714.559-1.168.559zm-19.048-3h17.186l-4.012-18.42h-9.163z" fill="#3a312a"/><path d="m89.081 218.288 4.665-7.919-10.48-7.892-10.437 7.86 4.665 7.951z" fill="#ef6d7a"/><path d="m89.081 219.788h-11.587c-.532 0-1.024-.282-1.294-.741l-4.665-7.951c-.385-.657-.217-1.499.392-1.958l10.438-7.86c.534-.403 1.271-.402 1.805 0l10.479 7.892c.609.459.777 1.302.39 1.959l-4.665 7.919c-.27.459-.762.74-1.293.74zm-10.728-3h9.871l3.55-6.027-8.507-6.406-8.467 6.376z" fill="#3a312a"/><path clip-rule="evenodd" d="m43.521 110.074c0 6.424-5.21 11.631-11.638 11.631-6.427 0-11.637-5.208-11.637-11.631 0-6.424 5.21-11.632 11.637-11.632 6.428.001 11.638 5.208 11.638 11.632z" fill="#fae6ca" fill-rule="evenodd"/><path d="m31.884 123.206c-7.244 0-13.137-5.891-13.137-13.131s5.894-13.132 13.137-13.132c7.244 0 13.138 5.891 13.138 13.132s-5.894 13.131-13.138 13.131zm0-23.264c-5.59 0-10.137 4.545-10.137 10.132 0 5.586 4.547 10.131 10.137 10.131s10.138-4.545 10.138-10.131c-.001-5.587-4.548-10.132-10.138-10.132z" fill="#3a312a"/><ellipse clip-rule="evenodd" cx="133.458" cy="110.074" fill="#fae6ca" fill-rule="evenodd" rx="11.631" ry="11.638" transform="matrix(.002 -1 1 .002 23.111 243.307)"/><path d="m133.458 123.206c-7.244 0-13.138-5.891-13.138-13.131s5.894-13.132 13.138-13.132 13.137 5.891 13.137 13.132-5.893 13.131-13.137 13.131zm0-23.264c-5.59 0-10.138 4.545-10.138 10.132 0 5.586 4.548 10.131 10.138 10.131s10.137-4.545 10.137-10.131c.001-5.587-4.547-10.132-10.137-10.132z" fill="#3a312a"/><path d="m134.261 104.428c0 28.477-27.441 72.188-51.59 72.188-23.051 0-51.59-43.711-51.59-72.188 0-28.478 23.098-51.563 51.59-51.563 28.493 0 51.59 23.085 51.59 51.563z" fill="#fae6ca"/><path d="m82.671 178.116c-11.055 0-24.391-9.743-35.673-26.062-10.743-15.539-17.417-33.789-17.417-47.626 0-29.259 23.816-53.063 53.09-53.063s53.09 23.804 53.09 53.063c0 13.995-6.514 32.241-17 47.618-11.297 16.568-24.452 26.07-36.09 26.07zm0-123.751c-27.62 0-50.09 22.458-50.09 50.063 0 13.261 6.47 30.856 16.885 45.92 10.722 15.509 23.135 24.768 33.205 24.768 10.475 0 23.039-9.256 33.612-24.76 10.164-14.906 16.478-32.504 16.478-45.928 0-27.605-22.471-50.063-50.09-50.063z" fill="#3a312a"/><ellipse cx="64.457" cy="103.846" fill="#3a312a" rx="5.035" ry="5.033"/><path d="m105.921 103.846c0 2.78-2.254 5.033-5.036 5.033-2.781 0-5.035-2.253-5.035-5.033 0-2.779 2.254-5.033 5.035-5.033s5.036 2.253 5.036 5.033z" fill="#3a312a"/><path d="m63.067 118.808c0 3.579-3.884 6.481-8.674 6.481s-8.674-2.902-8.674-6.481c0-3.58 3.883-6.481 8.674-6.481s8.674 2.902 8.674 6.481z" fill="#f59689"/><path d="m119.623 118.808c0 3.579-3.883 6.481-8.674 6.481s-8.674-2.902-8.674-6.481c0-3.58 3.883-6.481 8.674-6.481s8.674 2.902 8.674 6.481z" fill="#f59689"/><path d="m61.291 176.06h13.186v33.749h-13.186z" fill="#87796f" transform="matrix(.799 -.602 .602 .799 -102.42 79.67)"/><path d="m72.778 211.875c-.455 0-.904-.206-1.199-.597l-20.319-26.946c-.24-.318-.343-.718-.288-1.112s.265-.75.583-.99l10.533-7.934c.66-.498 1.601-.366 2.1.295l20.318 26.947c.24.317.343.717.288 1.111s-.265.75-.583.99l-10.532 7.934c-.27.204-.587.302-.901.302zm-18.219-28.151 18.513 24.551 8.136-6.129-18.512-24.551z" fill="#3a312a"/><path d="m92.056 176.06h13.186v33.749h-13.186z" fill="#87796f" transform="matrix(-.799 -.602 .602 -.799 61.362 406.395)"/><g fill="#3a312a"><path d="m93.755 211.875c-.314 0-.631-.098-.901-.302l-10.532-7.934c-.318-.24-.528-.596-.583-.99-.056-.394.048-.794.288-1.112l20.319-26.947c.499-.661 1.441-.793 2.1-.295l10.532 7.934c.318.24.528.596.583.99.056.394-.048.794-.288 1.112l-20.319 26.947c-.295.391-.745.597-1.199.597zm-8.43-9.729 8.136 6.129 18.513-24.551-8.136-6.129z"/><path d="m41.682 241.204c-.829 0-1.5-.671-1.5-1.5v-21.172c0-.829.671-1.5 1.5-1.5s1.5.671 1.5 1.5v21.172c0 .828-.671 1.5-1.5 1.5z"/><path d="m124.851 241.204c-.829 0-1.5-.671-1.5-1.5v-21.172c0-.829.671-1.5 1.5-1.5s1.5.671 1.5 1.5v21.172c0 .828-.672 1.5-1.5 1.5z"/><path d="m82.669 147.753c-7.284 0-12.536-3.271-15.609-9.724-.356-.748-.039-1.643.709-1.999.748-.357 1.643-.039 1.999.709 2.569 5.393 6.789 8.014 12.901 8.014 7.824 0 11.827-5.164 12.851-7.895.291-.776 1.159-1.167 1.931-.878.776.291 1.169 1.156.878 1.931-1.776 4.74-7.435 9.842-15.66 9.842z"/></g><path d="m122.379 232.638c0 3.902 3.164 7.066 7.066 7.066h102.817c3.902 0 7.066-3.163 7.066-7.066v-75.546c0-3.902-3.163-7.066-7.066-7.066h-102.817c-3.902 0-7.066 3.163-7.066 7.066z" fill="#f4e0c4"/><path d="m232.262 241.204h-102.817c-4.723 0-8.566-3.842-8.566-8.565v-75.546c0-4.723 3.843-8.566 8.566-8.566h102.816c4.723 0 8.566 3.843 8.566 8.566v75.546c.001 4.722-3.842 8.565-8.565 8.565zm-102.817-89.678c-3.069 0-5.566 2.497-5.566 5.566v75.546c0 3.069 2.497 5.565 5.566 5.565h102.816c3.069 0 5.566-2.497 5.566-5.565v-75.546c0-3.069-2.497-5.566-5.566-5.566z" fill="#3a312a"/><path d="m188.103 165.759h51.225v-8.667c0-3.902-3.163-7.066-7.066-7.066h-102.817c-3.902 0-7.066 3.163-7.066 7.066v8.667h53.187z" fill="#87796f"/><path d="m239.328 167.259h-51.225c-.829 0-1.5-.671-1.5-1.5s.671-1.5 1.5-1.5h49.725v-7.167c0-3.069-2.497-5.566-5.566-5.566h-102.817c-3.069 0-5.566 2.497-5.566 5.566v7.167h51.688c.829 0 1.5.671 1.5 1.5s-.671 1.5-1.5 1.5h-53.188c-.829 0-1.5-.671-1.5-1.5v-8.667c0-4.723 3.843-8.566 8.566-8.566h102.816c4.723 0 8.566 3.843 8.566 8.566v8.667c.001.828-.671 1.5-1.499 1.5z" fill="#3a312a"/><path d="m198.225 187.456h-7.386c-1.654 0-2.994-1.34-2.994-2.994v-7.387c0-1.654 1.34-2.994 2.994-2.994h7.387c1.654 0 2.994 1.341 2.994 2.994v7.387c-.001 1.653-1.341 2.994-2.995 2.994z" fill="#d4da55"/><path d="m198.226 188.956h-7.387c-2.478 0-4.494-2.016-4.494-4.494v-7.386c0-2.478 2.016-4.494 4.494-4.494h7.387c2.478 0 4.494 2.016 4.494 4.494v7.386c0 2.477-2.016 4.494-4.494 4.494zm-7.387-13.375c-.824 0-1.494.67-1.494 1.494v7.386c0 .824.67 1.494 1.494 1.494h7.387c.824 0 1.494-.67 1.494-1.494v-7.386c0-.824-.67-1.494-1.494-1.494z" fill="#3a312a"/><path d="m143.511 187.456h-7.386c-1.654 0-2.994-1.34-2.994-2.994v-7.387c0-1.654 1.34-2.994 2.994-2.994h7.386c1.654 0 2.994 1.341 2.994 2.994v7.387c0 1.653-1.341 2.994-2.994 2.994z" fill="#d4da55"/><path d="m143.511 188.956h-7.386c-2.478 0-4.494-2.016-4.494-4.494v-7.386c0-2.478 2.016-4.494 4.494-4.494h7.386c2.478 0 4.494 2.016 4.494 4.494v7.386c0 2.477-2.016 4.494-4.494 4.494zm-7.387-13.375c-.824 0-1.494.67-1.494 1.494v7.386c0 .824.67 1.494 1.494 1.494h7.386c.824 0 1.494-.67 1.494-1.494v-7.386c0-.824-.67-1.494-1.494-1.494z" fill="#3a312a"/><path d="m170.868 187.456h-7.387c-1.654 0-2.994-1.34-2.994-2.994v-7.387c0-1.654 1.34-2.994 2.994-2.994h7.387c1.654 0 2.994 1.341 2.994 2.994v7.387c0 1.653-1.34 2.994-2.994 2.994z" fill="#d4da55"/><path d="m170.868 188.956h-7.386c-2.478 0-4.494-2.016-4.494-4.494v-7.386c0-2.478 2.016-4.494 4.494-4.494h7.386c2.478 0 4.494 2.016 4.494 4.494v7.386c0 2.477-2.016 4.494-4.494 4.494zm-7.386-13.375c-.824 0-1.494.67-1.494 1.494v7.386c0 .824.67 1.494 1.494 1.494h7.386c.824 0 1.494-.67 1.494-1.494v-7.386c0-.824-.67-1.494-1.494-1.494z" fill="#3a312a"/><path d="m225.583 187.456h-7.387c-1.654 0-2.994-1.34-2.994-2.994v-7.387c0-1.654 1.34-2.994 2.994-2.994h7.386c1.654 0 2.994 1.341 2.994 2.994v7.387c.001 1.653-1.34 2.994-2.993 2.994z" fill="#d4da55"/><path d="m225.582 188.956h-7.386c-2.478 0-4.494-2.016-4.494-4.494v-7.387c0-2.478 2.016-4.494 4.494-4.494h7.386c2.478 0 4.494 2.016 4.494 4.494v7.386c.001 2.478-2.016 4.495-4.494 4.495zm-7.386-13.375c-.824 0-1.494.67-1.494 1.494v7.387c0 .824.671 1.494 1.494 1.494h7.386c.824 0 1.494-.67 1.494-1.494v-7.386c0-.824-.67-1.494-1.494-1.494h-7.386z" fill="#3a312a"/><path d="m143.511 209.482h-7.386c-1.654 0-2.994-1.34-2.994-2.994v-7.386c0-1.654 1.34-2.994 2.994-2.994h7.386c1.654 0 2.994 1.34 2.994 2.994v7.386c0 1.653-1.341 2.994-2.994 2.994z" fill="#d4da55"/><path d="m143.511 210.982h-7.386c-2.478 0-4.494-2.016-4.494-4.494v-7.387c0-2.478 2.016-4.494 4.494-4.494h7.386c2.478 0 4.494 2.016 4.494 4.494v7.387c0 2.478-2.016 4.494-4.494 4.494zm-7.387-13.375c-.824 0-1.494.67-1.494 1.494v7.387c0 .824.67 1.494 1.494 1.494h7.386c.824 0 1.494-.67 1.494-1.494v-7.387c0-.824-.67-1.494-1.494-1.494z" fill="#3a312a"/><path d="m170.868 209.482h-7.387c-1.654 0-2.994-1.34-2.994-2.994v-7.386c0-1.654 1.34-2.994 2.994-2.994h7.387c1.654 0 2.994 1.34 2.994 2.994v7.386c0 1.653-1.34 2.994-2.994 2.994z" fill="#d4da55"/><path d="m170.868 210.982h-7.386c-2.478 0-4.494-2.016-4.494-4.494v-7.387c0-2.478 2.016-4.494 4.494-4.494h7.386c2.478 0 4.494 2.016 4.494 4.494v7.387c0 2.478-2.016 4.494-4.494 4.494zm-7.386-13.375c-.824 0-1.494.67-1.494 1.494v7.387c0 .824.67 1.494 1.494 1.494h7.386c.824 0 1.494-.67 1.494-1.494v-7.387c0-.824-.67-1.494-1.494-1.494z" fill="#3a312a"/><path d="m198.225 209.482h-7.386c-1.654 0-2.994-1.34-2.994-2.994v-7.386c0-1.654 1.34-2.994 2.994-2.994h7.386c1.654 0 2.994 1.34 2.994 2.994v7.386c0 1.653-1.34 2.994-2.994 2.994z" fill="#d4da55"/><path d="m198.226 210.982h-7.387c-2.478 0-4.494-2.016-4.494-4.494v-7.387c0-2.478 2.016-4.494 4.494-4.494h7.387c2.478 0 4.494 2.016 4.494 4.494v7.387c0 2.478-2.016 4.494-4.494 4.494zm-7.387-13.375c-.824 0-1.494.67-1.494 1.494v7.387c0 .824.67 1.494 1.494 1.494h7.387c.824 0 1.494-.67 1.494-1.494v-7.387c0-.824-.67-1.494-1.494-1.494z" fill="#3a312a"/><path d="m225.583 209.482h-7.387c-1.654 0-2.994-1.34-2.994-2.994v-7.387c0-1.654 1.34-2.994 2.994-2.994h7.386c1.654 0 2.994 1.34 2.994 2.994v7.386c.001 1.654-1.34 2.995-2.993 2.995z" fill="#d4da55"/><path d="m225.582 210.982h-7.386c-2.478 0-4.494-2.016-4.494-4.494v-7.387c0-2.478 2.016-4.494 4.494-4.494h7.386c2.478 0 4.494 2.016 4.494 4.494v7.387c.001 2.478-2.016 4.494-4.494 4.494zm-7.386-13.375c-.824 0-1.494.67-1.494 1.494v7.387c0 .824.671 1.494 1.494 1.494h7.386c.824 0 1.494-.67 1.494-1.494v-7.387c0-.824-.67-1.494-1.494-1.494z" fill="#3a312a"/><path d="m143.511 231.508h-7.386c-1.654 0-2.994-1.34-2.994-2.994v-7.386c0-1.654 1.34-2.994 2.994-2.994h7.386c1.654 0 2.994 1.34 2.994 2.994v7.386c0 1.653-1.341 2.994-2.994 2.994z" fill="#d4da55"/><path d="m143.511 233.008h-7.386c-2.478 0-4.494-2.016-4.494-4.494v-7.386c0-2.478 2.016-4.494 4.494-4.494h7.386c2.478 0 4.494 2.016 4.494 4.494v7.386c0 2.478-2.016 4.494-4.494 4.494zm-7.387-13.375c-.824 0-1.494.67-1.494 1.494v7.386c0 .824.67 1.494 1.494 1.494h7.386c.824 0 1.494-.67 1.494-1.494v-7.386c0-.824-.67-1.494-1.494-1.494z" fill="#3a312a"/><path d="m170.868 231.508h-7.387c-1.654 0-2.994-1.34-2.994-2.994v-7.386c0-1.654 1.34-2.994 2.994-2.994h7.387c1.654 0 2.994 1.34 2.994 2.994v7.386c0 1.653-1.34 2.994-2.994 2.994z" fill="#d4da55"/><path d="m170.868 233.008h-7.386c-2.478 0-4.494-2.016-4.494-4.494v-7.386c0-2.478 2.016-4.494 4.494-4.494h7.386c2.478 0 4.494 2.016 4.494 4.494v7.386c0 2.478-2.016 4.494-4.494 4.494zm-7.386-13.375c-.824 0-1.494.67-1.494 1.494v7.386c0 .824.67 1.494 1.494 1.494h7.386c.824 0 1.494-.67 1.494-1.494v-7.386c0-.824-.67-1.494-1.494-1.494z" fill="#3a312a"/><path d="m198.225 231.508h-7.386c-1.654 0-2.994-1.34-2.994-2.994v-7.386c0-1.654 1.34-2.994 2.994-2.994h7.387c1.654 0 2.994 1.34 2.994 2.994v7.386c-.001 1.653-1.341 2.994-2.995 2.994z" fill="#d4da55"/><path d="m198.226 233.008h-7.387c-2.478 0-4.494-2.016-4.494-4.494v-7.386c0-2.478 2.016-4.494 4.494-4.494h7.387c2.478 0 4.494 2.016 4.494 4.494v7.386c0 2.478-2.016 4.494-4.494 4.494zm-7.387-13.375c-.824 0-1.494.67-1.494 1.494v7.386c0 .824.67 1.494 1.494 1.494h7.387c.824 0 1.494-.67 1.494-1.494v-7.386c0-.824-.67-1.494-1.494-1.494z" fill="#3a312a"/><path d="m225.583 231.508h-7.387c-1.654 0-2.994-1.34-2.994-2.994v-7.387c0-1.654 1.34-2.994 2.994-2.994h7.386c1.654 0 2.994 1.34 2.994 2.994v7.386c.001 1.654-1.34 2.995-2.993 2.995z" fill="#d4da55"/><path d="m225.582 233.008h-7.386c-2.478 0-4.494-2.016-4.494-4.494v-7.386c0-2.478 2.016-4.494 4.494-4.494h7.386c2.478 0 4.494 2.016 4.494 4.494v7.386c.001 2.478-2.016 4.494-4.494 4.494zm-7.386-13.375c-.824 0-1.494.67-1.494 1.494v7.386c0 .824.671 1.494 1.494 1.494h7.386c.824 0 1.494-.67 1.494-1.494v-7.386c0-.824-.67-1.494-1.494-1.494z" fill="#3a312a"/><path d="m167.195 157.931c0 1.845-1.496 3.341-3.341 3.341s-3.341-1.496-3.341-3.341 1.496-3.341 3.341-3.341 3.341 1.496 3.341 3.341z" fill="#eb6e7a"/><path d="m163.854 162.773c-2.669 0-4.841-2.172-4.841-4.841 0-2.67 2.172-4.842 4.841-4.842s4.841 2.172 4.841 4.842c0 2.669-2.172 4.841-4.841 4.841zm0-6.683c-1.015 0-1.841.826-1.841 1.842 0 1.015.826 1.841 1.841 1.841s1.841-.826 1.841-1.841c0-1.016-.826-1.842-1.841-1.842z" fill="#3a312a"/><path d="m201.325 157.931c0 1.845-1.496 3.341-3.341 3.341s-3.341-1.496-3.341-3.341 1.496-3.341 3.341-3.341 3.341 1.496 3.341 3.341z" fill="#eb6e7a"/><path d="m197.984 162.773c-2.669 0-4.841-2.172-4.841-4.841 0-2.67 2.172-4.842 4.841-4.842s4.841 2.172 4.841 4.842c0 2.669-2.172 4.841-4.841 4.841zm0-6.683c-1.015 0-1.841.826-1.841 1.842 0 1.015.826 1.841 1.841 1.841s1.841-.826 1.841-1.841c0-1.016-.826-1.842-1.841-1.842z" fill="#3a312a"/><path d="m221.825 167.256v5.32h3.76c2.48 0 4.49 2.02 4.49 4.5v7.39c0 2.47-2.01 4.49-4.49 4.49h-3.76v5.65h3.76c2.48 0 4.49 2.02 4.49 4.5v7.38c0 2.48-2.01 4.5-4.49 4.5h-3.76v5.65h3.76c2.48 0 4.49 2.01 4.49 4.49v7.39c0 2.48-2.01 4.49-4.49 4.49h-3.78c-.18 2.9-2.59 5.2-5.54 5.2h16c3.07 0 5.56-2.5 5.56-5.57v-65.38z" fill="#decaad"/><path d="m232.265 151.526h-16c3.07 0 5.56 2.5 5.56 5.57v7.16h16v-7.16c0-3.07-2.49-5.57-5.56-5.57z" fill="#695b51"/></g></svg>