<svg id="Layer_1" enable-background="new 0 0 256 256" height="512" viewBox="0 0 256 256" width="512" xmlns="http://www.w3.org/2000/svg"><g><path d="m151.539 130.316c-5.441 7.807-8.641 17.292-8.641 27.53 0 26.629 21.587 48.215 48.215 48.215s48.215-21.587 48.215-48.215-21.587-48.215-48.215-48.215c-11.314 0-21.71 3.908-29.935 10.433z" fill="#ef6d7a"/><path d="m191.113 207.561c-27.413 0-49.715-22.303-49.715-49.716 0-10.208 3.081-20.024 8.91-28.387.474-.682 1.41-.849 2.088-.373.68.474.847 1.408.373 2.088-5.477 7.857-8.371 17.08-8.371 26.672 0 25.759 20.956 46.716 46.715 46.716s46.716-20.957 46.716-46.716-20.957-46.715-46.716-46.715c-10.639 0-20.668 3.495-29.002 10.107-.651.516-1.593.405-2.107-.242-.516-.649-.406-1.593.242-2.107 8.87-7.038 19.544-10.758 30.867-10.758 27.413 0 49.716 22.302 49.716 49.715s-22.303 49.716-49.716 49.716z" fill="#3a312a"/><path d="m196.179 122.572 7.012 14.208c.823 1.667 2.414 2.823 4.254 3.09l15.68 2.278c4.634.673 6.484 6.367 3.131 9.636l-11.346 11.059c-1.331 1.298-1.939 3.168-1.625 5l2.678 15.616c.791 4.615-4.052 8.134-8.197 5.955l-14.024-7.373c-1.646-.865-3.612-.865-5.258 0l-14.024 7.373c-4.144 2.179-8.988-1.34-8.197-5.955l2.678-15.616c.314-1.833-.293-3.702-1.625-5l-11.346-11.059c-3.353-3.268-1.503-8.963 3.131-9.636l15.68-2.278c1.84-.267 3.43-1.423 4.253-3.09l7.012-14.208c2.074-4.199 8.061-4.199 10.133 0z" fill="#d6df58"/><path d="m210.402 191.571c-1.136 0-2.278-.273-3.334-.828l-14.025-7.373c-1.209-.637-2.652-.637-3.861 0l-14.024 7.373c-2.426 1.274-5.311 1.067-7.528-.544s-3.308-4.291-2.845-6.992l2.679-15.617c.231-1.346-.215-2.718-1.193-3.672l-11.346-11.06c-1.963-1.914-2.656-4.722-1.81-7.329.848-2.606 3.059-4.471 5.771-4.865l15.68-2.278c1.352-.196 2.52-1.045 3.123-2.268l7.014-14.209c1.213-2.458 3.669-3.985 6.411-3.985 2.741 0 5.197 1.527 6.41 3.985l7.012 14.208c.604 1.225 1.772 2.073 3.124 2.27l15.68 2.278c2.713.395 4.924 2.259 5.771 4.865.847 2.607.153 5.415-1.809 7.329l-11.346 11.06c-.978.953-1.424 2.326-1.193 3.673l2.679 15.615c.464 2.702-.626 5.381-2.844 6.992-1.253.91-2.719 1.372-4.196 1.372zm-19.289-11.678c1.143 0 2.285.274 3.327.821l14.024 7.373c1.432.753 3.064.635 4.37-.315 1.306-.949 1.923-2.466 1.649-4.058l-2.679-15.616c-.396-2.32.372-4.686 2.057-6.328l11.346-11.059c1.156-1.127 1.549-2.718 1.05-4.253-.499-1.536-1.751-2.592-3.35-2.824l-15.68-2.278c-2.329-.339-4.342-1.801-5.383-3.911l-7.011-14.207c-.715-1.448-2.107-2.313-3.721-2.313-1.615 0-3.007.865-3.722 2.313l-7.013 14.208c-1.04 2.109-3.053 3.571-5.382 3.91l-15.68 2.278c-1.599.232-2.851 1.288-3.35 2.824-.499 1.535-.106 3.126 1.05 4.253l11.346 11.059c1.686 1.644 2.454 4.009 2.057 6.328l-2.679 15.616c-.273 1.592.345 3.108 1.651 4.058 1.308.95 2.941 1.068 4.368.315l14.024-7.373c1.046-.547 2.189-.821 3.331-.821z" fill="#3a312a"/><path d="m226.1 26.158s3.41 12.659 13.229 13.246c0 0-13.107 4.525-13.328 14.202 0 0-2.58-13.572-12.932-14.059 0 .001 12.057-1.825 13.031-13.389z" fill="#d6df58"/><path d="m226 55.105c-.713 0-1.335-.506-1.473-1.217-.023-.124-2.495-12.418-11.529-12.843-.771-.036-1.388-.65-1.428-1.421-.04-.77.511-1.444 1.273-1.561.441-.068 10.901-1.817 11.762-12.032.062-.726.635-1.301 1.359-1.367.732-.063 1.393.399 1.584 1.102.031.116 3.26 11.626 11.87 12.141.714.042 1.298.583 1.396 1.292.098.708-.318 1.388-.994 1.622-.121.043-12.126 4.312-12.319 12.819-.018.767-.61 1.396-1.375 1.46-.042.004-.084.005-.126.005zm-7.746-15.729c3.881 1.97 6.234 5.747 7.592 8.878 2.027-4.021 5.944-6.788 8.954-8.428-4.138-1.843-6.787-5.652-8.339-8.724-1.794 4.36-5.275 6.87-8.207 8.274z" fill="#3a312a"/><path d="m204.39 43.139s2.412 8.954 9.357 9.369c0 0-9.271 3.201-9.427 10.045 0 0-1.825-9.6-9.147-9.944 0 0 8.528-1.291 9.217-9.47z" fill="#d6df58"/><path d="m204.319 64.053c-.714 0-1.337-.507-1.473-1.22-.016-.082-1.705-8.441-7.744-8.726-.77-.036-1.388-.65-1.428-1.421-.04-.77.511-1.444 1.273-1.561.296-.047 7.368-1.243 7.946-8.113.062-.726.636-1.303 1.361-1.368.717-.065 1.393.399 1.581 1.102.023.079 2.23 7.92 8 8.265.714.042 1.299.584 1.396 1.293s-.32 1.389-.997 1.622c-.08.028-8.286 2.953-8.416 8.661-.018.768-.611 1.398-1.376 1.461-.04.003-.082.005-.123.005zm-4.521-11.528c2.108 1.333 3.525 3.396 4.449 5.281 1.377-2.232 3.518-3.873 5.368-4.974-2.289-1.27-3.888-3.351-4.945-5.225-1.174 2.289-3.016 3.877-4.872 4.918z" fill="#3a312a"/><path d="m204.39 16.481s2.412 8.954 9.357 9.37c0 0-9.271 3.201-9.427 10.045 0 0-1.825-9.6-9.147-9.944 0 0 8.528-1.292 9.217-9.471z" fill="#d6df58"/><path d="m204.319 37.396c-.714 0-1.337-.507-1.473-1.22-.016-.082-1.705-8.442-7.744-8.727-.77-.036-1.388-.65-1.428-1.421-.04-.769.511-1.444 1.273-1.56.296-.047 7.368-1.242 7.946-8.113.062-.726.636-1.303 1.361-1.368.717-.063 1.393.399 1.581 1.102.023.079 2.23 7.92 8 8.266.714.043 1.299.584 1.396 1.293s-.32 1.389-.997 1.622c-.08.028-8.286 2.953-8.416 8.661-.018.768-.611 1.397-1.376 1.461-.04.002-.082.004-.123.004zm-4.522-11.528c2.109 1.333 3.526 3.396 4.45 5.281 1.377-2.233 3.518-3.873 5.368-4.974-2.289-1.27-3.887-3.352-4.944-5.226-1.175 2.288-3.017 3.878-4.874 4.919z" fill="#3a312a"/><path d="m191.118 111.136c-3.26 0-6.43.33-9.5.97 15.07 3.13 27.5 13.53 33.44 27.36l8.28 1.2c2.71.39 4.93 2.26 5.77 4.86.85 2.61.16 5.42-1.81 7.33l-8.6 8.38c-.32 4.51-1.28 8.84-2.81 12.91l1.55 9.06c.47 2.7-.62 5.38-2.84 6.99-1.25.91-2.72 1.38-4.2 1.38-1.13 0-2.27-.28-3.33-.83l-1.2-.63c-6.42 6.71-14.82 11.52-24.25 13.48 3.07.64 6.24.97 9.5.97 25.75 0 46.71-20.96 46.71-46.72s-20.96-46.71-46.71-46.71z" fill="#d24e5c"/><path d="m150.334 239.601v-27.33c0-16.657-13.501-30.159-30.158-30.159h-19.926v-12.95c-5.511 3.821-11.214 6.075-16.747 6.075-5.308 0-10.909-2.277-16.398-6.143h-.338v13.018h-19.937c-16.657 0-30.158 13.502-30.158 30.159v27.33z" fill="#f7e3c7"/><path d="m150.334 241.101h-133.663c-.828 0-1.5-.672-1.5-1.5v-27.33c0-17.456 14.202-31.658 31.659-31.658h18.437v-11.518c0-.828.672-1.5 1.5-1.5h.338c.31 0 .611.096.863.273 5.53 3.896 10.757 5.87 15.535 5.87 4.985 0 10.332-1.954 15.893-5.808.459-.319 1.056-.354 1.55-.097.495.259.805.771.805 1.329v11.449h18.426c17.456 0 31.658 14.202 31.658 31.658v27.33c-.001.83-.673 1.502-1.501 1.502zm-132.163-3h130.663v-25.83c0-15.802-12.857-28.658-28.658-28.658h-19.926c-.828 0-1.5-.672-1.5-1.5v-10.184c-5.248 3.193-10.366 4.81-15.247 4.81-4.802 0-9.918-1.701-15.236-5.063v10.438c0 .828-.672 1.5-1.5 1.5h-19.937c-15.803 0-28.659 12.856-28.659 28.658z" fill="#3a312a"/><path d="m150.334 239.605v-27.346c0-16.65-13.497-30.16-30.16-30.16h-4.766l.121.097-20.725 27.48-10.696-8.052-10.696 8.052-20.725-27.48.121-.097h-5.978c-16.662 0-30.16 13.509-30.16 30.16v27.346z" fill="#d6df58"/><path d="m150.334 241.105h-133.662c-.828 0-1.5-.672-1.5-1.5v-27.345c0-17.457 14.202-31.66 31.659-31.66h5.979c.638 0 1.205.402 1.416 1.004.024.071.044.144.058.216l19.425 25.758 9.499-7.151c.535-.402 1.27-.402 1.805 0l9.499 7.151 19.425-25.757c.014-.073.033-.145.058-.217.211-.602.778-1.004 1.416-1.004h4.766c17.457 0 31.659 14.203 31.659 31.66v27.346c-.002.828-.674 1.499-1.502 1.499zm-132.162-3h130.662v-25.845c0-15.804-12.857-28.66-28.659-28.66h-3.824l-20.348 26.98c-.499.662-1.438.792-2.1.295l-9.794-7.373-9.794 7.373c-.662.496-1.602.366-2.1-.295l-20.347-26.98h-5.037c-15.803 0-28.659 12.857-28.659 28.66z" fill="#3a312a"/><path d="m73.102 239.608-20.411-57.411.12-.1h-5.983c-16.659 0-30.156 13.507-30.156 30.166v27.345z" fill="#87796f"/><path d="m73.102 241.108h-56.43c-.828 0-1.5-.672-1.5-1.5v-27.345c0-17.461 14.201-31.666 31.656-31.666h5.982c.631 0 1.194.395 1.41.988.079.218.104.445.082.666l20.212 56.854c.163.46.094.97-.188 1.368-.28.398-.737.635-1.224.635zm-54.93-3h52.805l-19.379-54.511h-4.77c-15.801 0-28.656 12.859-28.656 28.666z" fill="#3a312a"/><path d="m102.474 218.934-7.35 20.674h55.209v-27.345c0-16.659-13.497-30.166-30.156-30.166h-4.772l.13.1-8.695 24.457z" fill="#87796f"/><path d="m150.333 241.108h-55.209c-.487 0-.944-.237-1.226-.635-.281-.398-.351-.908-.188-1.368l7.35-20.674c.276-.78 1.131-1.19 1.916-.91.78.277 1.188 1.135.91 1.916l-6.638 18.671h51.584v-25.845c0-15.807-12.855-28.666-28.656-28.666h-3.549l-8.375 23.559c-.277.781-1.137 1.189-1.915.911-.781-.277-1.188-1.135-.911-1.915l8.488-23.879c-.026-.217-.005-.442.068-.659.207-.608.778-1.018 1.421-1.018h4.773c17.455 0 31.656 14.205 31.656 31.666v27.345c.001.829-.671 1.501-1.499 1.501z" fill="#3a312a"/><circle clip-rule="evenodd" cx="31.717" cy="107.351" fill="#f7e3c7" fill-rule="evenodd" r="11.867"/><path d="m31.717 120.718c-7.371 0-13.367-5.996-13.367-13.367 0-7.37 5.996-13.366 13.367-13.366 7.37 0 13.366 5.996 13.366 13.366 0 7.371-5.996 13.367-13.366 13.367zm0-23.734c-5.717 0-10.367 4.65-10.367 10.366 0 5.717 4.65 10.367 10.367 10.367 5.716 0 10.366-4.65 10.366-10.367 0-5.715-4.65-10.366-10.366-10.366z" fill="#3a312a"/><circle clip-rule="evenodd" cx="135.292" cy="107.351" fill="#f7e3c7" fill-rule="evenodd" r="11.867"/><path d="m135.293 120.718c-7.371 0-13.367-5.996-13.367-13.367 0-7.37 5.996-13.366 13.367-13.366 7.37 0 13.366 5.996 13.366 13.366 0 7.371-5.996 13.367-13.366 13.367zm0-23.734c-5.717 0-10.367 4.65-10.367 10.366 0 5.717 4.65 10.367 10.367 10.367 5.716 0 10.366-4.65 10.366-10.367 0-5.715-4.65-10.366-10.366-10.366z" fill="#3a312a"/><path d="m136.627 96.922c-.24.09-.55.19-.69.38-1.101-13.627-7.394-25.794-16.919-34.498-1.901-1.741-3.522-3.722-4.823-5.883 6.263-3.822 10.065-8.865 10.065-14.388 0-1.631-.3-3.282-.87-4.913 9.395 9.365 15.168 22.062 15.168 36.049 0 1.801.32 22.433-1.931 23.253z" fill="#87796f"/><path d="m135.936 98.802c-.138 0-.276-.019-.413-.058-.601-.173-1.032-.699-1.082-1.321-1.04-12.875-6.877-24.776-16.436-33.512-2.006-1.838-3.72-3.929-5.096-6.217-.425-.707-.2-1.624.504-2.054 6.027-3.679 9.347-8.334 9.347-13.107 0-1.438-.265-2.925-.787-4.418-.23-.66.025-1.393.617-1.765.594-.374 1.364-.284 1.857.207 10.066 10.033 15.609 23.213 15.609 37.112l.004.638c.165 22.881-1.615 23.548-2.918 24.022-.019.007-.062.023-.064.023-.038.014-.078.027-.118.043-.276.263-.645.407-1.024.407zm-19.667-41.428c1.074 1.566 2.336 3.017 3.763 4.323 8.612 7.871 14.371 18.17 16.574 29.468.288-3.104.518-8.265.456-16.836l-.004-.659c0-11.422-3.98-22.335-11.297-31.218v.081c0 5.486-3.358 10.713-9.492 14.841z" fill="#3a312a"/><path d="m41.708 241.104c-.828 0-1.5-.672-1.5-1.5v-21.602c0-.828.672-1.5 1.5-1.5s1.5.672 1.5 1.5v21.602c0 .828-.672 1.5-1.5 1.5z" fill="#3a312a"/><path d="m126.515 241.104c-.828 0-1.5-.672-1.5-1.5v-21.602c0-.828.672-1.5 1.5-1.5s1.5.672 1.5 1.5v21.602c0 .828-.672 1.5-1.5 1.5z" fill="#3a312a"/><path d="m92.343 239.605h-16.504l3.116-20.203h10.272z" fill="#8ac3da"/><path d="m92.344 241.105h-16.505c-.438 0-.854-.191-1.139-.523s-.41-.772-.344-1.205l3.116-20.203c.112-.731.742-1.271 1.482-1.271h10.271c.74 0 1.369.54 1.482 1.271l3.117 20.203c.066.433-.059.873-.344 1.205-.283.332-.699.523-1.136.523zm-14.756-3h13.007l-2.654-17.203h-7.699z" fill="#3a312a"/><path d="m92.769 201.608-3.554 17.789h-10.251l-3.472-17.789z" fill="#8ac3da"/><path d="m89.215 220.898h-10.251c-.718 0-1.335-.508-1.473-1.213l-3.473-17.79c-.085-.439.03-.895.314-1.241.285-.346.71-.546 1.158-.546h17.28c.449 0 .875.201 1.16.549s.398.805.31 1.245l-3.555 17.79c-.139.701-.755 1.206-1.47 1.206zm-9.016-3h7.786l2.955-14.79h-13.628z" fill="#3a312a"/><path d="m61.702 174.676h13.448v34.425h-13.448z" fill="#d6df58" transform="matrix(.799 -.602 .602 .799 -101.71 79.83)"/><path d="m73.416 211.182c-.069 0-.139-.005-.209-.015-.394-.056-.749-.265-.989-.583l-20.72-27.492c-.498-.661-.366-1.602.296-2.101l10.74-8.095c.316-.239.711-.344 1.111-.287.394.056.749.265.989.583l20.719 27.492c.498.661.366 1.602-.295 2.101l-10.739 8.095c-.261.197-.579.302-.903.302zm-18.619-28.698 18.914 25.097 8.344-6.289-18.913-25.097z" fill="#3a312a"/><path d="m93.073 174.676h13.448v34.425h-13.448z" fill="#d6df58" transform="matrix(-.799 -.602 .602 -.799 64.006 405.195)"/><path d="m94.808 211.182c-.324 0-.642-.104-.903-.302l-10.739-8.095c-.661-.499-.793-1.439-.295-2.101l20.719-27.492c.24-.318.596-.527.989-.583.397-.058.794.048 1.111.287l10.74 8.095c.662.499.794 1.439.296 2.101l-20.72 27.492c-.24.318-.596.527-.989.583-.071.01-.14.015-.209.015zm-8.639-9.89 8.344 6.289 18.914-25.097-8.345-6.289z" fill="#3a312a"/><path d="m136.107 101.594c0 29.046-27.975 73.649-52.598 73.649-23.513 0-52.608-44.604-52.608-73.649 0-1.541.07-3.062.19-4.562.02-.22.04-.44.07-.66.19-1.571.6-3.262 1.191-5.023 6.073-18.32 24.453-29.756 43.623-27.575 2.671.31 5.433.47 8.264.47 11.927 0 22.632-2.831 29.956-7.314 1.301 2.151 2.922 4.132 4.823 5.863 10.505 9.616 17.089 23.433 17.089 38.801z" fill="#f7e3c7"/><path d="m83.509 176.744c-11.266 0-24.856-9.936-36.355-26.58-10.95-15.849-17.753-34.46-17.753-48.569 0-1.509.063-3.041.195-4.683.023-.255.045-.496.077-.738.195-1.611.619-3.401 1.257-5.302 6.243-18.835 25.263-30.858 45.215-28.588 2.636.306 5.358.46 8.095.46 11.175 0 21.808-2.585 29.173-7.093.342-.208.753-.274 1.139-.178.388.095.722.34.929.682 1.235 2.046 2.766 3.906 4.548 5.53 11.173 10.225 17.579 24.771 17.579 39.909 0 14.269-6.639 32.876-17.325 48.562-11.515 16.897-24.918 26.588-36.774 26.588zm-12.203-111.735c-16.847 0-32.2 10.733-37.53 26.812-.575 1.714-.953 3.305-1.126 4.732-.028.215-.047.413-.064.611-.124 1.549-.185 3.002-.185 4.431 0 13.532 6.599 31.489 17.221 46.864 10.939 15.833 23.607 25.285 33.888 25.285 10.689 0 23.509-9.449 34.293-25.277 10.365-15.214 16.805-33.174 16.805-46.872 0-14.299-6.051-28.038-16.602-37.694-1.626-1.481-3.067-3.142-4.295-4.948-7.74 4.328-18.378 6.792-29.471 6.792-2.852 0-5.691-.161-8.438-.479-1.506-.173-3.008-.257-4.496-.257z" fill="#3a312a"/><path d="m70.066 100.997c0 2.836-2.299 5.135-5.135 5.135s-5.135-2.299-5.135-5.135 2.299-5.135 5.135-5.135 5.135 2.299 5.135 5.135z" fill="#3a312a"/><path d="m107.212 100.997c0 2.836-2.299 5.135-5.135 5.135s-5.135-2.299-5.135-5.135 2.299-5.135 5.135-5.135 5.135 2.299 5.135 5.135z" fill="#3a312a"/><path d="m63.515 116.262c0 3.652-3.96 6.612-8.845 6.612s-8.845-2.96-8.845-6.612 3.96-6.612 8.845-6.612c4.884 0 8.845 2.96 8.845 6.612z" fill="#f59689"/><path d="m121.185 116.262c0 3.652-3.96 6.612-8.845 6.612s-8.845-2.96-8.845-6.612 3.96-6.612 8.845-6.612 8.845 2.96 8.845 6.612z" fill="#f59689"/><g fill="#3a312a"><path d="m83.503 145.762c-7.416 0-12.762-3.332-15.891-9.903-.355-.748-.038-1.643.71-1.999.748-.355 1.643-.038 1.999.71 2.624 5.513 6.937 8.192 13.182 8.192 7.994 0 12.085-5.281 13.132-8.074.29-.776 1.152-1.172 1.931-.878.775.29 1.169 1.155.878 1.931-1.809 4.825-7.569 10.021-15.941 10.021z"/><path d="m60.541 121.116c-11.235 0-20.376-9.141-20.376-20.376s9.141-20.376 20.376-20.376c11.234 0 20.375 9.141 20.375 20.376 0 11.236-9.141 20.376-20.375 20.376zm0-37.752c-9.581 0-17.376 7.795-17.376 17.376s7.795 17.376 17.376 17.376 17.375-7.795 17.375-17.376-7.794-17.376-17.375-17.376z"/><path d="m107.678 121.116c-11.235 0-20.376-9.141-20.376-20.376s9.141-20.376 20.376-20.376 20.376 9.141 20.376 20.376c0 11.236-9.141 20.376-20.376 20.376zm0-37.752c-9.581 0-17.376 7.795-17.376 17.376s7.795 17.376 17.376 17.376 17.376-7.795 17.376-17.376-7.795-17.376-17.376-17.376z"/><path d="m88.802 102.202h-9.386c-.828 0-1.5-.672-1.5-1.5s.672-1.5 1.5-1.5h9.386c.828 0 1.5.672 1.5 1.5s-.672 1.5-1.5 1.5z"/><path d="m42.169 98.002c-.051 0-.101-.002-.152-.008l-10.895-1.099c-.824-.083-1.425-.818-1.342-1.643s.827-1.438 1.643-1.342l10.895 1.099c.824.083 1.425.818 1.342 1.642-.079.775-.73 1.351-1.491 1.351z"/><path d="m126.062 98.002c-.749 0-1.396-.561-1.487-1.322-.099-.823.489-1.569 1.312-1.667l9.688-1.153c.826-.099 1.569.49 1.667 1.312.099.823-.489 1.569-1.311 1.667l-9.688 1.153c-.061.007-.121.01-.181.01z"/></g><path d="m88.482 16.493c-17.792-1.112-33.534 7.115-41.231 14.552-11.618 9.545-17.592 26.828-17.592 42.622 0 2.886.509 19.306 1.431 23.369.15-1.754.596-3.671 1.264-5.688 6.069-18.315 24.453-29.756 43.623-27.571 2.665.304 5.429.464 8.261.464 22.102 0 40.019-9.718 40.019-21.705s-16.371-24.83-35.775-26.043z" fill="#87796f"/><path d="m31.088 98.535c-.695 0-1.306-.481-1.462-1.168-.975-4.302-1.468-20.791-1.468-23.7 0-17.787 6.933-34.542 18.094-43.743 8.54-8.221 24.925-16.012 42.324-14.928 19.459 1.217 37.181 14.343 37.181 27.539 0 13.012-18.237 23.205-41.519 23.205-2.846 0-5.683-.159-8.432-.474-18.557-2.118-36.23 9.053-42.029 26.553-.659 1.989-1.061 3.787-1.194 5.344-.062.737-.653 1.317-1.392 1.368-.034.003-.069.004-.103.004zm54.18-80.641c-15.334 0-29.431 6.942-36.975 14.23-.028.027-.059.055-.09.08-10.354 8.507-17.045 24.782-17.045 41.463 0 2.113.211 9.116.578 14.99 6.954-17.557 25.242-28.556 44.41-26.371 2.638.302 5.359.454 8.092.454 21.239 0 38.519-9.064 38.519-20.205 0-10.572-14.698-23.315-34.368-24.545-1.045-.065-2.086-.096-3.121-.096z" fill="#3a312a"/></g></svg>