<svg id="Layer_1" enable-background="new 0 0 256 256" height="512" viewBox="0 0 256 256" width="512" xmlns="http://www.w3.org/2000/svg"><g><path clip-rule="evenodd" d="m43.24 107.324c0 6.55-5.31 11.86-11.86 11.86s-11.861-5.31-11.861-11.86c0-6.551 5.31-11.861 11.861-11.861 6.55 0 11.86 5.31 11.86 11.861z" fill="#f5e1c5" fill-rule="evenodd"/><path d="m31.38 120.684c-7.367 0-13.361-5.994-13.361-13.36 0-7.367 5.994-13.361 13.361-13.361s13.36 5.994 13.36 13.361c0 7.366-5.993 13.36-13.36 13.36zm0-23.721c-5.713 0-10.361 4.648-10.361 10.361s4.648 10.36 10.361 10.36 10.36-4.647 10.36-10.36-4.647-10.361-10.36-10.361z" fill="#3a312a"/><ellipse clip-rule="evenodd" cx="134.9" cy="107.323" fill="#f5e1c5" fill-rule="evenodd" rx="11.86" ry="11.86" transform="matrix(.923 -.385 .385 .923 -30.935 60.257)"/><path d="m134.9 120.684c-7.367 0-13.36-5.994-13.36-13.36 0-7.367 5.993-13.361 13.36-13.361s13.36 5.994 13.36 13.361c.001 7.366-5.992 13.36-13.36 13.36zm0-23.721c-5.713 0-10.36 4.648-10.36 10.361s4.647 10.36 10.36 10.36 10.36-4.647 10.36-10.36-4.647-10.361-10.36-10.361z" fill="#3a312a"/><path d="m135.714 101.57c0 29.03-27.96 73.61-52.57 73.61-23.5 0-52.58-44.58-52.58-73.61 0-1.54.07-3.06.19-4.56.02-.22.04-.44.07-.66.19-1.57.6-3.26 1.19-5.02 6.07-18.31 24.44-29.74 43.6-27.56 2.67.31 5.43.47 8.26.47 11.92 0 22.62-2.83 29.94-7.31 1.3 2.15 2.92 4.13 4.82 5.86 10.5 9.61 17.08 23.42 17.08 38.78z" fill="#f5e1c5"/><path d="m83.144 176.68c-11.26 0-24.843-9.931-36.336-26.566-10.944-15.841-17.743-34.441-17.743-48.544 0-1.517.063-3.047.194-4.68.027-.296.049-.521.079-.745.193-1.601.616-3.39 1.254-5.292 6.24-18.824 25.252-30.847 45.192-28.574 2.633.306 5.354.46 8.09.46 11.168 0 21.796-2.584 29.157-7.089.343-.208.755-.271 1.138-.178.389.095.723.34.929.682 1.238 2.047 2.767 3.907 4.546 5.527 11.167 10.22 17.57 24.758 17.57 39.889 0 14.262-6.636 32.859-17.316 48.536-11.507 16.888-24.904 26.574-36.754 26.574zm-12.195-111.675c-16.838 0-32.185 10.728-37.512 26.797-.574 1.714-.952 3.304-1.124 4.728-.028.205-.044.386-.061.566-.127 1.586-.188 3.039-.188 4.475 0 13.525 6.595 31.473 17.211 46.838 10.934 15.824 23.594 25.271 33.868 25.271 10.683 0 23.496-9.444 34.274-25.263 10.36-15.205 16.796-33.156 16.796-46.847 0-14.291-6.048-28.023-16.593-37.674-1.623-1.479-3.062-3.138-4.292-4.945-7.737 4.327-18.369 6.789-29.455 6.789-2.852 0-5.689-.162-8.433-.48-1.504-.171-3.004-.255-4.491-.255z" fill="#3a312a"/><path d="m149.932 212.187v27.32h-133.59v-27.32c0-16.65 13.49-30.14 30.14-30.14h19.93v-13.26c5.59 4.01 11.31 6.39 16.73 6.39 5.53 0 11.22-2.25 16.73-6.06v12.93h19.92c16.65 0 30.14 13.49 30.14 30.14z" fill="#f5e1c5"/><path d="m149.933 241.007h-133.59c-.828 0-1.5-.671-1.5-1.5v-27.32c0-17.446 14.193-31.64 31.64-31.64h18.43v-11.76c0-.562.314-1.078.815-1.335.498-.256 1.101-.213 1.559.116 5.65 4.053 10.985 6.108 15.856 6.108 4.976 0 10.316-1.949 15.876-5.794.459-.316 1.056-.354 1.55-.095s.804.771.804 1.329v11.43h18.42c17.446 0 31.641 14.194 31.641 31.64v27.32c-.001.83-.673 1.501-1.501 1.501zm-132.09-3h130.59v-25.82c0-15.792-12.848-28.64-28.641-28.64h-19.92c-.828 0-1.5-.671-1.5-1.5v-10.168c-5.246 3.186-10.358 4.798-15.229 4.798-4.8 0-9.914-1.703-15.23-5.067v10.438c0 .829-.672 1.5-1.5 1.5h-19.93c-15.792 0-28.64 12.848-28.64 28.64z" fill="#3a312a"/><path d="m149.932 212.187v27.32h-133.59v-27.32c0-16.65 13.49-30.14 30.14-30.14h5.26l-.01.01 20.7 27.45 10.73-8.08 10.74 8.08 20.7-27.45-.01-.01h5.2c16.65 0 30.14 13.49 30.14 30.14z" fill="#8ac2d9"/><path d="m149.933 241.007h-133.59c-.828 0-1.5-.671-1.5-1.5v-27.32c0-17.446 14.193-31.64 31.64-31.64h5.26c.548 0 1.047.297 1.31.768l19.676 26.091 9.532-7.178c.535-.402 1.271-.402 1.804-.001l9.543 7.179 19.71-26.136c.269-.443.748-.724 1.276-.724h5.199c17.446 0 31.641 14.194 31.641 31.64v27.32c-.001.83-.673 1.501-1.501 1.501zm-132.09-3h130.59v-25.82c0-15.792-12.848-28.64-28.641-28.64h-4.435l-20.257 26.864c-.499.662-1.439.793-2.099.296l-9.839-7.401-9.827 7.401c-.661.497-1.601.366-2.1-.295l-20.258-26.863h-4.495c-15.792 0-28.64 12.848-28.64 28.64v25.818z" fill="#3a312a"/><path d="m51.772 182.047 16.76 57.46h-52.19v-27.32c0-16.65 13.49-30.14 30.14-30.14z" fill="#87796f"/><path d="m68.532 241.007h-52.189c-.828 0-1.5-.671-1.5-1.5v-27.32c0-17.446 14.193-31.64 31.64-31.64h5.29c.667 0 1.253.44 1.44 1.08l16.76 57.46c.132.453.043.942-.24 1.32-.284.378-.729.6-1.201.6zm-50.689-3h48.689l-15.885-54.46h-4.165c-15.792 0-28.64 12.848-28.64 28.64v25.82z" fill="#3a312a"/><path d="m149.932 212.187v27.32h-52.1l16.74-57.46h5.22c16.65 0 30.14 13.49 30.14 30.14z" fill="#87796f"/><path d="m149.933 241.007h-52.101c-.472 0-.917-.222-1.2-.6s-.372-.867-.24-1.32l16.74-57.46c.187-.64.773-1.08 1.441-1.08h5.22c17.446 0 31.641 14.194 31.641 31.64v27.32c-.001.829-.673 1.5-1.501 1.5zm-50.102-3h48.602v-25.82c0-15.792-12.848-28.64-28.641-28.64h-4.095z" fill="#3a312a"/><path d="m136.234 96.9c-.24.09-.55.19-.69.38-1.1-13.62-7.39-25.78-16.91-34.48-1.9-1.74-3.52-3.72-4.82-5.88 6.26-3.82 10.06-8.86 10.06-14.38 0-1.63-.3-3.28-.87-4.91 9.39 9.36 15.16 22.05 15.16 36.03 0 1.8.32 22.42-1.93 23.24z" fill="#87796f"/><g fill="#3a312a"><path d="m135.544 98.78c-.137 0-.274-.019-.41-.057-.602-.171-1.034-.698-1.085-1.322-1.039-12.868-6.873-24.763-16.427-33.493-2.002-1.834-3.715-3.925-5.093-6.214-.426-.707-.2-1.624.504-2.054 6.023-3.676 9.341-8.328 9.341-13.1 0-1.438-.265-2.924-.786-4.415-.23-.66.025-1.392.617-1.765.594-.374 1.363-.285 1.857.207 10.061 10.029 15.602 23.203 15.602 37.093l.004.638c.165 22.873-1.616 23.536-2.918 24.011-.021.008-.064.024-.066.024-.036.014-.075.027-.113.042-.28.261-.648.405-1.027.405zm-19.656-41.407c1.075 1.568 2.335 3.017 3.76 4.322 8.606 7.865 14.362 18.157 16.565 29.448.287-3.103.517-8.26.455-16.822l-.004-.66c0-11.415-3.976-22.32-11.29-31.199v.079c0 5.483-3.354 10.707-9.486 14.832z"/><path d="m69.708 100.973c0 2.834-2.297 5.132-5.132 5.132-2.834 0-5.132-2.298-5.132-5.132s2.298-5.132 5.132-5.132c2.835 0 5.132 2.297 5.132 5.132z"/><path d="m106.835 100.973c0 2.834-2.298 5.132-5.132 5.132s-5.132-2.298-5.132-5.132 2.298-5.132 5.132-5.132 5.132 2.297 5.132 5.132z"/></g><path d="m63.161 116.23c0 3.65-3.958 6.609-8.841 6.609-4.882 0-8.84-2.959-8.84-6.609s3.958-6.609 8.84-6.609 8.841 2.959 8.841 6.609z" fill="#f59689"/><path d="m120.8 116.23c0 3.65-3.958 6.609-8.84 6.609s-8.84-2.959-8.84-6.609 3.958-6.609 8.84-6.609 8.84 2.959 8.84 6.609z" fill="#f59689"/><path d="m83.138 145.714c-7.412 0-12.756-3.33-15.882-9.898-.355-.748-.038-1.643.71-1.999s1.644-.038 1.999.71c2.622 5.509 6.932 8.187 13.173 8.187 7.991 0 12.078-5.278 13.124-8.068.291-.776 1.152-1.17 1.931-.879.775.29 1.169 1.155.878 1.931-1.806 4.824-7.563 10.016-15.933 10.016z" fill="#3a312a"/><path d="m88.115 16.514c-17.783-1.111-33.516 7.112-41.209 14.545-11.612 9.539-17.583 26.813-17.583 42.599 0 2.885.509 19.296 1.43 23.356.15-1.753.596-3.669 1.264-5.685 6.065-18.305 24.44-29.74 43.6-27.556 2.664.304 5.426.463 8.257.463 22.09 0 39.998-9.713 39.998-21.694s-16.364-24.816-35.757-26.028z" fill="#87796f"/><path d="m30.752 98.513c-.695 0-1.306-.481-1.462-1.168-.975-4.294-1.468-20.779-1.468-23.688 0-17.778 6.929-34.523 18.084-43.719 8.535-8.217 24.911-16.006 42.303-14.921 19.449 1.216 37.161 14.335 37.161 27.525 0 13.006-18.228 23.193-41.497 23.193-2.838 0-5.674-.159-8.427-.473-18.551-2.117-36.21 9.048-42.006 26.538-.659 1.989-1.061 3.786-1.193 5.34-.062.737-.652 1.318-1.391 1.369-.035.003-.07.004-.104.004zm54.151-80.598c-15.327 0-29.416 6.939-36.956 14.223-.028.028-.059.055-.09.081-10.348 8.501-17.035 24.767-17.035 41.438 0 2.112.211 9.11.577 14.979 6.951-17.545 25.23-28.542 44.387-26.354 2.641.301 5.361.454 8.087.454 21.228 0 38.497-9.059 38.497-20.193 0-10.566-14.689-23.302-34.349-24.531-1.043-.066-2.084-.097-3.118-.097z" fill="#3a312a"/><path d="m42.565 240.996c-.828 0-1.5-.671-1.5-1.5v-21.172c0-.829.672-1.5 1.5-1.5s1.5.671 1.5 1.5v21.172c0 .828-.671 1.5-1.5 1.5z" fill="#3a312a"/><path d="m125.734 240.996c-.828 0-1.5-.671-1.5-1.5v-21.172c0-.829.672-1.5 1.5-1.5s1.5.671 1.5 1.5v21.172c0 .828-.672 1.5-1.5 1.5z" fill="#3a312a"/><path d="m226.429 26.116s3.41 12.659 13.229 13.246c0 0-13.107 4.525-13.328 14.202 0 0-2.58-13.572-12.932-14.059 0 .001 12.057-1.825 13.031-13.389z" fill="#d5dc57"/><path d="m226.328 55.064c-.713 0-1.335-.506-1.473-1.217-.023-.124-2.495-12.418-11.528-12.843-.771-.037-1.388-.651-1.428-1.421s.511-1.445 1.273-1.56c.441-.069 10.901-1.817 11.761-12.032.062-.725.635-1.301 1.359-1.367.738-.058 1.393.4 1.584 1.101.031.116 3.261 11.626 11.87 12.141.714.043 1.298.584 1.395 1.292.098.708-.318 1.388-.994 1.623-.121.042-12.125 4.311-12.319 12.819-.018.767-.61 1.396-1.375 1.459-.041.004-.083.005-.125.005zm-7.745-15.73c3.881 1.97 6.233 5.748 7.591 8.878 2.027-4.022 5.945-6.788 8.954-8.429-4.137-1.842-6.787-5.652-8.339-8.723-1.793 4.36-5.273 6.87-8.206 8.274z" fill="#3a312a"/><path d="m204.719 43.097s2.412 8.954 9.357 9.369c0 0-9.271 3.201-9.427 10.045 0 0-1.825-9.6-9.147-9.944 0 0 8.528-1.291 9.217-9.47z" fill="#d5dc57"/><path d="m204.648 64.011c-.714 0-1.337-.507-1.473-1.22-.016-.082-1.704-8.442-7.743-8.726-.77-.037-1.388-.651-1.428-1.421-.04-.771.511-1.445 1.273-1.561.296-.047 7.368-1.243 7.946-8.113.062-.726.636-1.303 1.361-1.368.723-.061 1.392.399 1.581 1.102.023.079 2.229 7.919 8 8.264.714.043 1.299.584 1.396 1.293.097.71-.32 1.388-.997 1.622-.081.028-8.287 2.953-8.417 8.662-.018.767-.611 1.397-1.376 1.461-.041.004-.082.005-.123.005zm-4.522-11.527c2.108 1.333 3.525 3.395 4.449 5.281 1.377-2.233 3.518-3.873 5.369-4.974-2.289-1.269-3.888-3.351-4.945-5.225-1.174 2.288-3.016 3.876-4.873 4.918z" fill="#3a312a"/><path d="m204.719 16.439s2.412 8.954 9.357 9.37c0 0-9.271 3.201-9.427 10.045 0 0-1.825-9.6-9.147-9.944 0 0 8.528-1.292 9.217-9.471z" fill="#d5dc57"/><path d="m204.648 37.354c-.714 0-1.337-.507-1.473-1.22-.016-.082-1.704-8.442-7.743-8.726-.77-.037-1.388-.651-1.428-1.421-.04-.771.511-1.445 1.273-1.561.296-.047 7.368-1.243 7.946-8.114.062-.726.636-1.303 1.361-1.368.723-.059 1.392.399 1.581 1.102.023.079 2.229 7.919 8 8.265.714.043 1.299.585 1.396 1.294s-.32 1.388-.997 1.622c-.081.028-8.287 2.953-8.417 8.662-.018.767-.611 1.397-1.376 1.461-.041.003-.082.004-.123.004zm-4.522-11.528c2.108 1.333 3.525 3.395 4.449 5.281 1.377-2.233 3.518-3.872 5.369-4.973-2.289-1.27-3.888-3.351-4.945-5.225-1.174 2.287-3.016 3.876-4.873 4.917z" fill="#3a312a"/><path d="m180.757 237.395-31.896-31.891c-2.923-2.923-2.924-7.662-.001-10.585l45.887-45.897c2.923-2.923 7.662-2.924 10.585-.001l31.896 31.891c2.923 2.923 2.924 7.662.001 10.585l-45.887 45.897c-2.922 2.924-7.662 2.924-10.585.001z" fill="#8ac3da"/><path d="m186.05 241.083c-2.301 0-4.602-.875-6.354-2.626l-31.896-31.892c-1.697-1.697-2.632-3.953-2.632-6.353-.001-2.4.934-4.656 2.631-6.353l45.888-45.897c1.696-1.697 3.953-2.632 6.353-2.632s4.656.934 6.354 2.631l31.896 31.891c1.697 1.696 2.632 3.953 2.633 6.352 0 2.4-.935 4.656-2.632 6.354l-45.887 45.897c-1.752 1.752-4.053 2.628-6.354 2.628zm-4.233-4.748c2.334 2.333 6.131 2.333 8.465-.001l45.887-45.897c1.13-1.13 1.753-2.634 1.753-4.232s-.623-3.101-1.754-4.231l-31.896-31.892c-1.131-1.13-2.633-1.752-4.232-1.752s-3.101.623-4.232 1.753l-45.888 45.897c-1.13 1.13-1.752 2.633-1.752 4.232s.623 3.102 1.753 4.232z" fill="#3a312a"/><path d="m237.925 186.203c0 1.6-.63 3.1-1.76 4.23l-45.88 45.9c-1.17 1.17-2.7 1.75-4.23 1.75-1.54 0-3.07-.58-4.24-1.75l-3.27-3.27 42.62-42.63c1.13-1.13 1.76-2.63 1.76-4.23s-.63-3.1-1.76-4.23l-27.39-27.39v-2.47l2.03-2.03c2.34-2.33 6.13-2.33 8.47 0l31.89 31.89c1.13 1.13 1.76 2.63 1.76 4.23z" fill="#6da4bd"/><path d="m155.303 141.661-15.614.001c-4.134 0-7.485 3.352-7.484 7.486l.007 64.901c.001 4.134 3.352 7.484 7.486 7.484l45.104-.004c4.134 0 7.485-3.352 7.484-7.486l-.007-64.901c-.001-4.134-3.352-7.484-7.486-7.484l-15.687.001z" fill="#ed6e7a"/><path d="m139.696 223.033c-2.399 0-4.655-.934-6.353-2.631-1.697-1.697-2.632-3.953-2.632-6.353l-.007-64.901c-.001-2.4.934-4.656 2.631-6.354 1.697-1.697 3.953-2.632 6.354-2.632l15.613-.001c.828 0 1.5.671 1.5 1.5 0 .828-.672 1.5-1.5 1.5l-15.613.001c-1.599 0-3.102.623-4.232 1.753-1.13 1.131-1.752 2.634-1.752 4.232l.007 64.902c0 1.599.623 3.101 1.753 4.232 1.131 1.13 2.634 1.752 4.232 1.752l45.105-.003c3.3-.001 5.984-2.686 5.984-5.986l-.007-64.901c-.001-3.3-2.686-5.984-5.985-5.984l-15.688.002c-.828 0-1.5-.671-1.5-1.5 0-.828.672-1.5 1.5-1.5l15.688-.002h.001c4.953 0 8.983 4.03 8.984 8.983l.007 64.902c0 4.954-4.03 8.985-8.984 8.986z" fill="#3a312a"/><path d="m181.562 181.852c-.001-7.596-9.671-16.112-18.034-20.456-.796-.413-1.775-.413-2.571 0-8.361 4.345-18.03 12.863-18.03 20.459.001 7.348 6.908 13.643 16.611 9.802l-6.648 10.449 18.712-.002-6.65-10.448c9.706 3.84 16.611-2.456 16.61-9.804z" fill="#87796f"/><path d="m152.892 203.606c-.547 0-1.052-.298-1.314-.778-.264-.48-.245-1.065.049-1.527l4.558-7.165c-3.48.545-6.726-.104-9.403-1.924-3.351-2.277-5.352-6.149-5.353-10.357 0-8.245 9.766-17.075 18.839-21.79 1.236-.644 2.715-.644 3.953 0 9.074 4.713 18.842 13.541 18.843 21.787.001 4.208-2 8.08-5.351 10.357-2.679 1.822-5.927 2.472-9.402 1.926l4.559 7.163c.294.462.312 1.047.05 1.527-.264.48-.768.778-1.315.778zm6.647-13.449c.438 0 .865.192 1.156.544.414.501.458 1.212.109 1.761l-5.181 8.144 13.247-.001-5.184-8.143c-.349-.549-.305-1.26.109-1.761.415-.502 1.105-.679 1.708-.439 3.968 1.57 7.705 1.38 10.521-.534 2.528-1.719 4.037-4.663 4.037-7.876-.001-6.611-8.876-14.788-17.226-19.124-.361-.188-.826-.188-1.188 0-8.349 4.339-17.222 12.517-17.222 19.128 0 3.213 1.511 6.157 4.039 7.876 2.816 1.913 6.552 2.102 10.521.532.181-.073.369-.107.554-.107z" fill="#3a312a"/><path d="m89.079 217.575 4.754 21.932h-21.307l4.753-21.932z" fill="#ea6d7a"/><path d="m93.833 241.007h-21.307c-.453 0-.883-.205-1.168-.558-.284-.354-.395-.816-.298-1.26l4.753-21.933c.149-.69.76-1.182 1.466-1.182h11.8c.706 0 1.316.492 1.466 1.182l4.754 21.933c.097.443-.014.906-.298 1.259-.285.354-.715.559-1.168.559zm-19.446-3h17.586l-4.104-18.933h-9.38z" fill="#3a312a"/><path d="m93.902 209.516-4.83 8.06h-11.77l-4.87-8.06 10.73-8.09z" fill="#ea6d7a"/><path d="m89.072 219.076h-11.77c-.525 0-1.012-.275-1.284-.724l-4.87-8.06c-.397-.658-.232-1.511.381-1.974l10.729-8.09c.533-.403 1.271-.404 1.806 0l10.74 8.09c.613.462.778 1.311.385 1.969l-4.83 8.06c-.271.452-.759.729-1.287.729zm-10.924-3h10.074l3.699-6.173-8.76-6.598-8.746 6.595z" fill="#3a312a"/><path d="m60.73 174.545h13.436v34.39h-13.436z" fill="#8ac2d9" transform="matrix(.799 -.602 .602 .799 -101.789 79.168)"/><path d="m72.435 211.011c-.455 0-.903-.206-1.198-.597l-20.704-27.458c-.24-.317-.344-.717-.288-1.111s.265-.75.583-.99l10.731-8.084c.661-.499 1.601-.366 2.1.295l20.705 27.459c.24.318.344.718.288 1.112s-.265.75-.583.99l-10.732 8.084c-.271.202-.587.3-.902.3zm-18.603-28.663 18.897 25.063 8.336-6.279-18.898-25.063z" fill="#3a312a"/><path d="m92.167 174.545h13.436v34.39h-13.436z" fill="#8ac2d9" transform="matrix(-.799 -.602 .602 -.799 62.504 404.388)"/><path d="m93.897 211.011c-.314 0-.631-.098-.901-.302l-10.732-8.084c-.318-.24-.527-.596-.583-.99s.048-.794.288-1.111l20.704-27.458c.498-.662 1.438-.792 2.1-.295l10.733 8.084c.318.24.527.596.583.99s-.048.794-.288 1.112l-20.705 27.459c-.294.389-.744.595-1.199.595zm-8.628-9.879 8.335 6.279 18.899-25.063-8.336-6.279z" fill="#3a312a"/><path d="m123.428 16.449h-79.58c-7.848 0-14.21 6.362-14.21 14.21v36.801h108v-36.802c0-7.847-6.362-14.209-14.21-14.209z" fill="#87796f"/><path d="m137.638 68.96h-108c-.828 0-1.5-.671-1.5-1.5v-36.802c0-8.662 7.048-15.709 15.71-15.709h79.581c8.662 0 15.709 7.047 15.709 15.709v36.802c0 .829-.672 1.5-1.5 1.5zm-106.5-3h105v-35.302c0-7.008-5.701-12.709-12.709-12.709h-79.581c-7.008 0-12.71 5.702-12.71 12.709z" fill="#3a312a"/><path d="m57.356 51.46h-27.718v16h108v-16h-67.759z" fill="#ed6e7a"/><path d="m137.638 68.96h-108c-.828 0-1.5-.671-1.5-1.5v-16c0-.829.672-1.5 1.5-1.5h27.719c.828 0 1.5.671 1.5 1.5s-.672 1.5-1.5 1.5h-26.219v13h105v-13h-66.259c-.828 0-1.5-.671-1.5-1.5s.672-1.5 1.5-1.5h67.759c.828 0 1.5.671 1.5 1.5v16c0 .828-.672 1.5-1.5 1.5z" fill="#3a312a"/><path d="m26.576 86.947c-5.381 0-9.744-4.362-9.744-9.744 0-5.381 4.363-9.744 9.744-9.744h113.512c5.381 0 9.744 4.362 9.744 9.744 0 5.381-4.363 9.744-9.744 9.744z" fill="#87796f"/><path d="m140.089 88.447h-113.513c-6.2 0-11.244-5.044-11.244-11.244s5.044-11.244 11.244-11.244h113.513c6.199 0 11.243 5.044 11.243 11.244s-5.044 11.244-11.243 11.244zm-113.513-19.487c-4.546 0-8.244 3.698-8.244 8.244 0 4.545 3.698 8.244 8.244 8.244h113.513c4.545 0 8.243-3.698 8.243-8.244s-3.698-8.244-8.243-8.244z" fill="#3a312a"/></g></svg>